<svg width="5657" height="1853" viewBox="0 0 5657 1853" fill="none" xmlns="http://www.w3.org/2000/svg">
<g clip-path="url(#clip0_53995_45669)">
<g opacity="0.4">
<path d="M6084.82 1522.24C6136.7 1436.12 6131.16 1324.65 6093.27 1231.52C6055.38 1138.4 5988.97 1060.05 5921.38 985.625C5832.03 887.222 5735.82 790.446 5615.39 734.211C5447.54 655.839 5252.64 665.16 5069.38 692.169C4743.97 740.135 4427.83 838.413 4120.38 955.304C3790.81 1080.6 3454.75 1230.36 3102.74 1210.33C2786.85 1192.36 2571.36 1037.86 2343.27 838.75C2130.55 653.046 1954.59 413.48 1690.61 291.984C1344.23 132.559 917.879 214.553 609.669 439.056C301.459 663.56 100.805 1011.31 -13.9102 1374.96" stroke="#C61C1E" stroke-width="1.99744" stroke-miterlimit="10"/>
<path d="M6114.77 1484.11C6161.91 1409.76 6148.12 1310.2 6104.08 1222.85C6060.17 1135.74 5991.26 1059.43 5920.47 989.401C5827.28 897.202 5728.32 804.175 5604.72 751.534C5429.06 676.699 5225.53 683.676 5035.32 707.189C4711.17 747.238 4396.88 839.648 4091.97 949.296C3767.63 1065.93 3438.17 1210.06 3092.21 1187.85C2776.63 1167.59 2556.97 1018.23 2326.57 829.555C2111.01 653.846 1931.86 430.353 1670.2 319.329C1328.02 174.138 910.612 260.189 603.426 480.748C294.963 701.784 89.2138 1034.04 -32.4082 1388.35" stroke="#C61C1E" stroke-width="1.99744" stroke-miterlimit="10"/>
<path d="M6144.72 1445.99C6187.11 1383.39 6165.27 1296.01 6114.9 1214.19C6065.12 1133.31 5993.62 1058.83 5919.57 993.205C5822.58 907.239 5720.74 818.002 5594.06 768.87C5410.45 697.657 5198.54 702.303 5001.27 722.209C4678.56 754.762 4366.02 840.883 4063.58 943.287C3744.54 1051.32 3421.59 1189.7 3081.71 1165.36C2766.44 1142.78 2543 998.062 2309.88 820.36C2091.89 654.182 1909.27 447.254 1649.81 346.674C1311.97 215.717 903.363 305.825 597.203 522.453C288.473 740.022 77.6281 1056.77 -50.9004 1401.76" stroke="#C61C1E" stroke-width="1.99744" stroke-miterlimit="10"/>
<path d="M6174.65 1407.86C6212.3 1357.03 6182.62 1282.06 6125.69 1205.51C6070.29 1131.03 5995.98 1058.24 5918.65 996.996C5817.97 917.262 5713.08 831.899 5583.4 786.193C5391.74 718.658 5171.65 721.016 4967.2 737.215C4646.07 762.651 4335.22 842.118 4035.19 937.265C3721.52 1036.74 3405 1169.29 3071.2 1142.87C2756.22 1117.94 2528.8 978.171 2293.19 811.152C2072.53 654.73 1886.8 464.127 1629.42 374.006C1296.04 257.255 896.111 351.461 590.975 564.131C281.993 778.219 66.0522 1079.47 -69.3828 1415.12" stroke="#C61C1E" stroke-width="1.99744" stroke-miterlimit="10"/>
<path d="M6204.59 1369.74C6237.51 1330.67 6200.28 1268.26 6136.5 1196.83C6075.76 1128.82 5998.44 1057.65 5917.74 1000.79C5813.42 927.284 5705.36 845.866 5572.73 803.529C5372.95 739.756 5144.84 739.854 4933.15 752.235C4613.7 770.919 4304.5 843.395 4006.79 931.243C3698.58 1022.19 3388.41 1148.81 3060.69 1120.37C2745.99 1093.07 2514.55 958.251 2276.5 801.942C2053.15 655.277 1864.44 481.014 1609.03 401.323C1280.27 298.75 888.855 397.069 584.744 605.795C275.509 816.443 54.4724 1102.18 -87.8691 1428.51" stroke="#C61C1E" stroke-width="1.99744" stroke-miterlimit="10"/>
<path d="M6234.54 1331.61C6262.71 1304.32 6218.24 1254.54 6147.31 1188.17C6081.56 1126.65 6000.95 1057.06 5916.82 1004.57C5808.97 937.278 5697.6 859.903 5562.08 820.85C5354.1 760.924 5118.1 758.79 4899.1 767.241C4581.41 779.509 4273.87 844.672 3978.4 925.22C3675.72 1007.73 3371.8 1128.27 3050.17 1097.88C2735.74 1068.18 2500.29 938.359 2259.81 792.747C2033.74 655.852 1842.21 497.887 1588.65 428.667C1264.64 340.216 882.062 443.379 578.526 647.5C269.474 855.327 42.8926 1124.89 -106.355 1441.89" stroke="#C61C1E" stroke-width="1.99744" stroke-miterlimit="10"/>
<path d="M6264.48 1293.48C6287.91 1277.96 6236.52 1240.83 6158.12 1179.5C6087.66 1124.39 6003.52 1056.45 5915.91 1008.37C5804.58 947.261 5689.79 874.013 5551.41 838.189C5335.17 782.207 5091.41 777.855 4865.04 782.277C4549.18 788.439 4243.33 846.022 3950 919.228C3652.93 993.36 3355.21 1107.71 3039.66 1075.42C2725.5 1043.28 2485.99 918.498 2243.12 783.568C2014.29 656.443 1820.11 514.748 1568.25 456.028C1249.16 381.629 874.874 489.143 572.293 689.207C263.058 893.665 31.3108 1147.61 -124.844 1455.28" stroke="#C61C1E" stroke-width="1.99744" stroke-miterlimit="10"/>
<path d="M6294.43 1255.36C6313.11 1251.6 6255.1 1227.03 6168.93 1170.84C6094.06 1122 6006.14 1055.83 5915.01 1012.17C5800.26 957.214 5681.97 888.205 5540.75 855.526C5316.22 803.572 5064.77 797.045 4830.98 797.298C4517.01 797.634 4212.86 847.398 3921.59 913.22C3630.21 979.057 3338.6 1087.08 3029.14 1052.94C2715.24 1018.31 2471.66 898.621 2226.42 774.374C1994.83 657.033 1798.13 531.551 1547.84 483.374C1233.84 422.928 867.665 534.892 566.052 730.914C256.621 932.017 19.7076 1170.35 -143.354 1468.69" stroke="#C61C1E" stroke-width="1.99744" stroke-miterlimit="10"/>
<path d="M6324.37 1217.23C6338.31 1225.23 6273.9 1213.06 6179.74 1162.16C6100.66 1119.43 6008.8 1055.14 5914.09 1015.95C5796 967.082 5674.1 902.424 5530.09 872.833C5297.21 824.993 5038.17 816.332 4796.93 812.289C4484.9 807.067 4182.48 848.8 3893.22 907.169C3607.61 964.807 3322.01 1066.34 3018.66 1030.42C2705.02 993.276 2457.34 878.729 2209.77 765.136C1975.37 657.594 1776.34 548.241 1527.5 510.662C1218.71 464.043 860.502 580.57 559.872 772.548C250.202 970.31 8.15115 1193.05 -161.816 1482.05" stroke="#C61C1E" stroke-width="1.99744" stroke-miterlimit="10"/>
<path d="M6354.31 1179.11C6363.52 1198.89 6292.89 1198.87 6190.54 1153.5C6107.44 1116.67 6011.51 1054.44 5913.17 1019.75C5791.78 976.924 5666.21 916.744 5519.42 890.185C5278.17 846.542 5011.58 835.789 4762.86 827.324C4452.79 816.768 4152.17 850.304 3864.81 901.177C3585.05 950.701 3305.38 1045.6 3008.13 1007.95C2694.74 968.248 2442.95 858.909 2193.06 755.957C1955.84 658.213 1754.63 564.905 1507.09 538.023C1203.68 505.077 853.271 626.306 553.61 814.27C243.758 1008.62 -3.44467 1215.76 -180.305 1495.45" stroke="#C61C1E" stroke-width="1.99744" stroke-miterlimit="10"/>
<path d="M6384.26 1140.98C6388.73 1172.52 6312.01 1184.43 6201.37 1144.83C6114.33 1113.68 6014.25 1053.68 5912.28 1023.54C5787.62 986.692 5658.33 931.089 5508.76 907.506C5259.12 868.144 4985.02 855.356 4728.82 842.329C4420.71 826.663 4121.97 851.847 3836.42 895.153C3562.59 936.69 3288.78 1024.78 2997.63 985.457C2684.48 943.175 2428.56 839.086 2176.37 746.747C1936.3 658.843 1733.04 581.426 1486.69 565.353C1188.8 545.911 846.054 672.011 547.375 855.945C237.298 1046.9 -15.028 1238.46 -198.809 1508.81" stroke="#C61C1E" stroke-width="1.99744" stroke-miterlimit="10"/>
<path d="M6414.21 1102.85C6413.93 1146.16 6331.19 1169.73 6212.18 1136.16C6121.26 1110.52 6017.02 1052.88 5911.37 1027.33C5783.47 996.406 5650.42 945.492 5498.12 924.842C5240.06 889.847 4958.48 875.079 4694.77 857.363C4388.62 836.784 4091.84 853.503 3808.03 889.159C3540.19 922.807 3272.18 1003.92 2987.12 962.997C2674.21 918.076 2414.13 819.322 2159.69 737.58C1916.75 659.531 1711.58 597.864 1466.31 592.726C1174.06 586.606 838.844 717.745 541.162 897.666C230.86 1085.22 -26.5902 1261.2 -217.277 1522.23" stroke="#C61C1E" stroke-width="1.99744" stroke-miterlimit="10"/>
<path d="M6444.15 1064.73C6439.13 1119.8 6350.38 1154.79 6222.99 1127.49C6128.18 1107.18 6019.78 1052.02 5910.45 1031.12C5779.34 1006.05 5642.52 959.949 5487.45 942.163C5220.97 911.617 4931.92 894.926 4660.71 872.368C4356.55 847.058 4061.78 855.228 3779.64 883.135C3517.85 909.02 3255.59 982.97 2976.62 940.493C2663.94 892.877 2399.7 799.541 2143.01 728.356C1897.18 660.189 1690.21 614.09 1445.93 620.028C1159.42 627.004 831.613 763.408 534.942 939.327C224.402 1123.49 -38.172 1283.89 -235.766 1535.6" stroke="#C61C1E" stroke-width="1.99744" stroke-miterlimit="10"/>
<path d="M6474.09 1026.6C6464.32 1093.43 6369.54 1139.63 6233.8 1118.83C6135.07 1103.7 6022.55 1051.12 5909.56 1034.93C5775.23 1015.65 5634.62 974.451 5476.79 959.515C5201.89 933.489 4905.36 914.946 4626.66 887.404C4324.46 857.546 4031.8 857.083 3751.24 877.128C3495.59 895.405 3239 961.986 2966.11 918.02C2653.67 867.667 2385.23 779.819 2126.32 719.177C1877.59 660.921 1668.9 630.192 1425.53 647.389C1144.85 667.224 824.371 809.102 528.711 981.035C217.918 1161.77 -49.7518 1306.61 -254.252 1548.98" stroke="#C61C1E" stroke-width="1.99744" stroke-miterlimit="10"/>
<path d="M6504.04 988.475C6489.54 1067.09 6388.63 1124.27 6244.61 1110.15C6141.91 1100.09 6025.33 1050.17 5908.65 1038.7C5771.11 1025.18 5626.7 988.966 5466.14 976.823C5182.82 955.388 4878.79 935.061 4592.62 902.396C4292.35 868.13 4001.89 859.02 3722.86 871.092C3473.39 881.887 3222.42 940.915 2955.61 895.503C2643.42 842.371 2370.77 760.096 2109.64 709.94C1857.99 661.622 1647.65 646.041 1405.17 674.691C1130.35 707.161 817.144 854.738 522.508 1022.7C211.477 1199.99 -61.3164 1329.31 -272.709 1562.35" stroke="#C61C1E" stroke-width="1.99744" stroke-miterlimit="10"/>
<path d="M6533.98 950.349C6514.73 1040.72 6407.65 1108.75 6255.42 1101.49C6148.69 1096.4 6028.09 1049.19 5907.73 1042.51C5766.96 1034.69 5618.8 1003.55 5455.47 994.16C5163.72 977.399 4852.17 955.346 4558.55 917.416C4260.21 878.883 3972 861.126 3694.45 865.084C3451.19 868.551 3205.81 919.817 2945.08 873.029C2633.13 817.047 2356.27 740.43 2092.94 700.76C1838.37 662.409 1626.4 661.749 1384.75 702.051C1115.82 746.887 809.871 900.417 516.26 1064.4C204.961 1238.26 -72.9134 1352.04 -291.227 1575.75" stroke="#C61C1E" stroke-width="1.99744" stroke-miterlimit="10"/>
<path d="M6563.92 912.224C6539.93 1014.36 6426.6 1093.1 6266.22 1092.82C6155.38 1092.62 6030.86 1048.16 5906.82 1046.3C5762.82 1044.14 5610.89 1018.15 5444.81 1011.5C5144.66 999.468 4825.56 975.787 4524.49 932.452C4228.05 889.778 3942.17 863.401 3666.05 859.092C3429.05 855.386 3189.22 898.678 2934.56 850.571C2622.88 791.683 2341.78 720.821 2076.25 691.595C1818.75 663.239 1605.14 677.276 1364.36 729.412C1101.29 786.391 802.612 946.097 510.026 1106.13C198.475 1276.51 -84.4956 1374.76 -309.701 1589.15" stroke="#C61C1E" stroke-width="1.99744" stroke-miterlimit="10"/>
<path d="M6593.87 874.097C6565.13 987.998 6445.46 1077.33 6277.04 1084.16C6162.03 1088.82 6033.6 1047.1 5905.91 1050.09C5758.66 1053.54 5602.99 1032.78 5434.15 1028.82C5125.59 1021.58 4798.89 996.351 4490.44 947.458C4195.86 900.755 3912.37 865.815 3637.67 853.055C3406.95 842.344 3172.67 877.438 2924.07 828.054C2612.66 766.204 2327.31 701.196 2059.57 682.357C1799.15 664.038 1583.87 692.492 1343.99 756.715C1086.75 825.583 795.373 991.69 503.826 1147.77C191.994 1314.72 -96.0578 1397.45 -328.17 1602.51" stroke="#C61C1E" stroke-width="1.99744" stroke-miterlimit="10"/>
<path d="M6623.81 835.97C6590.33 961.648 6464.23 1061.48 6287.85 1075.48C6168.6 1084.94 6036.32 1045.99 5905 1053.88C5754.47 1062.92 5595.09 1047.45 5423.48 1046.15C5106.52 1043.77 4772.18 1017.08 4456.37 962.477C4163.63 911.857 3882.55 868.425 3609.26 847.045C3384.82 829.484 3156.09 856.156 2913.55 805.578C2602.41 740.682 2312.83 681.626 2042.87 673.175C1779.52 664.921 1562.47 707.567 1323.58 784.073C1072.07 864.62 788.072 1037.34 497.578 1189.48C185.465 1352.95 -107.655 1420.19 -346.688 1615.91" stroke="#C61C1E" stroke-width="1.99744" stroke-miterlimit="10"/>
<path d="M6653.77 797.845C6615.56 935.288 6482.93 1045.58 6298.67 1066.82C6175.11 1081.07 6039.05 1044.88 5904.1 1057.68C5750.28 1072.28 5587.23 1062.15 5412.84 1063.49C5087.51 1066.02 4745.45 1037.96 4422.35 977.499C4131.4 923.061 3852.8 871.248 3580.89 841.039C3362.73 816.81 3139.57 834.835 2903.07 783.092C2592.22 715.094 2298.38 662.087 2026.21 663.968C1759.94 665.807 1541.01 722.407 1303.21 811.406C1057.33 903.436 780.817 1082.95 491.375 1231.17C178.982 1391.15 -119.219 1442.9 -365.145 1629.31" stroke="#C61C1E" stroke-width="1.99744" stroke-miterlimit="10"/>
<path d="M6683.7 759.716C6640.74 908.922 6501.52 1029.62 6309.47 1058.14C6181.54 1077.15 6041.73 1043.71 5903.18 1061.47C5746.04 1081.6 5579.33 1076.84 5402.16 1080.83C5068.46 1088.31 4718.64 1058.97 4388.26 992.516C4099.08 934.344 3822.94 874.263 3552.46 835.028C3340.57 804.286 3123 813.438 2892.53 760.615C2581.99 689.43 2283.88 642.586 2009.49 654.785C1740.32 666.745 1519.37 737.073 1282.8 838.748C1042.41 942.079 773.52 1128.55 485.117 1272.86C172.429 1429.34 -130.826 1465.61 -383.672 1642.68" stroke="#C61C1E" stroke-width="1.99744" stroke-miterlimit="10"/>
<path d="M6713.65 721.591C6665.95 882.561 6520.06 1013.63 6320.29 1049.48C6187.94 1073.23 6044.4 1042.56 5902.27 1065.26C5741.79 1090.91 5571.48 1091.57 5391.5 1098.15C5049.45 1110.64 4691.79 1080.13 4354.22 1007.54C4066.74 945.716 3793.06 877.507 3524.09 829.021C3318.41 791.934 3106.5 792.004 2882.04 738.142C2571.83 663.7 2269.46 623.103 1992.82 645.591C1720.76 667.715 1497.6 751.562 1262.43 866.095C1027.37 980.585 766.243 1174.15 478.907 1314.57C165.924 1467.52 -142.385 1488.34 -402.137 1656.09" stroke="#C61C1E" stroke-width="1.99744" stroke-miterlimit="10"/>
<path d="M6743.58 683.465C6691.14 856.198 6538.52 997.613 6331.09 1040.81C6194.26 1069.3 6047.04 1041.37 5901.35 1069.05C5737.52 1100.19 5563.61 1106.32 5380.84 1115.47C5030.46 1133.03 4664.88 1101.43 4320.16 1022.54C4034.35 957.142 3763.1 880.974 3495.68 822.985C3296.17 779.721 3089.98 770.484 2871.51 715.625C2561.66 637.828 2255.01 603.619 1976.12 636.368C1701.18 668.655 1475.63 765.866 1242.04 893.411C1012.15 1018.94 758.951 1219.7 472.681 1356.23C159.39 1505.65 -153.972 1511.04 -420.617 1669.45" stroke="#C61C1E" stroke-width="1.99744" stroke-miterlimit="10"/>
<path d="M6773.53 645.34C6716.34 829.851 6556.94 981.583 6341.88 1032.15C6200.54 1065.37 6049.66 1040.18 5900.43 1072.86C5733.2 1109.48 5555.75 1121.1 5370.16 1132.82C5011.45 1155.48 4637.9 1122.9 4286.09 1037.58C4001.89 968.655 3733.02 884.724 3467.27 816.992C3273.83 767.692 3073.49 748.952 2860.99 693.166C2551.53 611.916 2240.58 584.192 1959.42 627.189C1681.62 669.681 1453.45 780.087 1221.63 920.772C996.72 1057.26 751.637 1265.28 466.434 1397.95C152.834 1543.83 -165.568 1533.78 -439.133 1682.88" stroke="#C61C1E" stroke-width="1.99744" stroke-miterlimit="10"/>
<path d="M6803.48 607.212C6741.56 803.486 6575.31 965.551 6352.7 1023.47C6206.81 1061.44 6052.28 1038.95 5899.54 1076.63C5728.91 1118.73 5547.92 1135.87 5359.52 1150.13C4992.52 1177.93 4610.88 1144.47 4252.05 1052.57C3969.43 980.192 3702.83 888.653 3438.9 810.955C3251.44 755.773 3057.04 727.318 2850.5 670.648C2541.46 585.847 2226.2 564.735 1942.75 617.965C1662.1 670.662 1431.12 794.179 1201.26 948.074C981.133 1095.45 744.346 1310.79 460.225 1439.6C146.315 1581.91 -177.14 1556.45 -457.598 1696.21" stroke="#C61C1E" stroke-width="1.99744" stroke-miterlimit="10"/>
<path d="M6833.41 569.088C6766.75 777.125 6593.61 949.508 6363.5 1014.81C6213 1057.51 6054.86 1037.75 5898.62 1080.44C5724.55 1128 5540.08 1150.67 5348.85 1167.48C4973.57 1200.46 4583.77 1166.23 4217.99 1067.61C3936.9 991.817 3672.45 892.88 3410.5 804.962C3228.93 744.011 3040.6 705.688 2839.99 648.19C2531.41 559.739 2211.82 545.364 1926.07 608.8C1642.59 671.731 1408.56 808.247 1180.88 975.449C965.361 1133.71 737.053 1356.36 454.013 1481.34C139.781 1620.07 -188.7 1579.21 -476.078 1709.64" stroke="#C61C1E" stroke-width="1.99744" stroke-miterlimit="10"/>
<path d="M6863.35 530.961C6791.94 750.762 6611.88 933.462 6374.31 1006.13C6219.19 1053.58 6057.44 1036.51 5897.71 1084.23C5720.2 1137.25 5532.26 1165.48 5338.18 1184.81C4954.63 1223 4556.59 1188.1 4183.92 1082.63C3904.31 1003.48 3641.86 897.343 3382.09 798.953C3206.24 732.345 3024.18 683.985 2829.46 625.715C2521.39 533.502 2197.44 525.978 1909.35 599.605C1623.07 672.783 1385.77 822.256 1160.46 1002.79C949.358 1171.93 729.712 1401.9 447.752 1523.03C133.197 1658.17 -200.309 1601.93 -494.594 1723.04" stroke="#C61C1E" stroke-width="1.99744" stroke-miterlimit="10"/>
<path d="M6893.31 492.836C6817.15 724.401 6630.13 917.432 6385.13 997.475C6225.35 1049.68 6060 1035.28 5896.8 1088.02C5715.83 1146.5 5524.47 1180.3 5327.54 1202.13C4935.74 1245.58 4529.36 1210.1 4149.89 1097.63C3871.71 1015.18 3611.08 902.005 3353.72 792.918C3183.46 720.751 3007.8 662.214 2818.97 603.2C2511.48 507.098 2183.12 506.551 1892.68 590.383C1603.62 673.809 1362.85 836.21 1140.08 1030.11C933.225 1210.16 722.408 1447.38 441.543 1564.69C126.665 1696.21 -211.88 1624.62 -513.058 1736.39" stroke="#C61C1E" stroke-width="1.99744" stroke-miterlimit="10"/>
<path d="M6923.25 454.709C6842.36 698.051 6648.34 901.386 6395.94 988.798C6231.49 1045.75 6062.56 1034.04 5895.9 1091.81C5711.44 1155.75 5516.67 1195.12 5316.87 1219.46C4916.86 1268.19 4502.02 1232.27 4115.83 1112.65C3839.01 1026.92 3580.03 906.903 3325.31 786.909C3160.48 709.253 2991.43 640.413 2808.46 580.725C2501.58 480.608 2168.81 487.192 1876 581.188C1584.17 674.875 1339.73 850.205 1119.71 1057.44C916.933 1248.44 714.89 1492.34 435.33 1606.38C119.877 1733.69 -223.441 1647.33 -531.539 1749.78" stroke="#C61C1E" stroke-width="1.99744" stroke-miterlimit="10"/>
<path d="M6953.2 416.583C6867.57 671.689 6666.52 885.356 6406.75 980.138C6237.6 1041.86 6065.09 1032.81 5894.98 1095.61C5707.02 1165 5508.88 1209.98 5306.2 1236.8C4897.98 1290.83 4474.6 1254.56 4081.77 1127.67C3806.27 1038.69 3548.68 911.985 3296.91 780.901C3137.32 697.813 2975.1 618.57 2797.95 558.237C2491.77 453.965 2154.69 468.354 1859.31 571.994C1564.91 676.49 1316.43 864.229 1099.31 1084.79C900.467 1286.78 707.632 1537.98 429.098 1648.08C113.392 1771.92 -235.036 1670.04 -550.026 1763.17" stroke="#C61C1E" stroke-width="1.99744" stroke-miterlimit="10"/>
<path d="M6983.14 378.455C6892.77 645.324 6684.67 869.337 6417.56 971.461C6243.68 1037.94 6067.49 1031.27 5894.07 1099.39C5702.47 1173.91 5501.16 1225.18 5295.55 1254.12C4879.24 1314.23 4447.12 1276.96 4047.72 1142.68C3773.49 1050.48 3517.05 917.205 3268.53 774.878C3114.01 686.37 2958.83 596.67 2787.45 535.747C2482.05 427.18 2140.33 448.713 1842.63 562.783C1545.43 677.288 1293 878.279 1078.93 1112.12C883.876 1325.18 700.39 1583.61 422.867 1689.77C106.908 1810.12 -246.616 1692.77 -568.513 1776.56" stroke="#C61C1E" stroke-width="1.99744" stroke-miterlimit="10"/>
<path d="M7013.08 340.33C6917.96 618.963 6702.8 853.321 6428.37 962.8C6249.76 1034.06 6070.12 1030.34 5893.16 1103.19C5698.15 1183.49 5493.33 1239.69 5284.88 1271.46C4860.29 1336.19 4419.53 1299.51 4013.66 1157.71C3740.65 1062.33 3485.1 922.597 3240.13 768.871C3090.47 674.959 2942.59 574.744 2776.93 513.274C2472.4 400.243 2125.97 429.09 1825.94 553.604C1525.92 678.117 1269.43 892.402 1058.55 1139.48C867.158 1363.69 693.147 1629.26 416.648 1731.47C100.422 1848.36 -258.183 1715.5 -587 1789.95" stroke="#C61C1E" stroke-width="1.99744" stroke-miterlimit="10"/>
<path d="M5745.28 1228.74C5712.3 874.335 5550.71 533.291 5297.33 283.295C5225.25 212.166 5142.52 146.428 5044.23 122.087C4760.21 51.7725 4489.89 297.136 4272.19 443.029C4009.45 619.117 3750.58 801.929 3474.04 956.146C3318.78 1042.73 3134.09 1121.65 2968.61 1056.71C2801.05 990.946 2720.82 805.916 2637.92 646.14C2541.31 459.959 2416.53 283.857 2247.21 160.031C2077.9 36.2188 1859.36 -30.4739 1654.29 13.6183C1493.69 48.1368 1354.16 145.782 1228.45 251.528C898.148 529.375 629.314 879.894 446.586 1270.93" stroke="#C61C1E" stroke-width="1.99744" stroke-miterlimit="10"/>
<path d="M5752.58 1212.53C5720.66 869.548 5555.95 546.823 5297.89 296.883C5225.83 227.102 5144.05 162.094 5047.12 137.387C4766.51 65.6691 4499.75 299.031 4282.62 439.87C4051.11 590.031 3822.46 747.968 3579.47 888.12C3549.6 905.414 3519.56 922.427 3489.31 939.104C3335.23 1024.07 3152.76 1101.81 2988.95 1040.4C2822.98 978.241 2741.62 800.749 2657.75 647.641C2559.76 469.335 2434.63 300.729 2266.55 182.406C2098.03 64.2513 1882 1.0118 1679.16 44.3038C1541.31 73.6986 1418.83 148.561 1307.16 234.149C1289.86 247.386 1272.94 260.989 1256.08 274.507C921.56 542.724 653.75 866.067 476.918 1244.49" stroke="#C61C1E" stroke-width="1.99744" stroke-miterlimit="10"/>
<path d="M5759.89 1196.32C5729.03 864.776 5561.25 560.342 5298.47 310.486C5226.46 242.024 5145.6 177.788 5050.02 152.703C4772.82 79.5809 4509.64 300.954 4293.05 436.74C4063.85 580.429 3837.22 734.282 3594.06 872.117C3564.42 889.061 3534.6 905.737 3504.59 922.105C3351.69 1005.46 3171.42 1082.02 3009.28 1024.13C2844.9 965.594 2762.4 795.626 2677.56 649.2C2578.2 478.783 2452.73 317.645 2285.85 204.839C2118.12 92.3271 1904.62 32.5548 1703.99 75.0608C1567.38 103.964 1445.7 176.426 1334.57 258.771C1317.34 271.503 1300.54 284.685 1283.67 297.557C944.756 556.172 678.167 852.324 507.217 1218.13" stroke="#C61C1E" stroke-width="1.99744" stroke-miterlimit="10"/>
<path d="M5767.18 1180.12C5737.39 860.001 5566.6 573.844 5299.04 324.087C5227.1 256.931 5147.14 193.467 5052.92 168.016C4779.13 93.4905 4519.57 302.89 4303.49 433.594C4076.63 570.826 3851.64 719.962 3608.66 856.113C3579.19 872.635 3549.65 889.045 3519.87 905.09C3368.15 986.831 3190.1 1062.21 3029.64 1007.86C2866.86 952.93 2783.5 790.332 2697.39 650.756C2597 488.004 2471.15 334.123 2305.2 227.269C2138.53 119.965 1927.26 64.0958 1728.88 105.816C1593.5 134.228 1472.64 204.304 1362.01 283.392C1344.84 295.618 1328.18 308.378 1311.3 320.605C967.831 569.619 702.618 838.566 537.578 1191.77" stroke="#C61C1E" stroke-width="1.99744" stroke-miterlimit="10"/>
<path d="M5774.49 1163.9C5745.75 855.229 5571.99 587.321 5299.61 337.676C5227.75 271.811 5148.68 209.133 5055.82 183.318C4785.44 107.374 4529.55 304.799 4313.93 430.436C4089.45 561.225 3866.28 706.051 3623.25 840.096C3593.98 856.24 3564.67 872.341 3535.13 888.063C3384.59 968.204 3208.75 1042.39 3049.95 991.562C2888.76 940.241 2804.35 785.111 2717.19 652.273C2615.52 497.325 2489.32 350.857 2324.5 249.646C2158.7 147.845 1949.88 95.5826 1753.72 136.502C1619.57 164.423 1499.51 232.113 1389.41 307.944C1372.32 319.665 1355.76 331.99 1338.89 343.599C990.674 583.011 727.02 824.767 567.875 1165.35" stroke="#C61C1E" stroke-width="1.99744" stroke-miterlimit="10"/>
<path d="M5781.78 1147.69C5754.12 850.443 5577.41 600.77 5300.18 351.265C5228.42 286.692 5150.22 224.814 5058.72 198.62C4791.75 121.272 4539.57 306.737 4324.37 427.293C4102.32 551.68 3880.96 692.169 3637.85 824.08C3608.79 839.844 3579.72 855.637 3550.42 871.036C3401.06 949.562 3227.43 1022.57 3070.3 975.279C2910.7 927.565 2825.24 779.904 2737.02 653.818C2634.07 506.661 2507.49 367.619 2343.83 272.065C2178.89 175.766 1972.51 127.112 1778.58 167.246C1645.67 194.661 1526.4 259.964 1416.83 332.553C1399.78 343.769 1383.35 355.673 1366.49 366.636C1013.34 596.418 751.428 810.997 598.18 1138.96" stroke="#C61C1E" stroke-width="1.99744" stroke-miterlimit="10"/>
<path d="M5789.08 1131.48C5762.48 845.656 5582.88 614.19 5300.74 364.868C5229.09 301.558 5151.75 240.494 5061.61 213.935C4798.05 135.184 4549.6 308.703 4334.8 424.148C4115.22 542.149 3895.62 678.286 3652.43 808.077C3623.58 823.477 3594.75 838.932 3565.69 854.037C3417.51 930.949 3246.1 1002.78 3090.63 959.01C2932.62 914.918 2846.09 774.71 2756.83 655.376C2652.59 516.011 2525.64 384.408 2363.14 294.497C2199.04 203.702 1995.13 158.641 1803.42 198.002C1671.76 224.927 1553.3 287.843 1444.24 357.175C1427.27 367.886 1410.93 379.34 1394.1 389.686C1035.86 609.81 775.867 797.255 628.5 1112.6" stroke="#C61C1E" stroke-width="1.99744" stroke-miterlimit="10"/>
<path d="M5796.38 1115.26C5770.85 840.882 5588.41 627.566 5301.32 378.455C5229.81 316.408 5153.23 256.355 5064.52 229.235C4804.2 149.627 4559.71 310.667 4345.26 420.989C4128.21 532.644 3910.33 664.401 3667.04 792.059C3638.41 807.079 3609.81 822.226 3580.99 837.008C3433.99 912.319 3264.78 982.957 3111 942.711C2954.58 902.226 2866.98 769.473 2776.69 656.891C2671.16 525.316 2543.84 401.139 2382.5 316.886C2219.23 231.607 2017.8 190.14 1828.32 228.701C1697.9 255.134 1580.38 315.889 1471.7 381.725C1454.8 391.959 1438.54 402.95 1421.74 412.678C1058.22 623.088 800.321 783.44 658.85 1086.18" stroke="#C61C1E" stroke-width="1.99744" stroke-miterlimit="10"/>
<path d="M5803.68 1099.05C5779.21 836.095 5593.97 640.916 5301.88 392.043C5230.51 331.232 5154.76 272.049 5067.4 244.522C4810.47 163.567 4569.83 312.646 4355.68 417.83C4141.19 523.182 3925.01 650.546 3681.62 776.028C3653.2 790.683 3624.84 805.507 3596.25 819.966C3450.43 893.663 3283.43 963.122 3131.31 926.413C2976.49 889.536 2887.8 764.237 2796.48 658.421C2689.64 534.623 2561.96 417.914 2401.8 339.276C2239.36 259.514 2040.4 221.64 1853.15 259.416C1723.97 285.357 1607.26 343.74 1499.1 406.305C1482.27 416.047 1466.08 426.576 1449.33 435.686C1080.34 636.298 824.73 769.655 689.154 1059.77" stroke="#C61C1E" stroke-width="1.99744" stroke-miterlimit="10"/>
<path d="M5810.98 1082.83C5787.57 831.323 5599.59 654.224 5302.46 405.632C5231.24 346.056 5156.3 287.744 5070.32 259.823C4816.78 177.52 4580.01 314.654 4366.13 414.672C4154.25 513.75 3939.73 636.677 3696.23 760.012C3668.01 774.302 3639.9 788.803 3611.54 802.939C3466.91 875.022 3302.11 943.301 3151.67 910.116C2998.43 876.861 2908.66 759.001 2816.32 659.951C2708.16 543.931 2580.1 434.676 2421.15 361.68C2259.51 287.449 2063.06 253.155 1878.04 290.13C1750.08 315.566 1634.19 371.605 1526.55 430.886C1509.77 440.122 1493.67 450.187 1476.97 458.694C1102.34 649.409 849.175 755.856 719.51 1033.37" stroke="#C61C1E" stroke-width="1.99744" stroke-miterlimit="10"/>
<path d="M5818.28 1066.64C5795.93 826.551 5605.23 667.519 5303.01 419.249C5231.97 360.895 5157.82 303.453 5073.2 275.153C4823.05 191.489 4590.22 316.732 4376.56 411.543C4167.33 504.401 3954.42 622.865 3710.81 744.01C3682.82 757.935 3654.91 772.113 3626.81 785.94C3483.36 856.423 3320.77 923.523 3171.99 893.861C3020.36 864.214 2929.48 753.794 2836.13 661.51C2726.63 553.266 2598.2 451.494 2440.45 384.113C2279.6 315.413 2085.66 284.698 1902.86 320.887C1776.14 345.832 1661.06 399.498 1553.93 455.508C1537.22 464.24 1521.18 473.842 1504.53 481.759C1124.1 662.479 873.567 742.129 749.783 1007.02" stroke="#C61C1E" stroke-width="1.99744" stroke-miterlimit="10"/>
<path d="M5825.58 1050.42C5804.29 821.762 5610.93 680.754 5303.59 432.835C5232.72 375.674 5159.35 319.145 5076.11 290.452C4829.35 205.426 4600.48 318.808 4387 408.382C4180.46 495.05 3969.14 609.036 3725.41 727.991C3697.63 741.551 3669.96 755.406 3642.09 768.91C3499.82 837.779 3339.44 903.699 3192.34 877.561C3042.29 851.522 2950.31 748.556 2855.96 663.038C2745.12 562.557 2616.31 468.28 2459.79 406.515C2299.73 343.345 2108.31 316.197 1927.75 351.614C1802.27 376.067 1688 427.361 1581.38 480.1C1564.74 488.326 1548.76 497.465 1532.18 504.778C1145.77 675.349 898.033 728.356 780.145 980.626" stroke="#C61C1E" stroke-width="1.99744" stroke-miterlimit="10"/>
<path d="M5832.88 1034.21C5812.66 816.992 5616.67 693.939 5304.15 446.427C5233.49 390.459 5160.88 334.828 5079 305.756C4835.63 219.355 4610.78 320.931 4397.43 405.241C4193.63 485.789 3983.86 595.24 3739.99 711.991C3712.42 725.186 3684.99 738.719 3657.35 751.9C3516.26 819.154 3358.14 883.587 3212.66 861.295C3064.25 838.554 2971.08 743.351 2875.77 664.6C2763.55 571.896 2634.39 485.115 2479.09 428.936C2319.81 371.326 2130.92 347.729 1952.58 382.346C1828.34 406.308 1714.87 455.229 1608.77 504.697C1592.2 512.432 1576.26 521.065 1559.75 527.803C1167.22 688.071 922.418 714.574 810.426 954.238" stroke="#C61C1E" stroke-width="1.99744" stroke-miterlimit="10"/>
<path d="M5840.18 1018C5821.04 812.204 5622.46 707.076 5304.73 460.014C5234.28 405.225 5162.42 350.506 5081.91 321.055C4841.94 233.278 4621.13 323.091 4407.9 402.08C4206.88 476.55 3998.62 581.425 3754.61 695.958C3727.27 708.789 3700.06 721.998 3672.66 734.856C3532.75 800.51 3376.83 863.736 3233.03 844.982C3086.21 825.834 2991.89 738.099 2895.62 666.1C2782.03 581.172 2652.51 501.888 2498.46 451.31C2339.93 399.259 2153.59 379.213 1977.48 413.044C1854.47 436.501 1741.8 483.064 1636.24 529.261C1619.72 536.491 1603.82 544.633 1587.4 550.809C1188.59 700.591 946.878 700.787 840.781 927.832" stroke="#C61C1E" stroke-width="1.99744" stroke-miterlimit="10"/>
<path d="M5847.48 1001.78C5829.38 807.43 5628.29 720.158 5305.29 473.615C5235.04 420.005 5163.94 366.199 5084.8 336.369C4848.22 247.202 4631.5 325.307 4418.32 398.935C4220.11 467.382 4013.35 567.653 3769.19 679.954C3742.06 692.433 3715.09 705.306 3687.93 717.856C3549.19 781.895 3395.5 843.928 3253.35 828.711C3108.12 813.171 3012.65 732.89 2915.42 667.657C2800.43 590.506 2670.55 518.746 2517.75 473.741C2359.97 427.263 2176.2 410.754 2002.3 443.799C1880.53 466.765 1768.66 510.955 1663.62 553.882C1647.17 560.606 1631.32 568.257 1614.98 573.858C1209.77 712.942 971.283 687.029 871.068 901.468" stroke="#C61C1E" stroke-width="1.99744" stroke-miterlimit="10"/>
<path d="M5854.78 985.566C5837.75 802.642 5634.16 733.198 5305.86 487.203C5235.86 434.744 5165.49 381.864 5087.71 351.669C4854.51 261.113 4641.93 327.581 4428.77 395.79C4233.42 458.285 4028.1 553.895 3783.79 663.95C3756.88 676.065 3730.13 688.614 3703.22 700.841C3565.66 763.267 3414.17 824.106 3273.71 812.44C3130.06 800.494 3033.43 727.695 2935.26 669.215C2818.85 599.855 2688.63 535.618 2537.1 496.173C2380.06 455.295 2198.85 442.296 2027.2 474.541C1906.65 497.015 1795.59 538.833 1691.08 578.475C1674.68 584.694 1658.86 591.825 1642.62 596.879C1230.9 725.056 995.738 673.257 901.434 875.076" stroke="#C61C1E" stroke-width="1.99744" stroke-miterlimit="10"/>
<path d="M5862.08 969.355C5846.12 797.871 5640.07 746.171 5306.43 500.793C5236.65 449.471 5167.01 397.546 5090.6 366.972C4860.8 275.026 4652.37 329.927 4439.2 392.633C4246.74 449.247 4042.86 540.14 3798.38 647.921C3771.69 659.685 3745.16 671.883 3718.48 683.801C3582.1 744.626 3432.81 804.272 3294.02 796.13C3151.96 787.792 3054.13 722.475 2955.06 670.718C2837.21 609.163 2706.66 552.451 2556.4 518.536C2400.09 483.26 2221.46 473.756 2052.03 505.229C1932.74 527.198 1822.46 566.643 1718.47 603.029C1702.13 608.742 1686.35 615.354 1670.19 619.874C1251.86 736.878 1020.12 659.446 931.715 848.659" stroke="#C61C1E" stroke-width="1.99744" stroke-miterlimit="10"/>
<path d="M5869.37 953.141C5854.48 793.084 5646.03 759.099 5307 514.381C5237.47 464.197 5168.55 413.212 5093.5 382.259C4867.12 288.895 4662.87 332.313 4449.64 389.461C4260.1 440.263 4057.64 526.384 3812.97 631.89C3786.51 643.303 3760.21 655.165 3733.76 666.76C3598.56 725.971 3451.46 784.437 3314.37 779.833C3173.9 775.116 3074.88 717.281 2974.9 672.249C2855.59 618.513 2724.72 569.325 2575.74 540.941C2420.15 511.293 2244.1 505.271 2076.9 535.957C1958.84 557.435 1849.36 594.494 1745.91 627.623C1729.62 632.831 1713.87 638.909 1697.83 642.896C1272.8 748.473 1044.59 645.675 962.059 822.269" stroke="#C61C1E" stroke-width="1.99744" stroke-miterlimit="10"/>
<path d="M5876.68 936.944C5862.85 788.313 5652.04 771.959 5307.57 527.999C5238.29 478.938 5170.08 428.908 5096.4 397.59C4873.41 302.822 4673.38 334.828 4460.07 386.346C4273.49 431.406 4072.41 512.712 3827.57 615.903C3801.32 626.965 3775.25 638.49 3749.04 649.776C3615.02 707.372 3470.13 764.66 3334.71 763.579C3195.82 762.47 3095.57 712.145 2994.71 673.822C2873.93 627.933 2742.77 586.27 2595.06 563.388C2440.19 539.398 2266.74 536.829 2101.77 566.715C1984.95 587.701 1876.25 622.374 1773.34 652.246C1757.13 656.949 1741.39 662.48 1725.45 665.947C1293.66 759.817 1069.02 631.92 992.387 795.908" stroke="#C61C1E" stroke-width="1.99744" stroke-miterlimit="10"/>
<path d="M5883.98 920.73C5871.2 783.54 5658.07 784.761 5308.14 541.587C5239.12 493.621 5171.62 444.573 5099.3 412.89C4879.72 316.691 4683.93 337.396 4470.51 383.187C4286.89 422.576 4087.19 499.011 3842.16 599.886C3816.13 610.596 3790.29 621.784 3764.32 632.748C3631.48 688.744 3488.79 744.838 3355.06 747.281C3217.74 749.793 3116.29 706.979 3014.54 675.338C2892.29 637.324 2760.8 603.17 2614.39 585.778C2460.23 567.459 2289.36 568.329 2126.62 597.429C2011.04 617.924 1903.14 650.196 1800.75 676.826C1784.6 681.023 1768.9 686.006 1753.04 688.968C1314.48 770.836 1093.43 618.149 1022.69 769.516" stroke="#C61C1E" stroke-width="1.99744" stroke-miterlimit="10"/>
<path d="M5891.28 904.515C5879.57 778.752 5664.16 797.478 5308.7 555.175C5239.95 508.303 5173.16 460.238 5102.18 428.19C4886.02 330.573 4694.46 340.062 4480.95 380.027C4300.31 413.83 4101.99 485.323 3856.75 583.868C3830.95 594.227 3805.32 605.078 3779.6 615.719C3647.94 670.101 3507.45 725.03 3375.39 730.996C3239.66 737.116 3136.99 701.868 3034.36 676.881C2910.61 646.756 2778.83 620.127 2633.71 608.181C2480.26 595.547 2311.99 599.842 2151.47 628.156C2037.12 648.146 1930.02 678.032 1828.17 701.419C1812.07 705.11 1796.41 709.532 1780.66 711.989C1335.3 781.531 1117.86 604.362 1053.02 743.124" stroke="#C61C1E" stroke-width="1.99744" stroke-miterlimit="10"/>
<path d="M5898.57 888.301C5887.93 773.979 5670.28 810.14 5309.27 568.763C5240.8 522.986 5174.7 475.904 5105.08 443.491C4892.33 344.427 4705.03 342.827 4491.39 376.868C4313.74 405.168 4116.78 471.664 3871.34 567.836C3845.77 577.859 3820.36 588.359 3794.87 598.677C3664.39 651.444 3526.1 705.208 3395.72 714.684C3261.58 724.44 3157.69 696.744 3054.17 678.396C2928.96 656.203 2796.86 637.07 2653.03 630.57C2500.29 623.664 2334.62 631.342 2176.33 658.856C2063.21 678.354 1956.91 705.84 1855.58 725.984C1839.55 729.171 1823.9 733.017 1808.25 734.982C1356.11 791.891 1142.28 590.563 1083.33 716.705" stroke="#C61C1E" stroke-width="1.99744" stroke-miterlimit="10"/>
<path d="M5905.87 872.087C5896.3 769.192 5676.44 822.717 5309.84 582.365C5241.64 537.655 5176.23 491.57 5107.98 458.806C4898.63 358.296 4715.6 345.719 4501.82 373.738C4327.16 396.619 4131.57 458.062 3885.93 551.847C3860.58 561.519 3835.39 571.682 3810.14 581.677C3680.84 632.844 3544.76 685.429 3416.06 698.428C3283.51 711.806 3178.39 691.69 3074.01 679.954C2947.3 665.72 2814.92 654.097 2672.36 653.002C2520.34 651.837 2357.26 662.871 2201.2 689.612C2089.32 708.619 1983.8 733.691 1883.03 750.606C1867.05 753.287 1851.43 756.558 1835.89 758.046C1377.01 801.984 1166.73 576.834 1113.68 690.356" stroke="#C61C1E" stroke-width="1.99744" stroke-miterlimit="10"/>
<path d="M5913.17 855.874C5904.67 764.419 5682.65 835.21 5310.41 595.953C5242.5 552.31 5177.79 507.221 5110.88 474.106C4904.96 372.137 4726.17 348.708 4512.26 370.579C4340.6 388.126 4146.4 444.445 3900.53 535.83C3875.4 545.165 3850.44 554.977 3825.43 564.663C3697.31 614.216 3563.43 665.65 3436.4 682.144C3305.43 699.158 3199.1 686.636 3093.83 681.498C2965.65 675.238 2832.96 671.11 2691.69 675.42C2540.4 680.024 2379.9 694.399 2226.07 720.354C2115.42 738.87 2010.69 761.527 1910.44 775.213C1894.53 777.389 1878.94 780.07 1863.49 781.081C1397.94 811.725 1191.14 563.063 1143.99 663.979" stroke="#C61C1E" stroke-width="1.99744" stroke-miterlimit="10"/>
<path d="M5920.47 839.663C5913.02 759.634 5688.89 847.636 5310.97 609.544C5243.35 566.94 5179.31 522.876 5113.77 489.41C4911.29 385.981 4736.72 351.827 4522.69 367.423C4354 379.72 4161.21 430.845 3915.11 519.801C3890.21 528.8 3865.48 538.261 3840.7 547.624C3713.77 595.562 3582.1 645.831 3456.74 665.835C3327.36 686.484 3219.83 681.585 3113.65 683.017C2984.03 684.758 2851 688.141 2711.01 697.799C2560.44 708.2 2402.52 725.888 2250.91 751.043C2141.5 769.053 2037.57 789.31 1937.86 799.754C1921.99 801.41 1906.44 803.502 1891.08 804.049C1418.94 821.077 1215.55 549.238 1174.29 637.535" stroke="#C61C1E" stroke-width="1.99744" stroke-miterlimit="10"/>
<path d="M5927.77 823.461C5921.39 754.859 5695.18 859.987 5311.55 623.144C5244.23 581.579 5180.87 538.54 5116.68 504.709C4917.63 399.806 4747.25 355.068 4533.13 364.277C4367.39 371.408 4176.03 417.297 3929.71 503.797C3905.04 512.458 3880.53 521.554 3855.97 530.608C3730.23 576.947 3600.8 626.289 3477.07 649.563C3349.33 674.087 3240.55 676.586 3133.46 684.559C3002.39 694.329 2869.06 705.194 2730.32 720.215C2580.5 736.428 2425.15 757.414 2275.76 781.784C2167.58 799.303 2064.44 817.13 1965.26 824.36C1949.47 825.511 1933.94 826.999 1918.68 827.097C1440.07 830.171 1239.98 535.48 1204.6 611.17" stroke="#C61C1E" stroke-width="1.99744" stroke-miterlimit="10"/>
<path d="M5935.07 807.248C5929.75 750.087 5701.51 872.242 5312.11 636.747C5245.08 596.206 5182.41 554.206 5119.57 520.024C4923.97 413.647 4757.73 358.451 4543.56 361.132C4380.74 363.168 4190.85 403.765 3944.3 487.78C3919.86 496.104 3895.54 504.849 3871.24 513.581C3746.67 558.305 3619.46 606.468 3497.41 633.266C3371.25 661.411 3261.31 671.56 3153.28 686.089C3020.8 703.903 2887.14 722.278 2749.65 742.619C2600.59 764.672 2447.77 788.929 2300.63 812.512C2193.71 829.54 2091.34 844.939 1992.7 848.954C1976.96 849.599 1961.49 850.47 1946.31 850.119C1461.36 838.917 1264.41 521.709 1234.94 584.78" stroke="#C61C1E" stroke-width="1.99744" stroke-miterlimit="10"/>
<path d="M5942.37 791.034C5938.12 745.3 5707.87 884.399 5312.68 650.335C5245.96 610.819 5183.96 569.843 5122.47 535.325C4930.31 427.446 4768.19 361.946 4554.02 357.974C4394.09 355.012 4205.72 390.246 3958.91 471.763C3934.69 479.764 3910.61 488.144 3886.54 496.567C3763.15 539.677 3638.15 586.66 3517.76 616.996C3393.21 648.749 3282.1 666.577 3173.12 687.647C3039.25 713.518 2905.26 739.39 2769 765.037C2620.72 792.957 2470.43 820.443 2325.5 843.24C2219.82 859.777 2118.25 872.747 2020.14 873.547C2004.46 873.674 1989.05 873.94 1973.93 873.14C1482.81 847.367 1288.85 507.923 1265.29 558.389" stroke="#C61C1E" stroke-width="1.99744" stroke-miterlimit="10"/>
<path d="M5949.68 774.822C5946.49 740.528 5714.28 896.472 5313.25 663.924C5246.84 625.405 5185.58 585.384 5125.37 550.627C4936.87 440.923 4778.57 365.583 4564.46 354.83C4407.35 346.927 4220.55 376.771 3973.5 455.76C3949.51 463.425 3925.65 471.454 3901.82 479.554C3779.61 521.063 3656.83 566.854 3538.11 600.713C3415.14 636.074 3302.9 661.594 3192.95 689.178C3057.71 723.107 2923.39 756.502 2788.33 787.441C2640.84 821.244 2493.06 851.958 2350.37 873.969C2245.92 890 2145.16 900.374 2047.57 898.142C2031.96 897.735 2016.59 897.398 2001.55 896.177C1504.44 855.538 1313.29 494.167 1295.61 532.013" stroke="#C61C1E" stroke-width="1.99744" stroke-miterlimit="10"/>
<path d="M5956.97 758.608C5954.83 735.74 5720.71 908.445 5313.82 677.512C5247.7 639.99 5187.12 601.049 5128.27 565.927C4943.18 454.805 4788.9 369.358 4574.89 351.671C4420.55 338.911 4235.39 363.322 3988.09 439.729C3964.33 447.071 3940.69 454.735 3917.09 462.512C3796.06 502.407 3675.47 547.019 3558.43 584.401C3437.05 623.369 3323.69 656.582 3212.75 690.694C3076.17 732.694 2941.5 773.6 2807.63 809.831C2660.96 849.529 2515.67 883.458 2375.2 904.683C2271.98 920.223 2172.02 928.21 2074.96 922.721C2059.41 921.809 2044.11 920.854 2029.13 919.184C1526.2 863.398 1337.69 480.368 1325.9 505.608" stroke="#C61C1E" stroke-width="1.99744" stroke-miterlimit="10"/>
<path d="M5964.28 742.395C5963.21 730.968 5727.2 920.322 5314.41 691.116C5248.6 654.576 5188.67 616.744 5131.19 581.243C4949.51 468.717 4799.14 373.29 4585.35 348.527C4433.7 330.966 4250.36 350.226 4002.71 423.727C3979.18 430.774 3955.75 438.045 3932.39 445.499C3812.54 483.78 3694.17 527.212 3578.8 568.132C3459.01 610.722 3344.61 651.754 3232.6 692.252C3094.75 742.493 2959.77 791.007 2826.98 832.264C2681.25 878.125 2538.34 915.001 2400.1 935.426C2298.12 950.475 2198.97 956.062 2102.42 947.33C2086.92 945.912 2071.69 944.312 2056.77 942.221C1548.25 871.022 1362.14 466.612 1356.25 479.218" stroke="#C61C1E" stroke-width="1.99744" stroke-miterlimit="10"/>
<path d="M5971.59 726.182C5971.59 726.182 5733.71 932.085 5314.98 704.704C4896.25 477.322 4731.88 202.41 4017.3 407.71C3302.71 613.01 2678.36 1040.41 2129.84 971.91C1581.32 903.406 1386.58 452.827 1386.58 452.827" stroke="#C61C1E" stroke-width="1.99744" stroke-miterlimit="10"/>
<path d="M6289.74 582.815C6246.94 467.833 6121.62 399.54 5999.24 390.64C5876.86 381.74 5756.46 421.509 5642.34 466.555C5406.29 559.695 5180.02 677.695 4939.21 757.668C4698.39 837.64 4435.7 878.209 4190.9 811.418C4040.39 770.358 3902.12 690.301 3749.95 655.923C3444.83 586.97 3132.97 708.592 2822.23 744.557C2587.13 771.761 2498.84 658.731 2367.88 491.753C2240.75 329.661 2052.69 216.545 1849.92 180.202C1647.14 143.859 1431.51 184.638 1256 292.503" stroke="#C61C1E" stroke-width="1.99744" stroke-miterlimit="10"/>
<path d="M6294.18 566.63C6246.59 458.807 6118.58 394.669 5994.23 389.713C5869.69 384.884 5746.86 426.955 5629.61 472.914C5392.43 566.11 5163.64 681.275 4921.89 755.436C4681.03 829.933 4420.38 863.132 4175.42 796.341C4025.43 755.436 3887.03 678.018 3735.3 645.128C3431.23 579.165 3120.8 698.92 2811.31 734.576C2577.59 761.514 2485.77 652.119 2352.94 489.072C2224.99 331.022 2038.47 218.89 1837.48 187.108C1636.91 155.018 1425.02 198.942 1251.12 306.765" stroke="#C61C1E" stroke-width="1.99744" stroke-miterlimit="10"/>
<path d="M6298.62 550.43C6246.26 449.78 6115.56 389.769 5989.24 388.759C5862.53 388.001 5737.28 432.36 5616.9 479.259C5378.57 572.511 5147.13 684.279 4904.6 753.175C4663.55 821.651 4405.07 848.014 4159.97 781.223C4010.49 740.485 3871.98 665.679 3720.67 634.291C3417.66 571.318 3108.67 689.206 2800.42 724.567C2568.07 751.238 2472.24 645.9 2338.03 486.348C2208.8 332.72 2024.28 221.192 1825.05 193.959C1626.67 166.122 1418.51 213.19 1246.24 320.971" stroke="#C61C1E" stroke-width="1.99744" stroke-miterlimit="10"/>
<path d="M6303.05 534.23C6245.92 440.739 6112.52 384.883 5984.23 387.817C5855.35 391.13 5727.68 437.791 5604.16 485.603C5364.69 578.911 5130.69 687.577 4887.27 750.914C4646.14 813.663 4389.74 832.908 4144.49 766.103C3995.52 725.52 3856.9 653.353 3706.01 623.467C3404.06 563.484 3096.49 679.491 2789.49 714.571C2558.52 740.976 2458.96 639.484 2323.08 483.652C2192.81 334.264 2009.97 224.04 1812.59 200.85C1616.35 177.786 1411.97 227.494 1241.32 335.232" stroke="#C61C1E" stroke-width="1.99744" stroke-miterlimit="10"/>
<path d="M6307.51 518.03C6245.61 431.713 6109.5 379.984 5979.24 386.876C5848.2 394.26 5718.1 443.209 5591.46 491.962C5350.84 585.326 5114.29 690.917 4869.99 748.668C4628.77 805.703 4374.45 817.803 4129.04 750.998C3980.58 710.57 3841.85 641.028 3691.39 612.644C3390.5 555.651 3084.36 669.791 2778.61 704.562C2549.01 730.7 2445.74 633.04 2308.18 480.943C2176.92 335.78 1995.79 226.525 1800.17 207.714C1606.13 189.058 1405.49 241.756 1236.46 349.452" stroke="#C61C1E" stroke-width="1.99744" stroke-miterlimit="10"/>
<path d="M6311.95 501.848C6245.27 422.69 6106.47 375.116 5974.23 385.954C5841.02 397.408 5708.5 448.66 5578.71 498.339C5336.94 591.759 5097.87 694.276 4852.66 746.44C4611.38 797.775 4359.09 802.73 4113.55 735.911C3965.6 695.651 3826.74 628.734 3676.72 601.838C3376.89 547.835 3072.18 660.094 2767.68 694.585C2539.45 720.456 2432.47 626.643 2293.23 478.265C2160.97 337.327 1981.55 229.027 1787.72 214.624C1595.88 200.376 1398.97 256.063 1231.57 363.732" stroke="#C61C1E" stroke-width="1.99744" stroke-miterlimit="10"/>
<path d="M6316.39 485.647C6244.94 413.662 6103.4 369.921 5969.24 385.011C5833.82 400.242 5698.92 454.09 5566 504.682C5323.09 598.158 5081.49 697.615 4835.37 744.192C4594.03 789.856 4343.8 787.624 4098.11 720.819C3950.67 680.714 3811.7 616.421 3662.1 591.027C3363.33 540.015 3060.04 650.407 2756.79 684.588C2529.94 710.193 2419.28 620.212 2278.33 475.568C2145.1 338.856 1967.38 231.496 1775.31 221.515C1585.67 211.661 1392.49 270.366 1226.7 377.978" stroke="#C61C1E" stroke-width="1.99744" stroke-miterlimit="10"/>
<path d="M6320.83 469.446C6244.61 404.62 6100.36 365.006 5964.23 384.069C5826.64 403.343 5689.32 459.507 5553.27 511.04C5309.21 604.572 5065.1 700.997 4818.05 741.944C4576.69 781.938 4328.46 772.533 4082.63 705.713C3935.71 665.762 3796.61 604.109 3647.45 580.203C3349.73 532.18 3047.88 640.705 2745.87 674.592C2520.4 699.93 2406.09 613.781 2263.38 472.857C2129.21 340.356 1953.17 233.951 1762.84 228.378C1575.43 222.903 1385.95 284.627 1221.79 392.211" stroke="#C61C1E" stroke-width="1.99744" stroke-miterlimit="10"/>
<path d="M6325.28 453.248C6244.28 395.596 6097.31 360.095 5959.24 383.131C5819.45 406.461 5679.63 464.647 5540.55 517.386C5295.16 610.456 5048.74 704.382 4800.75 739.686C4559.36 774.05 4313.16 757.43 4067.17 690.597C3920.76 650.8 3781.55 591.772 3632.82 569.382C3336.15 524.335 3035.73 630.993 2734.96 664.585C2510.86 689.67 2392.91 607.339 2248.46 470.15C2113.36 341.846 1938.99 236.381 1750.42 235.258C1565.22 234.149 1379.46 298.905 1216.9 406.447" stroke="#C61C1E" stroke-width="1.99744" stroke-miterlimit="10"/>
<path d="M6329.73 437.062C6243.95 386.569 6094.28 355.195 5954.24 382.203C5812.27 409.591 5670.03 470.065 5527.83 523.759C5281.29 616.856 5032.4 707.82 4783.44 737.453C4542.04 766.188 4297.83 742.338 4051.7 675.505C3905.81 635.877 3766.49 579.474 3618.17 558.572C3322.56 516.515 3023.56 621.306 2724.04 654.603C2501.32 679.422 2379.74 600.909 2233.52 467.468C2097.51 343.361 1924.79 238.837 1737.97 242.15C1555 245.393 1372.93 313.208 1212 420.694" stroke="#C61C1E" stroke-width="1.99744" stroke-miterlimit="10"/>
<path d="M6334.17 420.864C6243.61 377.543 6091.23 350.282 5949.24 381.263C5805.11 412.708 5660.45 475.47 5515.12 530.118C5267.42 623.244 5016.06 711.26 4766.15 735.208C4524.75 758.356 4282.53 727.249 4036.25 660.416C3890.86 620.942 3751.43 567.164 3603.54 547.764C3308.99 508.697 3011.42 611.607 2713.15 644.623C2491.8 669.175 2366.63 594.467 2218.6 464.787C2081.71 344.85 1910.62 241.28 1725.53 249.057C1544.8 256.637 1366.44 327.513 1207.12 434.971" stroke="#C61C1E" stroke-width="1.99744" stroke-miterlimit="10"/>
<path d="M6338.62 404.664C6243.29 368.503 6088.2 345.383 5944.25 380.322C5797.92 415.824 5650.85 480.888 5502.4 536.463C5253.55 629.631 4999.72 714.699 4748.84 732.962C4507.44 750.523 4267.21 712.144 4020.78 645.311C3875.91 605.991 3736.35 554.838 3588.9 536.94C3295.4 500.864 2999.26 601.906 2702.24 634.614C2482.27 658.899 2353.52 587.981 2203.68 462.078C2065.92 346.309 1896.45 243.68 1713.11 255.921C1534.61 267.839 1359.94 341.775 1202.25 449.191" stroke="#C61C1E" stroke-width="1.99744" stroke-miterlimit="10"/>
<path d="M6343.06 388.462C6242.95 359.475 6085.16 340.496 5939.24 379.38C5790.73 418.952 5641.24 486.305 5489.67 542.82C5239.67 636.03 4983.39 718.178 4731.52 730.714C4490.12 742.73 4251.87 697.052 4005.3 630.204C3860.94 591.053 3721.26 542.525 3574.25 526.129C3281.8 493.043 2987.09 592.204 2691.32 624.631C2472.73 648.65 2340.42 581.508 2188.75 459.38C2050.12 347.767 1882.28 246.079 1700.66 262.812C1524.4 279.039 1353.42 356.078 1197.35 463.451" stroke="#C61C1E" stroke-width="1.99744" stroke-miterlimit="10"/>
<path d="M6347.5 372.277C6242.62 350.463 6082.12 335.611 5934.23 378.454C5783.55 422.097 5631.65 491.737 5476.94 549.179C5225.81 642.445 4967.05 721.688 4714.22 728.468C4472.83 734.939 4236.56 681.947 3989.85 615.1C3846.01 576.104 3706.21 530.201 3559.61 515.307C3268.23 485.21 2974.95 582.505 2680.42 614.623C2463.2 638.374 2327.35 574.995 2173.83 456.672C2034.38 349.199 1868.12 248.451 1688.23 269.676C1514.22 290.213 1346.92 370.34 1192.48 477.672" stroke="#C61C1E" stroke-width="1.99744" stroke-miterlimit="10"/>
<path d="M6351.94 356.078C6242.29 341.422 6079.07 330.726 5929.23 377.513C5776.38 425.241 5622.06 497.156 5464.22 555.538C5211.94 648.86 4950.74 725.211 4696.91 726.222C4455.54 727.19 4221.24 666.857 3974.38 599.995C3831.05 561.153 3691.13 517.889 3544.97 504.484C3254.65 477.377 2962.79 572.805 2669.52 604.628C2453.67 628.113 2314.31 568.481 2158.9 453.976C2018.63 350.631 1853.96 250.824 1675.78 276.569C1504.01 301.387 1340.39 384.63 1187.58 491.92" stroke="#C61C1E" stroke-width="1.99744" stroke-miterlimit="10"/>
<path d="M6356.39 339.88C6241.97 332.398 6076.04 325.843 5924.24 376.561C5769.21 428.36 5612.48 502.562 5451.51 561.885C5198.09 655.278 4934.42 728.751 4679.62 723.978C4438.26 719.458 4205.94 651.768 3958.93 584.907C3816.11 546.233 3676.09 505.581 3530.35 493.677C3241.08 469.56 2950.65 563.107 2658.63 594.635C2444.16 617.853 2301.28 561.956 2143.99 451.283C2002.94 352.037 1839.81 253.184 1663.37 283.463C1493.84 312.549 1333.92 398.937 1182.72 506.184" stroke="#C61C1E" stroke-width="1.99744" stroke-miterlimit="10"/>
<path d="M6360.82 323.679C6241.63 323.356 6073 320.956 5919.23 375.618C5762.02 431.502 5602.88 507.993 5438.78 568.229C5184.22 661.677 4918.09 732.3 4662.3 721.716C4420.94 711.721 4190.61 636.648 3943.45 569.787C3801.13 531.268 3660.99 493.254 3515.69 482.852C3227.48 461.711 2938.48 553.405 2647.7 584.639C2434.61 607.59 2288.26 555.398 2129.05 448.586C1987.22 353.425 1825.63 255.527 1650.92 290.34C1483.63 323.679 1327.39 413.211 1177.81 520.417" stroke="#C61C1E" stroke-width="1.99744" stroke-miterlimit="10"/>
<path d="M6365.28 307.494C6241.3 314.344 6069.98 316.099 5914.24 374.692C5754.87 434.661 5593.29 513.44 5426.06 574.602C5170.37 668.121 4901.77 735.909 4645.01 719.484C4403.66 704.043 4175.3 621.572 3928 554.697C3786.2 516.332 3645.94 480.943 3501.06 472.043C3213.9 453.892 2926.33 543.705 2636.79 574.644C2425.09 597.329 2275.25 548.815 2114.11 445.877C1971.52 354.773 1811.45 257.829 1638.46 297.219C1473.42 334.797 1320.87 427.488 1172.9 534.665" stroke="#C61C1E" stroke-width="1.99744" stroke-miterlimit="10"/>
<path d="M6369.71 291.296C6240.96 305.305 6066.93 311.215 5909.22 373.753C5747.67 437.807 5583.69 518.874 5413.33 580.962C5156.49 674.565 4885.43 739.531 4627.68 717.239C4386.35 696.366 4159.96 606.469 3912.51 539.593C3771.22 501.397 3630.84 468.633 3486.39 461.221C3200.29 446.061 2914.15 534.006 2625.86 564.651C2415.53 587.069 2262.24 542.218 2099.17 443.183C1955.82 356.122 1797.26 260.132 1626.02 304.098C1463.21 345.902 1314.35 441.779 1168.01 548.9" stroke="#C61C1E" stroke-width="1.99744" stroke-miterlimit="10"/>
<path d="M6374.16 275.097C6240.64 296.279 6063.92 306.344 5904.24 372.813C5740.53 440.965 5574.26 524.658 5400.62 587.308C5142.84 681.5 4869.12 743.153 4610.4 714.98C4369.07 688.701 4144.66 591.364 3897.07 524.489C3756.3 486.447 3615.8 456.308 3471.78 450.399C3186.74 438.228 2902.02 524.307 2614.98 554.656C2406.03 576.807 2249.3 535.593 2084.28 440.488C1940.19 357.455 1783.13 262.421 1613.61 310.991C1453.03 356.992 1307.88 456.07 1163.16 563.149" stroke="#C61C1E" stroke-width="1.99744" stroke-miterlimit="10"/>
<path d="M6378.61 258.895C6240.31 287.236 6061.02 301.765 5899.24 371.869C5733.5 444.416 5564.67 530.073 5387.91 593.664C5128.98 687.912 4852.78 746.814 4593.1 712.745C4351.76 681.076 4129.35 576.271 3881.6 509.396C3741.34 471.508 3600.72 444.009 3457.13 439.601C3173.15 430.42 2889.85 514.618 2604.06 544.673C2396.49 566.557 2236.33 528.95 2069.34 437.804C1924.53 358.772 1768.94 264.706 1601.16 317.881C1442.81 368.079 1301.36 470.357 1158.26 577.408" stroke="#C61C1E" stroke-width="1.99744" stroke-miterlimit="10"/>
<path d="M6383.05 242.711C6239.98 278.226 6057.99 296.896 5894.23 370.945C5726.31 447.562 5555.07 535.522 5375.17 600.025C5115.1 694.33 4836.42 750.494 4575.79 710.501C4334.44 673.47 4114.02 561.183 3866.14 494.293C3726.4 456.56 3585.66 431.686 3442.5 428.78C3159.57 422.589 2877.71 504.92 2593.17 534.68C2386.97 556.297 2223.4 522.256 2054.42 435.111C1908.89 360.037 1754.74 266.968 1588.74 324.775C1432.61 379.143 1294.87 484.649 1153.39 591.658" stroke="#C61C1E" stroke-width="1.99744" stroke-miterlimit="10"/>
<path d="M6387.5 226.511C6239.65 269.185 6054.96 291.996 5889.23 370.003C5719.15 450.706 5545.48 540.939 5362.46 606.383C5101.24 700.744 4820.07 754.185 4558.48 708.254C4317.12 665.874 4098.7 546.091 3850.67 479.188C3711.43 441.623 3570.59 419.374 3427.86 417.956C3145.98 414.755 2865.55 495.205 2582.26 524.67C2377.44 546.021 2210.46 515.531 2039.5 432.387C1893.25 361.272 1740.54 269.171 1576.3 331.639C1422.36 390.175 1288.34 498.925 1148.49 605.892" stroke="#C61C1E" stroke-width="1.99744" stroke-miterlimit="10"/>
<path d="M6391.93 210.312C6239.31 260.159 6051.93 287.111 5884.23 369.063C5711.98 453.836 5535.89 546.372 5349.74 612.742C5087.37 707.159 4803.7 757.905 4541.18 706.008C4299.79 658.294 4083.4 530.987 3835.22 464.084C3696.5 426.673 3555.53 407.049 3413.23 407.133C3132.41 406.922 2853.41 485.505 2571.37 514.675C2367.92 535.76 2197.55 508.779 2024.59 429.691C1877.64 362.493 1726.34 271.403 1563.87 338.517C1412.15 401.195 1281.86 513.201 1143.63 620.126" stroke="#C61C1E" stroke-width="1.99744" stroke-miterlimit="10"/>
<path d="M6396.39 194.112C6239 251.119 6048.9 282.212 5879.24 368.123C5704.82 456.967 5526.31 551.791 5337.02 619.087C5073.52 713.547 4787.34 761.64 4523.88 703.748C4282.45 650.714 4068.08 515.883 3819.75 448.979C3681.54 411.724 3540.46 394.724 3398.58 396.31C3118.83 399.076 2841.25 475.805 2560.45 504.667C2358.38 525.485 2184.61 501.986 2009.64 426.982C1862 363.673 1712.1 273.593 1551.41 345.396C1401.87 412.201 1275.34 527.478 1138.71 634.374" stroke="#C61C1E" stroke-width="1.99744" stroke-miterlimit="10"/>
<path d="M6400.82 177.928C6238.64 242.108 6045.86 277.342 5874.22 367.197C5697.64 460.112 5516.7 557.238 5324.29 625.461C5059.63 719.977 4770.94 765.402 4506.57 701.531C4265.09 643.191 4052.76 500.807 3804.28 433.904C3666.58 396.816 3525.38 382.442 3383.93 385.53C3105.23 391.286 2829.08 466.134 2549.54 494.715C2348.84 515.266 2171.69 495.22 1994.72 424.33C1846.37 364.895 1697.86 275.84 1538.98 352.317C1391.62 423.249 1268.83 541.811 1133.83 648.651" stroke="#C61C1E" stroke-width="1.99744" stroke-miterlimit="10"/>
<path d="M6405.27 161.728C6238.32 233.067 6042.84 272.442 5869.22 366.256C5690.47 463.242 5507.11 562.656 5311.57 631.805C5045.78 726.377 4754.54 769.164 4489.26 699.27C4247.72 635.638 4037.43 485.702 3788.81 418.784C3651.62 381.852 3510.3 370.102 3369.29 374.692C3091.64 383.438 2816.93 456.419 2538.62 484.705C2339.3 504.99 2158.74 488.355 1979.78 421.606C1830.73 366.017 1683.6 278.001 1526.53 359.181C1381.33 434.226 1262.32 556.073 1128.93 662.871" stroke="#C61C1E" stroke-width="1.99744" stroke-miterlimit="10"/>
<path d="M6409.7 145.529C6237.98 224.042 6039.8 267.558 5864.23 365.302C5683.31 466.359 5497.52 568.076 5298.84 638.152C5031.9 732.779 4738.12 772.927 4471.94 697.011C4230.33 628.101 4022.1 470.585 3773.32 403.667C3636.65 366.889 3495.21 357.778 3354.64 363.857C3078.05 375.592 2804.76 446.692 2527.7 474.684C2329.75 494.715 2145.82 481.45 1964.84 418.884C1815.08 367.113 1669.32 280.15 1514.08 366.032C1371.02 445.191 1255.79 570.322 1124.03 677.092" stroke="#C61C1E" stroke-width="1.99744" stroke-miterlimit="10"/>
<path d="M6414.15 129.329C6237.66 215.001 6036.78 262.658 5859.23 364.361C5676.14 469.489 5487.93 573.508 5286.12 644.51C5018.04 739.194 4721.69 776.73 4454.64 694.765C4212.95 620.59 4006.8 455.493 3757.87 388.576C3621.7 351.966 3480.16 345.466 3340 353.047C3064.46 367.772 2792.61 437.006 2516.79 464.702C2320.22 484.467 2132.89 474.556 1949.91 416.202C1799.44 368.221 1655.03 282.325 1501.64 372.938C1360.72 456.195 1249.29 584.639 1119.14 691.353" stroke="#C61C1E" stroke-width="1.99744" stroke-miterlimit="10"/>
<path d="M6418.6 113.145C6237.33 205.989 6033.76 257.788 5854.23 363.435C5668.98 472.648 5478.35 578.941 5273.4 650.87C5004.17 745.61 4705.07 781.069 4437.33 692.534C4195.39 613.572 3991.47 440.418 3742.41 373.486C3606.77 337.031 3465.1 333.17 3325.37 342.253C3050.89 359.968 2780.47 427.335 2505.89 454.722C2310.7 474.22 2119.97 467.609 1935 413.522C1783.81 369.303 1640.74 284.502 1489.22 379.845C1350.41 467.187 1242.79 598.945 1114.27 705.631" stroke="#C61C1E" stroke-width="1.99744" stroke-miterlimit="10"/>
<path d="M6423.04 96.9434C6237 196.961 6030.71 252.887 5849.22 362.493C5661.79 475.777 5468.75 584.372 5260.67 657.227C4990.3 752.023 4688.69 784.632 4420.02 690.286C4178.04 605.849 3976.15 425.311 3726.94 358.38C3591.8 322.079 3450.02 320.843 3310.73 331.428C3037.3 352.133 2768.31 417.619 2494.99 444.725C2301.17 463.957 2107.03 460.63 1920.08 410.825C1768.16 370.354 1626.3 286.465 1476.78 386.722C1339.96 477.981 1236.29 613.219 1109.39 719.863" stroke="#C61C1E" stroke-width="1.99744" stroke-miterlimit="10"/>
<path d="M6427.49 80.7451C6236.68 187.922 6027.7 248.003 5844.24 361.554C5654.65 478.908 5459.18 589.792 5247.97 663.587C4976.45 758.44 4672.34 788.213 4402.73 688.041C4160.71 598.116 3960.84 410.222 3711.49 343.277C3576.87 307.144 3434.97 308.534 3296.11 320.606C3023.75 344.302 2756.18 407.92 2484.1 434.718C2291.66 453.683 2094.11 453.599 1905.16 408.103C1752.51 371.352 1612.1 288.769 1464.35 393.588C1329.73 489.1 1229.78 627.497 1104.51 734.084" stroke="#C61C1E" stroke-width="1.99744" stroke-miterlimit="10"/>
</g>
</g>
<defs>
<clipPath id="clip0_53995_45669">
<rect width="5657" height="1853" fill="white"/>
</clipPath>
</defs>
</svg>
