<svg width="7419" height="1749" viewBox="0 0 7419 1749" fill="none" xmlns="http://www.w3.org/2000/svg">
<g opacity="0.4">
<path d="M6512.1 1486.57C6562.73 1402.52 6557.32 1293.74 6520.34 1202.85C6483.37 1111.97 6418.56 1035.52 6352.59 962.881C6265.4 866.847 6171.5 772.403 6053.97 717.523C5890.17 641.039 5699.96 650.136 5521.12 676.493C5203.55 723.305 4895.02 819.214 4594.98 933.29C4273.34 1055.57 3945.38 1201.72 3601.85 1182.17C3293.57 1164.63 3083.27 1013.86 2860.68 819.543C2653.08 638.313 2481.36 404.518 2223.74 285.949C1885.7 130.364 1469.62 210.383 1168.84 429.478C868.053 648.574 672.233 987.951 560.281 1342.84" stroke="#C61C1E" stroke-width="1.94932" stroke-miterlimit="10"/>
<path d="M6541.33 1449.36C6587.33 1376.79 6573.88 1279.64 6530.9 1194.39C6488.05 1109.38 6420.8 1034.91 6351.71 966.564C6260.76 876.586 6164.19 785.8 6043.57 734.427C5872.13 661.395 5673.51 668.204 5487.88 691.15C5171.54 730.235 4864.83 820.418 4567.26 927.425C4250.73 1041.25 3929.21 1181.91 3591.58 1160.23C3283.61 1140.47 3069.24 994.703 2844.39 810.568C2634.02 639.092 2459.19 420.983 2203.83 312.634C1869.89 170.941 1462.54 254.918 1162.75 470.164C861.72 685.876 660.927 1010.13 542.234 1355.9" stroke="#C61C1E" stroke-width="1.94932" stroke-miterlimit="10"/>
<path d="M6570.56 1412.15C6611.93 1351.07 6590.61 1265.79 6541.46 1185.94C6492.88 1107.01 6423.09 1034.32 6350.83 970.278C6256.18 886.383 6156.79 799.295 6033.17 751.347C5853.98 681.85 5647.17 686.384 5454.65 705.81C5139.72 737.579 4834.71 821.626 4539.56 921.563C4228.19 1026.99 3913.02 1162.04 3581.33 1138.29C3273.66 1116.25 3055.6 975.018 2828.09 801.597C2615.36 639.423 2437.14 437.479 2183.93 339.322C1854.23 211.52 1455.46 299.457 1156.68 510.867C855.386 723.195 649.62 1032.31 524.188 1368.99" stroke="#C61C1E" stroke-width="1.94932" stroke-miterlimit="10"/>
<path d="M6599.77 1374.94C6636.51 1325.34 6607.55 1252.17 6551.98 1177.47C6497.92 1104.78 6425.4 1033.75 6349.93 973.975C6251.68 896.162 6149.31 812.855 6022.76 768.25C5835.72 702.342 5620.93 704.643 5421.41 720.452C5108 745.276 4804.64 822.828 4511.84 915.683C4205.73 1012.76 3896.83 1142.12 3571.07 1116.34C3263.69 1092.01 3041.74 955.604 2811.81 792.607C2596.47 639.954 2415.21 453.943 2164.03 365.992C1838.68 252.054 1448.38 343.991 1150.6 551.538C849.06 760.468 638.321 1054.46 506.148 1382.03" stroke="#C61C1E" stroke-width="1.94932" stroke-miterlimit="10"/>
<path d="M6628.99 1337.74C6661.11 1299.61 6624.78 1238.71 6562.53 1169C6503.26 1102.63 6427.8 1033.17 6349.04 977.677C6247.24 905.946 6141.78 826.49 6012.35 785.172C5817.38 722.935 5594.76 723.031 5388.17 735.114C5076.42 753.348 4774.67 824.078 4484.13 909.81C4183.35 998.568 3880.64 1122.14 3560.82 1094.38C3253.7 1067.74 3027.84 936.167 2795.52 783.624C2577.55 640.492 2393.39 470.427 2144.13 392.655C1823.29 292.553 1441.3 388.504 1144.52 592.201C842.734 797.775 627.022 1076.63 488.109 1395.1" stroke="#C61C1E" stroke-width="1.94932" stroke-miterlimit="10"/>
<path d="M6658.21 1300.53C6685.71 1273.9 6642.31 1225.32 6573.08 1160.55C6508.91 1100.51 6430.25 1032.6 6348.15 981.375C6242.9 915.699 6134.21 840.188 6001.95 802.076C5798.98 743.593 5568.66 741.511 5354.94 749.758C5044.91 761.731 4744.78 825.324 4456.42 903.932C4161.03 984.457 3864.44 1102.09 3550.56 1072.44C3243.7 1043.45 3013.92 916.754 2779.23 774.65C2558.6 641.053 2371.69 486.893 2124.24 419.34C1808.04 333.02 1434.67 433.698 1138.45 632.901C836.842 835.722 615.719 1098.79 470.066 1408.15" stroke="#C61C1E" stroke-width="1.94932" stroke-miterlimit="10"/>
<path d="M6687.43 1263.33C6710.29 1248.17 6660.14 1211.94 6583.63 1152.09C6514.87 1098.3 6432.76 1032 6347.26 985.075C6238.61 925.442 6126.59 853.958 5991.54 818.997C5780.51 764.363 5542.62 760.116 5321.7 764.432C5013.45 770.446 4714.97 826.641 4428.7 898.084C4138.8 970.431 3848.24 1082.03 3540.29 1050.52C3233.7 1019.15 2999.96 897.371 2762.94 765.692C2539.63 641.63 2350.13 503.347 2104.33 446.042C1792.93 373.435 1427.66 478.36 1132.37 673.604C830.581 873.137 604.416 1120.96 452.023 1421.23" stroke="#C61C1E" stroke-width="1.94932" stroke-miterlimit="10"/>
<path d="M6716.66 1226.12C6734.89 1222.45 6678.27 1198.47 6594.19 1143.63C6521.11 1095.97 6435.31 1031.39 6346.38 988.788C6234.4 935.154 6118.95 867.808 5981.13 835.915C5762.01 785.214 5516.63 778.843 5288.46 779.09C4982.06 779.419 4685.23 827.983 4400.98 892.22C4116.62 956.471 3832.03 1061.89 3530.03 1028.57C3223.69 994.774 2985.98 877.973 2746.65 756.719C2520.64 642.205 2328.68 519.745 2084.42 472.729C1777.97 413.739 1420.62 523.006 1126.28 714.305C824.3 910.564 593.094 1143.15 433.961 1434.31" stroke="#C61C1E" stroke-width="1.94932" stroke-miterlimit="10"/>
<path d="M6745.87 1188.91C6759.48 1196.72 6696.62 1184.84 6604.73 1135.17C6527.56 1093.46 6437.91 1030.72 6345.48 992.472C6230.24 944.784 6111.27 881.684 5970.73 852.806C5743.46 806.118 5490.66 797.665 5255.24 793.72C4950.72 788.624 4655.58 829.352 4373.29 886.314C4094.56 942.564 3815.85 1041.65 3519.8 1006.6C3213.71 970.347 2972 858.559 2730.4 747.703C2501.64 642.752 2307.41 536.033 2064.56 499.359C1763.22 453.863 1413.63 567.583 1120.24 754.937C818.034 947.935 581.815 1165.3 415.941 1447.35" stroke="#C61C1E" stroke-width="1.94932" stroke-miterlimit="10"/>
<path d="M6775.09 1151.7C6784.08 1171 6715.16 1170.99 6615.28 1126.71C6534.18 1090.76 6440.55 1030.04 6344.59 996.184C6226.12 954.387 6103.57 895.657 5960.32 869.738C5724.88 827.146 5464.71 816.652 5221.99 808.391C4919.38 798.089 4626.01 830.818 4345.56 880.464C4072.55 928.796 3799.61 1021.4 3509.53 984.662C3203.69 945.92 2957.96 839.215 2714.09 738.743C2482.59 643.354 2286.22 552.294 2044.64 526.059C1748.54 493.906 1406.58 612.215 1114.13 795.651C811.745 985.32 570.498 1187.47 397.898 1460.42" stroke="#C61C1E" stroke-width="1.94932" stroke-miterlimit="10"/>
<path d="M6804.33 1114.49C6808.68 1145.28 6733.82 1156.89 6625.84 1118.25C6540.9 1087.85 6443.22 1029.3 6343.71 999.884C6222.06 963.923 6095.89 909.66 5949.92 886.645C5706.29 848.231 5438.79 835.751 5188.76 823.038C4888.07 807.749 4596.53 832.326 4317.86 874.589C4050.62 915.126 3783.42 1001.09 3499.28 962.718C3193.67 921.455 2943.91 819.873 2697.8 729.758C2463.51 643.972 2265.15 568.42 2024.73 552.734C1734.02 533.76 1399.53 656.822 1108.05 836.326C805.441 1022.68 559.193 1209.62 379.84 1473.46" stroke="#C61C1E" stroke-width="1.94932" stroke-miterlimit="10"/>
<path d="M6833.55 1077.29C6833.28 1119.55 6752.53 1142.55 6636.39 1109.79C6547.66 1084.77 6445.92 1028.52 6342.82 1003.58C6218.01 973.402 6088.16 923.714 5939.52 903.562C5687.69 869.41 5412.89 854.998 5155.53 837.709C4856.76 817.626 4567.12 833.942 4290.15 868.738C4028.76 901.576 3767.21 980.731 3489.02 940.798C3183.64 896.959 2929.83 800.584 2681.52 720.812C2444.43 644.643 2244.2 584.461 2004.84 579.447C1719.64 573.474 1392.49 701.454 1101.98 877.04C799.154 1060.08 547.906 1231.82 361.812 1486.56" stroke="#C61C1E" stroke-width="1.94932" stroke-miterlimit="10"/>
<path d="M6862.77 1040.07C6857.87 1093.82 6771.26 1127.97 6646.94 1101.33C6554.41 1081.5 6448.62 1027.68 6341.93 1007.28C6213.98 982.811 6080.45 937.822 5929.11 920.465C5669.05 890.655 5386.97 874.366 5122.29 852.351C4825.45 827.651 4537.79 835.624 4262.45 862.858C4006.97 888.12 3751.02 960.289 3478.77 918.835C3173.63 872.366 2915.75 781.278 2665.24 711.808C2425.33 645.283 2223.35 600.295 1984.95 606.089C1705.35 612.898 1385.44 746.016 1095.91 917.697C792.852 1097.42 536.603 1253.96 343.77 1499.61" stroke="#C61C1E" stroke-width="1.94932" stroke-miterlimit="10"/>
<path d="M6892 1002.87C6882.46 1068.09 6789.96 1113.18 6657.49 1092.87C6561.14 1078.11 6451.33 1026.8 6341.06 1010.99C6209.97 992.182 6072.74 951.974 5918.72 937.398C5650.44 911.999 5361.05 893.902 5089.07 867.024C4794.14 837.885 4508.54 837.433 4234.74 856.996C3985.24 874.833 3734.83 939.809 3468.51 896.903C3163.61 847.763 2901.63 762.031 2648.96 702.85C2406.22 645.997 2202.56 616.009 1965.05 632.791C1691.13 652.148 1378.37 790.608 1089.84 958.399C786.53 1134.78 525.308 1276.13 325.734 1512.67" stroke="#C61C1E" stroke-width="1.94932" stroke-miterlimit="10"/>
<path d="M6921.21 965.662C6907.06 1042.38 6808.59 1098.19 6668.03 1084.41C6567.81 1074.59 6454.03 1025.87 6340.16 1014.68C6205.94 1001.49 6065.01 966.142 5908.32 954.292C5631.82 933.372 5335.12 913.536 5055.84 881.657C4762.81 848.217 4479.34 839.326 4207.03 851.107C3963.57 861.642 3718.65 919.248 3458.26 874.931C3153.6 823.078 2887.52 742.785 2632.68 693.837C2387.09 646.684 2181.82 631.477 1945.17 659.438C1676.98 691.125 1371.31 835.147 1083.78 999.061C780.237 1172.09 514.015 1298.29 307.715 1525.71" stroke="#C61C1E" stroke-width="1.94932" stroke-miterlimit="10"/>
<path d="M6950.44 928.454C6931.66 1016.65 6827.16 1083.04 6678.59 1075.96C6574.43 1070.98 6456.74 1024.91 6339.28 1018.39C6201.9 1010.76 6057.3 980.375 5897.91 971.21C5613.19 954.853 5309.15 933.331 5022.59 896.315C4731.44 858.71 4450.18 841.38 4179.31 845.243C3941.91 848.627 3702.45 898.657 3447.99 852.997C3143.56 798.364 2873.37 723.592 2616.38 684.877C2367.94 647.45 2161.08 646.806 1925.25 686.138C1662.8 729.894 1364.22 879.725 1077.68 1039.76C773.883 1209.43 502.703 1320.46 289.648 1538.79" stroke="#C61C1E" stroke-width="1.94932" stroke-miterlimit="10"/>
<path d="M6979.66 891.248C6956.25 990.926 6845.65 1067.77 6689.13 1067.49C6580.96 1067.3 6459.44 1023.91 6338.39 1022.09C6197.86 1019.98 6049.59 994.624 5887.51 988.131C5594.59 976.391 5283.17 953.279 4989.36 910.989C4700.05 869.343 4421.07 843.602 4151.6 839.396C3920.31 835.779 3686.25 878.028 3437.73 831.08C3133.56 773.611 2859.23 704.456 2600.09 675.934C2348.8 648.261 2140.34 661.96 1905.35 712.84C1648.62 768.446 1357.14 924.305 1071.6 1080.48C767.555 1246.76 491.402 1342.65 271.621 1551.86" stroke="#C61C1E" stroke-width="1.94932" stroke-miterlimit="10"/>
<path d="M7008.88 854.038C6980.84 965.195 6864.05 1052.38 6699.68 1059.04C6587.45 1063.58 6462.11 1022.87 6337.5 1025.79C6193.79 1029.16 6041.88 1008.9 5877.1 1005.03C5575.97 997.965 5257.15 973.347 4956.13 925.631C4668.64 880.053 4391.98 845.955 4123.9 833.503C3898.73 823.05 3670.1 857.298 3427.49 809.104C3123.58 748.744 2845.11 685.302 2583.82 666.917C2329.67 649.039 2119.57 676.808 1885.47 739.483C1634.43 806.693 1350.07 968.798 1065.55 1121.12C761.227 1284.05 480.114 1364.78 253.594 1564.9" stroke="#C61C1E" stroke-width="1.94932" stroke-miterlimit="10"/>
<path d="M7038.1 816.83C7005.43 939.481 6882.37 1036.91 6710.23 1050.57C6593.86 1059.8 6464.77 1021.79 6336.61 1029.49C6189.71 1038.31 6034.17 1023.21 5866.69 1021.95C5557.37 1019.62 5231.08 993.581 4922.88 940.29C4637.19 890.889 4362.89 848.503 4096.17 827.639C3877.14 810.501 3653.92 836.53 3417.22 787.171C3113.58 723.838 2830.97 666.205 2567.52 657.957C2310.51 649.902 2098.69 691.521 1865.55 766.183C1620.1 844.791 1342.95 1013.35 1059.45 1161.82C754.857 1321.35 468.798 1386.97 235.523 1577.99" stroke="#C61C1E" stroke-width="1.94932" stroke-miterlimit="10"/>
<path d="M7067.34 779.625C7030.05 913.756 6900.62 1021.39 6720.8 1042.12C6600.22 1056.03 6467.43 1020.71 6335.73 1033.2C6185.62 1047.45 6026.5 1037.56 5856.31 1038.87C5538.81 1041.34 5204.99 1013.95 4889.67 954.951C4605.74 901.824 4333.85 851.259 4068.49 821.778C3855.58 798.133 3637.8 815.723 3406.99 765.227C3103.63 698.867 2816.88 647.137 2551.26 648.973C2291.41 650.768 2077.75 706.004 1845.68 792.859C1605.72 882.672 1335.87 1057.86 1053.4 1202.51C748.53 1358.63 457.513 1409.14 217.512 1591.06" stroke="#C61C1E" stroke-width="1.94932" stroke-miterlimit="10"/>
<path d="M7096.55 742.414C7054.63 888.026 6918.76 1005.81 6731.34 1033.65C6606.5 1052.2 6470.05 1019.57 6334.84 1036.9C6181.48 1056.54 6018.79 1051.9 5845.89 1055.79C5520.22 1063.09 5178.83 1034.46 4856.42 969.606C4574.19 912.836 4304.71 854.202 4040.75 815.912C3833.96 785.91 3621.63 794.842 3396.71 743.291C3093.65 673.821 2802.73 628.106 2534.95 640.011C2272.26 651.683 2056.63 720.317 1825.77 819.542C1591.16 920.384 1328.75 1102.37 1047.29 1243.2C742.138 1395.91 446.188 1431.31 199.434 1604.11" stroke="#C61C1E" stroke-width="1.94932" stroke-miterlimit="10"/>
<path d="M7125.78 705.207C7079.23 862.299 6936.85 990.211 6741.89 1025.2C6612.73 1048.38 6472.66 1018.45 6333.95 1040.6C6177.34 1065.63 6011.12 1066.27 5835.48 1072.7C5501.67 1084.89 5152.63 1055.1 4823.19 984.265C4542.63 923.933 4275.55 857.367 4013.05 810.049C3812.33 773.855 3605.52 773.924 3386.47 721.359C3083.74 648.71 2788.65 609.092 2518.68 631.038C2253.17 652.628 2035.39 734.455 1805.88 846.229C1576.48 957.962 1321.64 1146.86 1041.23 1283.9C735.786 1433.17 434.905 1453.49 181.41 1617.19" stroke="#C61C1E" stroke-width="1.94932" stroke-miterlimit="10"/>
<path d="M7155 668C7103.82 836.572 6954.87 974.58 6752.44 1016.73C6618.91 1044.54 6475.23 1017.28 6333.06 1044.3C6173.17 1074.68 6003.45 1080.67 5825.08 1089.6C5483.14 1106.74 5126.37 1075.9 4789.95 998.91C4511.03 935.084 4246.31 860.751 3985.34 804.159C3790.63 761.937 3589.41 752.923 3376.2 699.385C3073.82 623.463 2774.55 590.077 2502.38 622.038C2234.07 653.547 2013.94 748.416 1785.98 872.889C1561.63 995.39 1314.53 1191.32 1035.16 1324.56C729.413 1470.38 423.6 1475.64 163.379 1630.24" stroke="#C61C1E" stroke-width="1.94932" stroke-miterlimit="10"/>
<path d="M7184.21 630.792C7128.4 810.858 6972.84 958.935 6762.96 1008.28C6625.02 1040.71 6477.78 1016.12 6332.14 1048.01C6168.94 1083.75 5995.77 1095.09 5814.65 1106.53C5464.58 1128.64 5100.03 1096.85 4756.69 1013.58C4479.35 946.318 4216.95 864.409 3957.6 798.309C3768.82 750.197 3573.3 731.908 3365.92 677.466C3063.92 598.174 2760.46 571.117 2486.07 613.079C2214.96 654.547 1992.29 762.293 1766.06 899.589C1546.56 1032.79 1307.39 1235.8 1029.05 1365.28C723.007 1507.64 412.276 1497.83 145.301 1643.33" stroke="#C61C1E" stroke-width="1.94932" stroke-miterlimit="10"/>
<path d="M7213.44 593.583C7153.01 785.129 6990.77 943.289 6773.53 999.813C6631.15 1036.87 6480.34 1014.92 6331.28 1051.69C6164.76 1092.78 5988.14 1109.5 5804.28 1123.42C5446.12 1150.55 5073.67 1117.9 4723.48 1028.21C4447.67 957.578 4187.49 868.244 3929.91 792.417C3746.97 738.565 3557.26 710.796 3355.69 655.491C3054.09 572.732 2746.43 552.128 2469.81 604.077C2195.92 655.505 1970.51 776.046 1746.18 926.233C1531.36 1070.06 1300.27 1280.21 1023 1405.92C716.65 1544.81 400.987 1519.95 127.285 1656.35" stroke="#C61C1E" stroke-width="1.94932" stroke-miterlimit="10"/>
<path d="M7242.65 556.377C7177.59 759.403 7008.63 927.632 6784.06 991.362C6637.19 1033.04 6482.85 1013.75 6330.38 1055.41C6160.51 1101.82 5980.48 1123.95 5793.85 1140.36C5427.61 1172.54 5047.2 1139.14 4690.24 1042.89C4415.92 968.923 4157.83 872.369 3902.2 786.569C3725 727.086 3541.21 689.686 3345.43 633.573C3044.29 547.253 2732.39 533.225 2453.53 595.133C2176.88 656.547 1948.48 789.775 1726.29 952.949C1515.96 1107.4 1293.15 1324.68 1016.93 1446.65C710.269 1582.04 389.702 1542.16 109.246 1669.46" stroke="#C61C1E" stroke-width="1.94932" stroke-miterlimit="10"/>
<path d="M7271.88 519.17C7202.19 733.676 7026.46 911.975 6794.61 982.897C6643.24 1029.2 6485.38 1012.54 6329.49 1059.11C6156.26 1110.85 5972.85 1138.4 5783.44 1157.26C5409.13 1194.54 5020.68 1160.48 4656.99 1057.55C4384.11 980.308 4127.99 876.726 3874.48 780.706C3702.87 715.702 3525.18 668.508 3335.16 611.641C3034.51 521.65 2718.37 514.307 2437.21 586.16C2157.83 657.576 1926.25 803.447 1706.36 979.636C1500.35 1144.7 1285.99 1369.13 1010.82 1487.34C703.847 1619.22 378.375 1564.34 91.1797 1682.53" stroke="#C61C1E" stroke-width="1.94932" stroke-miterlimit="10"/>
<path d="M7301.11 481.963C7226.79 707.949 7044.27 896.331 6805.17 974.445C6649.25 1025.39 6487.88 1011.34 6328.61 1062.81C6152 1119.88 5965.25 1152.87 5773.06 1174.17C5390.7 1216.57 4994.1 1181.95 4623.78 1072.19C4352.3 991.72 4097.95 881.275 3846.79 774.817C3680.63 704.388 3509.21 647.261 3324.92 589.668C3024.83 495.882 2704.39 495.347 2420.95 577.161C2138.85 658.576 1903.87 817.066 1686.48 1006.3C1484.6 1182.01 1278.86 1413.51 1004.76 1528C697.472 1656.35 367.082 1586.48 73.1602 1695.56" stroke="#C61C1E" stroke-width="1.94932" stroke-miterlimit="10"/>
<path d="M7330.33 444.752C7251.38 682.232 7062.04 880.669 6815.73 965.975C6655.24 1021.55 6490.38 1010.13 6327.73 1066.5C6147.71 1128.9 5957.63 1167.33 5762.65 1191.09C5372.27 1238.64 4967.42 1203.58 4590.54 1086.85C4320.38 1003.18 4067.64 886.053 3819.07 768.95C3658.21 693.164 3493.22 625.982 3314.67 567.732C3015.18 470.027 2690.42 476.452 2404.67 568.184C2119.87 659.614 1881.32 830.721 1666.59 1032.97C1468.7 1219.36 1271.53 1457.39 998.703 1568.68C690.849 1692.92 355.801 1608.64 55.125 1708.62" stroke="#C61C1E" stroke-width="1.94932" stroke-miterlimit="10"/>
<path d="M7359.55 407.545C7275.99 656.505 7079.78 865.025 6826.28 957.524C6661.2 1017.76 6492.84 1008.92 6326.83 1070.22C6143.4 1137.93 5950.03 1181.82 5752.24 1208C5353.84 1260.73 4940.67 1225.33 4557.3 1101.51C4288.44 1014.66 4037.05 891.013 3791.35 763.087C3635.6 682 3477.29 604.666 3304.4 545.786C3005.6 444.027 2676.64 458.068 2388.38 559.212C2101.07 661.19 1858.58 844.407 1646.69 1059.65C1452.63 1256.77 1264.44 1501.93 992.62 1609.37C684.519 1730.23 344.484 1630.81 37.082 1721.69" stroke="#C61C1E" stroke-width="1.94932" stroke-miterlimit="10"/>
<path d="M7388.78 370.336C7300.58 630.776 7097.5 849.393 6836.83 949.056C6667.13 1013.94 6495.19 1007.43 6325.95 1073.9C6138.96 1146.63 5942.5 1196.66 5741.84 1224.91C5335.56 1283.57 4913.85 1247.2 4524.07 1116.15C4256.45 1026.17 4006.19 896.108 3763.65 757.209C3612.85 670.834 3461.42 583.294 3294.16 523.838C2996.11 417.887 2662.63 438.902 2372.1 550.224C2082.06 661.97 1835.72 858.119 1626.8 1086.32C1436.44 1294.26 1257.38 1546.46 986.54 1650.06C678.193 1767.52 333.185 1652.99 19.043 1734.76" stroke="#C61C1E" stroke-width="1.94932" stroke-miterlimit="10"/>
<path d="M7418 333.131C7325.17 605.052 7115.19 833.764 6847.38 940.606C6673.06 1010.14 6497.75 1006.51 6325.06 1077.61C6134.74 1155.98 5934.86 1210.83 5731.43 1241.83C5317.06 1305 4886.93 1269.2 4490.84 1130.82C4224.39 1037.74 3975.01 901.371 3735.94 751.348C3589.88 659.699 3445.57 561.898 3283.9 501.908C2986.7 391.6 2648.61 419.753 2355.81 541.267C2063.02 662.781 1812.71 871.904 1606.91 1113.03C1420.13 1331.84 1250.31 1591.02 980.471 1690.76C671.863 1804.84 321.896 1675.17 1 1747.83" stroke="#C61C1E" stroke-width="1.94932" stroke-miterlimit="10"/>
<path d="M6180.74 1200.14C6148.55 854.273 5990.85 521.444 5743.58 277.471C5673.23 208.055 5592.5 143.901 5496.58 120.146C5219.4 51.5253 4955.59 290.978 4743.13 433.357C4486.72 605.203 4234.09 783.611 3964.21 934.113C3812.69 1018.61 3632.45 1095.63 3470.96 1032.26C3307.43 968.074 3229.14 787.502 3148.23 631.574C3053.95 449.878 2932.17 278.019 2766.93 157.176C2601.7 36.3463 2388.43 -28.7398 2188.29 14.2902C2031.57 47.9772 1895.4 143.271 1772.72 246.469C1450.37 517.622 1188.01 859.698 1009.69 1241.31" stroke="#C61C1E" stroke-width="1.94932" stroke-miterlimit="10"/>
<path d="M6187.87 1184.32C6156.71 849.599 5995.98 534.648 5744.13 290.729C5673.81 222.629 5593.99 159.187 5499.4 135.076C5225.55 65.0851 4965.22 292.825 4753.31 430.272C4527.38 576.815 4304.24 730.948 4067.11 867.723C4037.95 884.601 4008.64 901.204 3979.12 917.479C3828.75 1000.4 3650.67 1076.27 3490.81 1016.33C3328.84 955.674 3249.44 782.458 3167.59 633.037C3071.96 459.027 2949.85 294.483 2785.81 179.01C2621.35 63.7014 2410.53 1.98532 2212.57 44.2345C2078.04 72.9212 1958.51 145.98 1849.53 229.506C1832.66 242.425 1816.13 255.699 1799.68 268.892C1473.22 530.648 1211.87 846.201 1039.29 1215.51" stroke="#C61C1E" stroke-width="1.94932" stroke-miterlimit="10"/>
<path d="M6194.99 1168.5C6164.88 844.942 6001.15 547.842 5744.69 304.005C5674.41 237.193 5595.51 174.504 5502.23 150.023C5231.7 78.6627 4974.86 294.703 4763.5 427.218C4539.81 567.446 4318.65 717.592 4081.34 852.107C4052.41 868.642 4023.31 884.917 3994.02 900.891C3844.81 982.238 3668.88 1056.96 3510.65 1000.46C3350.23 943.332 3269.72 777.459 3186.92 634.559C3089.96 468.248 2967.51 310.992 2804.65 200.903C2640.96 91.1018 2432.6 32.7695 2236.81 74.2515C2103.48 102.459 1984.74 173.175 1876.28 253.536C1859.47 265.962 1843.07 278.826 1826.6 291.388C1495.86 543.773 1235.69 832.791 1068.86 1189.79" stroke="#C61C1E" stroke-width="1.94932" stroke-miterlimit="10"/>
<path d="M6202.11 1152.69C6173.04 840.283 6006.36 561.02 5745.25 317.279C5675.04 251.74 5597.01 189.805 5505.06 164.968C5237.86 92.2376 4984.56 296.593 4773.68 424.148C4552.29 558.074 4332.71 703.617 4095.59 836.488C4066.83 852.613 4038 868.627 4008.94 884.286C3860.88 964.058 3687.11 1037.62 3530.51 984.58C3371.65 930.974 3290.31 772.293 3206.27 636.079C3108.3 477.247 2985.48 327.074 2823.52 222.793C2660.87 118.075 2454.69 63.5509 2261.09 104.266C2128.98 131.993 2011.02 200.381 1903.06 277.564C1886.3 289.496 1870.04 301.949 1853.58 313.881C1518.38 556.896 1259.55 819.364 1098.49 1164.06" stroke="#C61C1E" stroke-width="1.94932" stroke-miterlimit="10"/>
<path d="M6209.24 1136.86C6181.2 835.625 6011.63 574.171 5745.8 330.539C5675.67 266.262 5598.51 205.093 5507.88 179.9C5244.02 105.786 4994.29 298.455 4783.87 421.066C4564.8 548.703 4347 690.041 4109.83 820.857C4081.26 836.611 4052.66 852.325 4023.83 867.668C3876.92 945.878 3705.31 1018.28 3550.34 968.674C3393.03 918.589 3310.65 767.196 3225.59 637.558C3126.37 486.343 3003.21 343.403 2842.36 244.63C2680.56 145.282 2476.77 94.2785 2285.33 134.212C2154.42 161.461 2037.25 227.519 1929.8 301.524C1913.12 312.963 1896.96 324.991 1880.5 336.321C1540.67 569.965 1283.37 805.897 1128.05 1138.27" stroke="#C61C1E" stroke-width="1.94932" stroke-miterlimit="10"/>
<path d="M6216.36 1121.04C6189.36 830.955 6016.91 587.296 5746.36 343.802C5676.33 280.785 5600.01 220.397 5510.72 194.834C5250.18 119.35 5004.07 300.347 4794.06 417.998C4577.36 539.389 4361.33 676.494 4124.07 805.228C4095.71 820.612 4067.34 836.024 4038.75 851.052C3892.99 927.687 3723.54 998.938 3570.2 952.784C3414.44 906.22 3331.04 762.115 3244.95 639.067C3144.48 495.455 3020.95 359.762 2861.23 266.51C2700.26 172.532 2498.85 125.049 2309.59 164.216C2179.88 190.971 2063.49 254.701 1956.55 325.541C1939.92 336.487 1923.88 348.104 1907.43 358.803C1562.79 583.05 1307.19 792.46 1157.63 1112.52" stroke="#C61C1E" stroke-width="1.94932" stroke-miterlimit="10"/>
<path d="M6223.49 1105.22C6197.53 826.285 6022.26 600.395 5746.91 357.079C5676.99 295.294 5601.5 235.701 5513.54 209.782C5256.33 132.928 5013.87 302.267 4804.24 414.931C4589.95 530.089 4375.64 662.946 4138.31 789.612C4110.15 804.64 4082.02 819.723 4053.66 834.464C3909.05 909.523 3741.76 979.623 3590.04 936.908C3435.84 893.878 3351.4 757.048 3264.28 640.589C3162.55 504.581 3038.66 376.148 2880.08 288.403C2719.93 199.795 2520.93 155.82 2333.84 194.233C2205.35 220.509 2089.74 281.91 1983.31 349.571C1966.75 360.024 1950.8 371.203 1934.38 381.299C1584.77 596.121 1331.04 779.05 1187.22 1086.79" stroke="#C61C1E" stroke-width="1.94932" stroke-miterlimit="10"/>
<path d="M6230.61 1089.4C6205.69 821.627 6027.65 613.45 5747.47 370.34C5677.69 309.788 5602.96 251.182 5516.38 224.714C5262.33 147.025 5023.73 304.185 4814.44 411.849C4602.62 520.814 4389.99 649.398 4152.57 773.98C4124.62 788.639 4096.71 803.421 4068.59 817.846C3925.13 891.344 3759.99 960.28 3609.92 921.003C3457.26 881.494 3371.78 751.938 3283.66 642.068C3180.67 513.663 3056.42 392.478 2898.97 310.254C2739.63 227.029 2543.06 186.561 2358.14 224.194C2230.86 249.99 2116.17 309.281 2010.11 373.532C1993.61 383.518 1977.75 394.245 1961.35 403.739C1606.59 609.08 1354.9 765.569 1216.84 1061.01" stroke="#C61C1E" stroke-width="1.94932" stroke-miterlimit="10"/>
<path d="M6237.73 1073.57C6213.85 816.954 6033.08 626.477 5748.02 383.599C5678.37 324.253 5604.45 266.496 5519.19 239.632C5268.45 160.627 5033.6 306.115 4824.62 408.765C4615.29 511.58 4404.32 635.875 4166.8 758.334C4139.06 772.637 4111.38 787.103 4083.48 801.214C3941.17 873.136 3778.2 940.921 3629.74 905.097C3478.65 869.108 3392.09 746.827 3302.98 643.56C3198.71 522.745 3074.1 408.847 2917.8 332.103C2759.27 254.263 2565.11 217.302 2382.37 254.167C2256.3 279.483 2142.4 336.459 2036.85 397.518C2020.42 407.025 2004.62 417.3 1988.28 426.191C1628.18 621.97 1378.72 752.115 1246.41 1035.24" stroke="#C61C1E" stroke-width="1.94932" stroke-miterlimit="10"/>
<path d="M6244.85 1057.75C6222 812.295 6038.55 639.463 5748.58 396.859C5679.08 338.718 5605.94 281.811 5522.03 254.562C5274.6 174.242 5043.53 308.073 4834.81 405.681C4628.03 502.372 4418.67 622.338 4181.04 742.702C4153.51 756.648 4126.07 770.799 4098.4 784.595C3957.25 854.941 3796.42 921.576 3649.6 889.19C3500.06 856.736 3412.45 741.715 3322.33 645.052C3216.78 531.826 3091.8 425.203 2936.68 353.966C2778.93 281.523 2587.22 248.055 2406.65 284.14C2281.78 308.963 2168.67 363.651 2063.63 421.504C2047.26 430.518 2031.54 440.341 2015.24 448.643C1649.64 634.764 1402.57 738.647 1276.03 1009.47" stroke="#C61C1E" stroke-width="1.94932" stroke-miterlimit="10"/>
<path d="M6251.98 1041.94C6230.17 807.639 6044.07 652.438 5749.13 410.149C5679.8 353.2 5607.44 297.142 5524.86 269.524C5280.73 187.875 5053.51 310.102 4844.99 402.628C4640.8 493.25 4433.02 608.86 4195.28 727.086C4167.97 740.676 4140.73 754.512 4113.31 768.006C3973.31 836.791 3814.64 902.275 3669.44 873.328C3521.46 844.395 3432.77 736.635 3341.67 646.574C3234.81 540.938 3109.48 441.617 2955.52 375.859C2798.55 308.814 2609.28 278.84 2430.89 314.157C2307.22 338.501 2194.91 390.874 2090.36 445.535C2074.06 454.056 2058.4 463.426 2042.15 471.153C1670.88 647.52 1426.39 725.25 1305.59 983.759" stroke="#C61C1E" stroke-width="1.94932" stroke-miterlimit="10"/>
<path d="M6259.1 1026.12C6238.33 802.969 6049.62 665.357 5749.68 423.411C5680.53 367.627 5608.92 312.459 5527.68 284.457C5286.87 201.48 5063.52 312.13 4855.18 399.547C4653.61 484.127 4447.38 595.367 4209.52 711.456C4182.41 724.69 4155.41 738.211 4128.21 751.39C3989.37 818.6 3832.85 882.932 3689.3 857.424C3542.86 832.011 3453.09 731.526 3361.02 648.069C3252.84 550.008 3127.14 458.002 2974.39 397.725C2818.19 336.077 2631.38 309.582 2455.17 344.146C2332.71 368.011 2221.19 418.068 2117.15 469.537C2100.9 477.565 2085.31 486.484 2069.13 493.621C1692.02 660.083 1450.26 711.812 1335.21 958.006" stroke="#C61C1E" stroke-width="1.94932" stroke-miterlimit="10"/>
<path d="M6266.22 1010.3C6246.5 798.312 6055.23 678.222 5750.23 436.673C5681.27 382.054 5610.42 327.763 5530.51 299.391C5293 215.071 5073.56 314.2 4865.36 396.479C4666.47 475.087 4461.74 581.901 4223.76 695.84C4196.85 708.717 4170.08 721.924 4143.11 734.787C4005.42 800.421 3851.1 863.302 3709.12 841.547C3564.29 819.354 3473.37 726.444 3380.35 649.59C3270.84 559.119 3144.79 474.429 2993.23 419.604C2837.78 363.381 2653.44 340.352 2479.4 374.135C2358.15 397.52 2247.42 445.263 2143.88 493.54C2127.7 501.088 2112.15 509.513 2096.04 516.089C1712.96 672.496 1474.06 698.36 1364.76 932.251" stroke="#C61C1E" stroke-width="1.94932" stroke-miterlimit="10"/>
<path d="M6273.35 994.471C6254.67 793.637 6060.88 691.042 5750.8 449.931C5682.04 396.462 5611.92 343.061 5533.35 314.32C5299.16 228.657 5083.67 316.306 4875.57 393.393C4679.39 466.069 4476.15 568.418 4238.03 680.192C4211.34 692.713 4184.79 705.604 4158.05 718.153C4021.51 782.225 3869.35 843.928 3729.01 825.625C3585.73 806.939 3493.68 721.317 3399.73 651.053C3288.87 568.171 3162.47 490.797 3012.13 441.437C2857.42 390.64 2675.57 371.077 2503.7 404.093C2383.65 426.984 2273.7 472.426 2170.68 517.51C2154.56 524.566 2139.05 532.511 2123.02 538.539C1733.82 684.712 1497.93 684.904 1394.39 906.479" stroke="#C61C1E" stroke-width="1.94932" stroke-miterlimit="10"/>
<path d="M6280.47 978.648C6262.81 788.979 6066.57 703.809 5751.34 463.205C5682.79 410.887 5613.4 358.377 5536.16 329.266C5305.29 242.247 5093.78 318.471 4885.74 390.324C4692.3 457.123 4490.53 554.978 4252.25 664.574C4225.77 676.753 4199.45 689.315 4172.94 701.562C4037.55 764.059 3887.56 824.597 3748.84 809.747C3607.1 794.582 3513.93 716.234 3419.05 652.573C3306.82 577.281 3180.08 507.249 3030.96 463.329C2876.98 417.97 2697.64 401.859 2527.93 434.108C2409.08 456.52 2299.91 499.646 2197.4 541.539C2181.34 548.101 2165.88 555.567 2149.93 561.033C1754.48 696.768 1521.74 671.478 1423.94 880.751" stroke="#C61C1E" stroke-width="1.94932" stroke-miterlimit="10"/>
<path d="M6287.6 962.823C6270.98 784.305 6072.3 716.534 5751.91 476.465C5683.59 425.27 5614.91 373.664 5539.01 344.196C5311.43 255.821 5103.97 320.688 4895.94 387.254C4705.3 448.244 4504.93 541.551 4266.5 648.955C4240.24 660.777 4214.13 673.025 4187.87 684.957C4053.63 745.878 3905.78 805.252 3768.71 793.868C3628.52 782.209 3534.21 711.164 3438.41 654.092C3324.8 586.403 3197.73 523.714 3049.84 485.219C2896.58 445.326 2719.74 432.64 2552.22 464.108C2434.58 486.041 2326.19 526.851 2224.2 565.539C2208.2 571.608 2192.76 578.567 2176.91 583.499C1775.1 708.589 1545.61 658.037 1453.58 854.995" stroke="#C61C1E" stroke-width="1.94932" stroke-miterlimit="10"/>
<path d="M6294.72 947.005C6279.15 779.652 6078.07 729.197 5752.46 489.731C5684.36 439.645 5616.39 388.971 5541.83 359.134C5317.57 269.402 5114.16 322.981 4906.12 384.176C4718.3 439.426 4519.33 528.13 4280.74 633.315C4254.7 644.795 4228.8 656.7 4202.76 668.331C4069.67 727.69 3923.98 785.899 3788.53 777.954C3649.89 769.816 3554.42 706.073 3457.73 655.563C3342.72 595.491 3215.32 540.145 3068.68 507.047C2916.13 472.62 2741.81 463.346 2576.46 494.06C2460.04 515.499 2352.41 553.995 2250.93 589.504C2234.98 595.08 2219.58 601.532 2203.82 605.943C1795.56 720.128 1569.41 644.562 1483.13 829.217" stroke="#C61C1E" stroke-width="1.94932" stroke-miterlimit="10"/>
<path d="M6301.84 931.179C6287.31 774.978 6083.88 741.811 5753.01 502.989C5685.16 454.013 5617.9 404.256 5544.66 374.049C5323.73 282.934 5124.4 325.306 4916.31 381.077C4731.34 430.655 4533.75 514.702 4294.98 617.667C4269.16 628.804 4243.48 640.381 4217.67 651.696C4085.73 709.481 3942.18 766.539 3808.39 762.045C3671.3 757.442 3574.66 701.001 3477.09 657.053C3360.66 604.611 3232.94 556.608 3087.55 528.908C2935.71 499.975 2763.9 494.098 2600.73 524.045C2485.51 545.005 2378.67 581.171 2277.71 613.502C2261.82 618.585 2246.44 624.516 2230.79 628.407C1815.99 731.441 1593.28 631.12 1512.74 803.459" stroke="#C61C1E" stroke-width="1.94932" stroke-miterlimit="10"/>
<path d="M6308.97 915.375C6295.48 770.325 6089.74 754.365 5753.57 516.282C5685.96 468.403 5619.4 419.578 5547.49 389.014C5329.87 296.529 5134.65 327.764 4926.49 378.041C4744.4 422.016 4548.17 501.363 4309.22 602.068C4283.6 612.863 4258.16 624.111 4232.59 635.125C4101.8 691.334 3960.39 747.241 3828.23 746.187C3692.69 745.104 3594.86 695.992 3496.43 658.592C3378.56 613.809 3250.55 573.149 3106.41 550.818C2955.26 527.406 2785.99 524.899 2624.99 554.065C2510.99 574.546 2404.91 608.384 2304.48 637.536C2288.66 642.125 2273.3 647.523 2257.74 650.907C1836.36 742.515 1617.13 617.699 1542.34 777.736" stroke="#C61C1E" stroke-width="1.94932" stroke-miterlimit="10"/>
<path d="M6316.09 899.551C6303.63 765.666 6095.63 766.858 5754.13 529.543C5686.77 482.731 5620.9 434.866 5550.32 403.946C5336.03 310.063 5144.95 330.27 4936.68 374.958C4757.48 413.398 4562.59 487.992 4323.47 586.436C4298.07 596.889 4272.85 607.808 4247.5 618.507C4117.86 673.154 3978.61 727.897 3848.09 730.281C3714.09 732.733 3615.08 690.95 3515.79 660.071C3396.48 622.973 3268.15 589.642 3125.27 572.668C2974.82 554.791 2808.07 555.64 2649.25 584.039C2536.45 604.04 2431.16 635.535 2331.23 661.523C2315.47 665.619 2300.15 670.483 2284.67 673.373C1856.67 753.268 1640.95 604.259 1571.91 751.981" stroke="#C61C1E" stroke-width="1.94932" stroke-miterlimit="10"/>
<path d="M6323.22 883.728C6311.79 760.995 6101.58 779.27 5754.68 542.804C5687.58 497.061 5622.4 450.154 5553.13 418.878C5342.17 323.612 5155.23 332.873 4946.86 371.875C4770.58 404.864 4577.03 474.635 4337.7 570.805C4312.52 580.915 4287.51 591.505 4262.41 601.889C4133.92 654.961 3996.82 708.567 3867.93 714.389C3735.47 720.362 3635.28 685.963 3535.12 661.578C3414.36 632.179 3285.75 606.191 3144.12 594.533C2994.37 582.203 2830.16 586.395 2673.5 614.027C2561.91 633.535 2457.38 662.701 2357.99 685.525C2342.28 689.128 2326.99 693.443 2311.62 695.84C1876.99 763.707 1664.79 590.806 1601.51 726.226" stroke="#C61C1E" stroke-width="1.94932" stroke-miterlimit="10"/>
<path d="M6330.34 867.903C6319.95 756.334 6107.54 791.624 5755.24 556.062C5688.41 511.388 5623.9 465.44 5555.96 433.808C5348.33 337.131 5165.54 335.569 4957.05 368.79C4783.68 396.408 4591.47 461.303 4351.94 555.158C4326.98 564.939 4302.19 575.186 4277.31 585.255C4149.97 636.752 4015.02 689.221 3887.78 698.468C3756.87 707.989 3655.48 680.96 3554.46 663.055C3432.26 641.396 3303.35 622.724 3162.98 616.381C3013.92 609.641 2852.24 617.134 2697.76 643.985C2587.37 663.014 2483.63 689.837 2384.74 709.496C2369.1 712.606 2353.82 716.359 2338.55 718.277C1897.3 773.815 1688.62 577.337 1631.09 700.441" stroke="#C61C1E" stroke-width="1.94932" stroke-miterlimit="10"/>
<path d="M6337.46 852.081C6328.12 751.664 6113.56 803.9 5755.78 569.338C5689.23 525.705 5625.39 480.73 5558.78 448.755C5354.48 350.667 5175.86 338.392 4967.23 365.737C4796.78 388.067 4605.9 448.029 4366.18 539.555C4341.44 548.994 4316.86 558.913 4292.21 568.667C4166.03 618.601 4033.23 669.919 3907.63 682.605C3778.26 695.661 3675.68 676.029 3573.81 664.577C3450.16 650.685 3320.96 639.342 3181.84 638.274C3033.48 637.137 2874.33 647.904 2722.04 674.002C2612.85 692.551 2509.87 717.018 2411.52 733.526C2395.93 736.143 2380.69 739.335 2365.52 740.787C1917.7 783.666 1712.48 563.94 1660.71 674.728" stroke="#C61C1E" stroke-width="1.94932" stroke-miterlimit="10"/>
<path d="M6344.59 836.256C6336.29 747.004 6119.62 816.091 5756.35 582.597C5690.07 540.005 5626.92 496.003 5561.62 463.686C5360.67 364.173 5186.18 341.308 4977.42 362.652C4809.89 379.776 4620.38 434.739 4380.43 523.922C4355.91 533.032 4331.55 542.608 4307.14 552.061C4182.1 600.42 4051.45 650.615 3927.48 666.712C3799.67 683.315 3695.89 671.096 3593.16 666.082C3468.07 659.972 3338.57 655.944 3200.71 660.15C3053.06 664.643 2896.43 678.671 2746.3 704.002C2638.32 722.071 2536.11 744.182 2438.28 757.539C2422.75 759.662 2407.54 762.279 2392.46 763.265C1938.13 793.171 1736.31 550.499 1690.29 648.984" stroke="#C61C1E" stroke-width="1.94932" stroke-miterlimit="10"/>
<path d="M6351.71 820.434C6344.43 742.334 6125.71 828.216 5756.89 595.859C5690.9 554.281 5628.4 511.279 5564.44 478.619C5366.84 377.681 5196.47 344.351 4987.6 359.571C4822.97 371.572 4634.82 421.465 4394.66 508.278C4370.35 517.06 4346.22 526.293 4322.04 535.431C4198.16 582.214 4069.66 631.272 3947.33 650.794C3821.06 670.946 3716.12 666.165 3612.5 667.562C3486 669.261 3356.18 672.562 3219.56 681.988C3072.62 692.139 2918.5 709.4 2770.54 733.95C2663.77 751.526 2562.34 771.295 2465.03 781.487C2449.55 783.103 2434.37 785.145 2419.39 785.679C1958.62 802.296 1760.13 537.006 1719.86 623.176" stroke="#C61C1E" stroke-width="1.94932" stroke-miterlimit="10"/>
<path d="M6358.84 804.625C6352.61 737.676 6131.85 840.271 5757.46 609.134C5691.76 568.57 5629.93 526.567 5567.28 493.552C5373.03 391.176 5206.76 347.515 4997.8 356.502C4836.05 363.462 4649.3 408.245 4408.91 492.661C4384.83 501.114 4360.91 509.991 4336.95 518.827C4214.23 564.049 4087.92 612.203 3967.17 634.916C3842.51 658.849 3736.35 661.288 3631.84 669.069C3503.93 678.604 3373.81 689.207 3238.42 703.866C3092.2 719.689 2940.59 740.169 2794.8 763.952C2689.23 781.049 2588.57 798.447 2491.78 805.502C2476.37 806.625 2461.22 808.078 2446.33 808.174C1979.24 811.174 1783.97 523.581 1749.45 597.448" stroke="#C61C1E" stroke-width="1.94932" stroke-miterlimit="10"/>
<path d="M6365.96 788.8C6360.76 733.016 6138.02 852.228 5758 622.406C5692.59 582.842 5631.43 541.853 5570.1 508.495C5379.21 404.681 5216.98 350.814 5007.97 353.431C4849.07 355.417 4663.76 395.036 4423.14 477.027C4399.29 485.151 4375.56 493.686 4351.85 502.207C4230.28 545.853 4106.13 592.856 3987.02 619.009C3863.9 646.476 3756.61 656.381 3651.17 670.56C3521.89 687.944 3391.45 705.877 3257.27 725.727C3111.8 747.249 2962.67 770.922 2819.07 793.937C2714.72 810.555 2614.82 825.583 2518.56 829.501C2503.2 830.131 2488.1 830.98 2473.28 830.638C2000.02 819.706 1807.82 510.139 1779.05 571.691" stroke="#C61C1E" stroke-width="1.94932" stroke-miterlimit="10"/>
<path d="M6373.08 772.98C6368.93 728.347 6144.23 864.095 5758.56 635.67C5693.45 597.106 5632.94 557.117 5572.93 523.43C5385.4 418.15 5227.19 354.228 5018.17 350.351C4862.1 347.461 4678.26 381.846 4437.4 461.399C4413.77 469.208 4390.26 477.386 4366.78 485.606C4246.36 527.677 4124.37 573.529 4006.88 603.134C3885.32 634.122 3776.89 651.52 3670.54 672.083C3539.89 697.331 3409.13 722.579 3276.15 747.608C3131.44 774.856 2984.78 801.68 2843.34 823.928C2740.2 840.066 2641.08 852.724 2545.34 853.505C2530.04 853.628 2514.99 853.889 2500.24 853.108C2020.95 827.956 1831.67 496.689 1808.66 545.938" stroke="#C61C1E" stroke-width="1.94932" stroke-miterlimit="10"/>
<path d="M6380.21 757.157C6377.1 723.689 6150.49 875.876 5759.12 648.931C5694.31 611.34 5634.52 572.283 5575.77 538.363C5391.81 431.302 5237.32 357.776 5028.36 347.283C4875.04 339.57 4692.74 368.695 4451.64 445.782C4428.23 453.262 4404.94 461.098 4381.69 469.002C4262.43 509.512 4142.6 554.199 4026.74 587.242C3906.73 621.751 3797.19 646.657 3689.9 673.577C3557.92 706.688 3426.83 739.279 3295.03 769.473C3151.09 802.461 3006.87 832.436 2867.62 853.916C2765.68 869.561 2667.34 879.685 2572.1 877.507C2556.87 877.109 2541.87 876.781 2527.2 875.589C2042.06 835.929 1855.51 483.264 1838.27 520.197" stroke="#C61C1E" stroke-width="1.94932" stroke-miterlimit="10"/>
<path d="M6387.33 741.333C6385.24 719.016 6156.76 887.561 5759.67 662.191C5695.15 625.572 5636.02 587.57 5578.59 553.294C5397.96 444.849 5247.39 361.46 5038.54 344.199C4887.92 331.746 4707.22 355.57 4465.88 430.136C4442.69 437.301 4419.62 444.78 4396.59 452.37C4278.47 491.304 4160.79 534.841 4046.57 571.322C3928.11 609.352 3817.48 641.765 3709.22 675.055C3575.92 716.043 3444.5 755.964 3313.85 791.322C3170.72 830.064 3028.93 863.176 2891.84 883.889C2791.11 899.055 2693.55 906.85 2598.83 901.493C2583.65 900.603 2568.72 899.671 2554.1 898.041C2063.29 843.599 1879.32 469.796 1867.82 494.427" stroke="#C61C1E" stroke-width="1.94932" stroke-miterlimit="10"/>
<path d="M6394.47 725.512C6393.43 714.36 6163.1 899.153 5760.25 675.468C5696.03 639.808 5637.55 602.888 5581.45 568.242C5404.15 458.427 5257.4 365.298 5048.76 341.132C4900.76 323.994 4721.83 342.79 4480.15 414.52C4457.19 421.397 4434.32 428.494 4411.53 435.768C4294.56 473.127 4179.05 515.513 4066.45 555.447C3949.55 597.011 3837.9 637.054 3728.59 676.577C3594.07 725.608 3462.33 772.953 3332.75 813.216C3190.52 857.972 3051.06 893.96 2916.15 913.893C2816.62 928.579 2719.86 934.031 2625.64 925.51C2610.51 924.127 2595.65 922.565 2581.09 920.524C2084.82 851.04 1903.2 456.372 1897.44 468.674" stroke="#C61C1E" stroke-width="1.94932" stroke-miterlimit="10"/>
<path d="M6401.6 709.689C6401.6 709.689 6169.44 910.632 5760.8 688.728C5352.16 466.824 5191.75 198.534 4494.38 398.889C3797.01 599.244 3187.7 1016.35 2652.39 949.498C2117.09 882.644 1927.04 442.919 1927.04 442.919" stroke="#C61C1E" stroke-width="1.94932" stroke-miterlimit="10"/>
<path d="M6712.08 569.776C6670.31 457.564 6548.01 390.916 6428.58 382.231C6309.15 373.545 6191.65 412.356 6080.27 456.317C5849.92 547.213 5629.09 662.371 5394.08 740.417C5159.07 818.463 4902.71 858.054 4663.8 792.872C4516.92 752.801 4381.98 674.673 4233.48 641.123C3935.7 573.831 3631.36 692.523 3328.11 727.621C3098.67 754.171 3012.5 643.863 2884.69 480.908C2760.63 322.72 2577.1 212.33 2379.21 176.862C2181.32 141.394 1970.89 181.191 1799.6 286.458" stroke="#C61C1E" stroke-width="1.94932" stroke-miterlimit="10"/>
<path d="M6716.41 553.981C6669.97 448.755 6545.04 386.162 6423.69 381.326C6302.15 376.614 6182.28 417.671 6067.85 462.523C5836.38 553.474 5613.11 665.864 5377.18 738.238C5142.12 810.942 4887.75 843.341 4648.69 778.159C4502.32 738.238 4367.25 662.686 4219.18 630.588C3922.43 566.214 3619.48 683.084 3317.45 717.881C3089.35 744.17 2999.75 637.41 2870.12 478.291C2745.25 324.049 2563.23 214.618 2367.08 183.602C2171.34 152.285 1964.54 195.151 1794.84 300.376" stroke="#C61C1E" stroke-width="1.94932" stroke-miterlimit="10"/>
<path d="M6720.75 538.172C6669.65 439.947 6542.1 381.382 6418.83 380.395C6295.16 379.656 6172.94 422.946 6055.45 468.716C5822.86 559.721 5597 668.797 5360.31 736.034C5125.07 802.86 4872.82 828.587 4633.62 763.405C4487.74 723.649 4352.57 650.645 4204.9 620.013C3909.2 558.557 3607.64 673.605 3306.82 708.114C3080.06 734.143 2986.55 631.342 2855.57 475.634C2729.45 325.707 2549.37 216.865 2354.95 190.288C2161.35 163.122 1958.2 209.056 1790.08 314.241" stroke="#C61C1E" stroke-width="1.94932" stroke-miterlimit="10"/>
<path d="M6725.07 522.361C6669.31 431.123 6539.13 376.612 6413.93 379.476C6288.15 382.709 6163.56 428.246 6043.02 474.906C5809.32 565.966 5580.95 672.014 5343.4 733.826C5108.07 795.063 4857.85 813.844 4618.5 748.649C4473.13 709.044 4337.84 638.615 4190.59 609.448C3895.91 550.911 3595.76 664.123 3296.15 698.358C3070.74 724.127 2973.58 625.08 2840.97 473.002C2713.84 327.212 2535.41 219.644 2342.78 197.012C2151.27 174.504 1951.81 223.014 1785.28 328.157" stroke="#C61C1E" stroke-width="1.94932" stroke-miterlimit="10"/>
<path d="M6729.43 506.552C6669.01 422.314 6536.18 371.832 6409.07 378.558C6281.18 385.764 6154.22 433.534 6030.62 481.113C5795.8 572.228 5564.95 675.275 5326.54 731.635C5091.12 787.296 4842.93 799.104 4603.44 733.909C4458.55 694.454 4323.16 626.587 4176.33 598.887C3882.68 543.267 3583.92 654.657 3285.53 688.591C3061.47 714.099 2960.68 618.792 2826.44 470.359C2698.33 328.692 2521.57 222.069 2330.67 203.712C2141.3 185.506 1945.49 236.933 1780.54 342.036" stroke="#C61C1E" stroke-width="1.94932" stroke-miterlimit="10"/>
<path d="M6733.76 490.761C6668.69 413.51 6533.23 367.082 6404.18 377.658C6274.17 388.837 6144.85 438.854 6018.18 487.336C5782.23 578.506 5548.92 678.553 5309.62 729.46C5074.15 779.559 4827.94 784.395 4588.31 719.186C4443.93 679.896 4308.42 614.59 4162.01 588.342C3869.41 535.64 3572.03 645.195 3274.86 678.854C3052.14 704.103 2947.73 612.549 2811.85 467.746C2682.77 330.203 2507.68 224.512 2318.52 210.456C2131.3 196.551 1939.12 250.897 1775.76 355.972" stroke="#C61C1E" stroke-width="1.94932" stroke-miterlimit="10"/>
<path d="M6738.1 474.95C6668.37 404.699 6530.24 362.011 6399.31 376.738C6267.15 391.602 6135.5 444.153 6005.78 493.526C5768.72 584.751 5532.94 681.812 5292.75 727.266C5057.23 771.831 4813.02 769.653 4573.25 704.457C4429.37 665.317 4293.74 602.574 4147.75 577.792C3856.17 528.008 3560.19 635.74 3264.24 669.099C3042.86 694.086 2934.87 606.273 2797.31 465.114C2667.29 331.694 2493.85 226.921 2306.4 217.181C2121.34 207.564 1932.81 264.855 1771.02 369.875" stroke="#C61C1E" stroke-width="1.94932" stroke-miterlimit="10"/>
<path d="M6742.43 459.136C6668.04 395.871 6527.26 357.212 6394.42 375.815C6260.14 394.625 6126.13 449.436 5993.35 499.727C5755.17 591.007 5516.94 685.108 5275.84 725.07C5040.29 764.099 4798.05 754.921 4558.14 689.711C4414.76 650.723 4279.02 590.555 4133.44 567.224C3842.89 520.359 3548.31 626.269 3253.58 659.34C3033.54 684.067 2921.99 599.993 2782.72 462.465C2651.78 333.155 2479.97 229.313 2294.24 223.875C2111.34 218.532 1926.42 278.768 1766.22 383.761" stroke="#C61C1E" stroke-width="1.94932" stroke-miterlimit="10"/>
<path d="M6746.77 443.331C6667.72 387.067 6524.29 352.421 6389.54 374.902C6253.12 397.671 6116.67 454.455 5980.94 505.924C5741.46 596.751 5500.98 688.414 5258.96 722.868C5023.39 756.405 4783.11 740.185 4543.06 674.961C4400.17 636.123 4264.31 578.517 4119.17 556.666C3829.64 512.705 3536.46 616.793 3242.94 649.576C3024.24 674.057 2909.12 593.71 2768.15 459.825C2636.31 334.612 2466.14 231.688 2282.11 230.592C2101.37 229.51 1920.09 292.705 1761.45 397.657" stroke="#C61C1E" stroke-width="1.94932" stroke-miterlimit="10"/>
<path d="M6751.11 427.534C6667.39 378.257 6521.33 347.639 6384.66 373.996C6246.12 400.724 6107.3 459.741 5968.53 512.142C5727.92 602.997 5485.03 691.769 5242.07 720.689C5006.48 748.732 4768.15 725.456 4527.96 660.233C4385.58 621.559 4249.61 566.515 4104.87 546.116C3816.38 505.073 3524.58 607.339 3232.28 639.835C3014.92 664.055 2896.27 587.434 2753.58 457.207C2620.84 336.09 2452.29 234.084 2269.96 237.317C2091.4 240.482 1913.72 306.664 1756.67 411.56" stroke="#C61C1E" stroke-width="1.94932" stroke-miterlimit="10"/>
<path d="M6755.44 411.724C6667.07 369.447 6518.36 342.843 6379.79 373.077C6239.12 403.764 6097.95 465.015 5956.12 518.347C5714.39 609.229 5469.09 695.124 5225.2 718.496C4989.61 741.086 4753.22 710.728 4512.88 645.505C4370.99 606.982 4234.92 554.499 4090.59 535.567C3803.14 497.441 3512.74 597.872 3221.65 630.093C3005.64 654.053 2883.48 581.145 2739.02 454.589C2605.42 337.541 2438.45 236.466 2257.82 244.056C2081.44 251.454 1907.38 320.622 1751.9 425.492" stroke="#C61C1E" stroke-width="1.94932" stroke-miterlimit="10"/>
<path d="M6759.78 395.917C6666.75 360.627 6515.4 338.064 6374.91 372.162C6232.11 406.808 6088.58 470.305 5943.7 524.541C5700.85 615.465 5453.14 698.483 5208.3 716.306C4972.71 733.444 4738.28 695.99 4497.78 630.767C4356.4 592.395 4220.2 542.474 4076.3 525.007C3789.88 489.799 3500.87 588.408 3211 620.328C2996.33 644.028 2870.68 574.818 2724.45 451.948C2590.01 338.968 2424.63 238.811 2245.7 250.757C2071.5 262.388 1901.03 334.543 1747.15 439.372" stroke="#C61C1E" stroke-width="1.94932" stroke-miterlimit="10"/>
<path d="M6764.11 380.105C6666.42 351.815 6512.42 333.294 6370.02 371.241C6225.09 409.86 6079.21 475.59 5931.28 530.744C5687.31 621.708 5437.19 701.878 5191.4 714.111C4955.81 725.838 4723.3 681.26 4482.67 616.023C4341.79 577.815 4205.48 530.456 4062 514.455C3776.6 482.166 3488.99 578.939 3200.35 610.585C2987.02 634.024 2857.9 568.5 2709.88 449.314C2574.6 340.39 2410.79 241.151 2233.55 257.481C2061.54 273.317 1894.68 348.5 1742.37 453.287" stroke="#C61C1E" stroke-width="1.94932" stroke-miterlimit="10"/>
<path d="M6768.45 364.312C6666.1 343.023 6509.46 328.529 6365.14 370.34C6218.09 412.932 6069.85 480.895 5918.86 536.953C5673.78 627.972 5421.26 705.306 5174.52 711.922C4938.94 718.238 4708.37 666.522 4467.6 601.285C4327.22 563.228 4190.79 518.431 4047.72 503.896C3763.36 474.524 3477.14 569.475 3189.71 600.82C2977.73 623.999 2845.14 562.146 2695.33 446.673C2559.23 341.79 2396.98 243.469 2221.42 264.183C2051.6 284.225 1888.33 362.422 1737.61 467.168" stroke="#C61C1E" stroke-width="1.94932" stroke-miterlimit="10"/>
<path d="M6772.78 348.501C6665.78 334.199 6506.49 323.76 6360.26 369.42C6211.09 415.998 6060.49 486.181 5906.46 543.157C5660.25 634.231 5405.34 708.742 5157.63 709.729C4922.07 710.674 4693.41 651.793 4452.5 586.543C4312.62 548.637 4176.08 506.415 4033.44 493.332C3750.11 466.878 3465.28 560.007 3179.07 591.064C2968.43 613.983 2832.42 555.788 2680.75 444.041C2543.87 343.186 2383.16 245.782 2209.27 270.907C2041.65 295.128 1881.96 376.366 1732.83 481.071" stroke="#C61C1E" stroke-width="1.94932" stroke-miterlimit="10"/>
<path d="M6777.12 332.694C6665.46 325.392 6503.53 318.995 6355.39 368.491C6204.09 419.042 6051.13 491.457 5894.04 549.351C5646.73 640.494 5389.41 712.197 5140.75 707.539C4905.2 703.128 4678.48 637.069 4437.42 571.818C4298.04 534.076 4161.39 494.403 4019.16 482.786C3736.86 459.25 3453.43 550.543 3168.44 581.312C2959.14 603.971 2819.7 549.42 2666.2 441.413C2528.55 344.558 2369.35 248.086 2197.16 277.636C2031.71 306.021 1875.65 390.328 1728.09 494.992" stroke="#C61C1E" stroke-width="1.94932" stroke-miterlimit="10"/>
<path d="M6781.45 316.884C6665.13 316.568 6500.56 314.226 6350.49 367.572C6197.07 422.109 6041.76 496.758 5881.62 555.542C5633.19 646.739 5373.47 715.661 5123.84 705.332C4888.29 695.578 4663.51 622.313 4422.31 557.063C4283.42 519.471 4146.66 482.373 4004.86 472.222C3723.59 451.59 3441.55 541.075 3157.78 571.557C2949.82 593.955 2806.99 543.021 2651.62 438.781C2513.2 345.913 2355.51 250.373 2185.01 284.347C2021.75 316.884 1869.27 404.259 1723.29 508.882" stroke="#C61C1E" stroke-width="1.94932" stroke-miterlimit="10"/>
<path d="M6785.8 301.088C6664.81 307.773 6497.62 309.486 6345.62 366.667C6190.09 425.191 6032.41 502.073 5869.21 561.761C5619.68 653.027 5357.55 719.182 5106.97 703.154C4871.44 688.084 4648.58 607.6 4407.23 542.335C4268.85 504.895 4131.97 470.358 3990.58 461.673C3710.34 443.96 3429.69 531.609 3147.13 561.802C2940.53 583.941 2794.3 536.595 2637.04 436.137C2497.88 347.228 2341.67 252.619 2172.85 291.06C2011.79 327.733 1862.91 418.191 1718.51 522.786" stroke="#C61C1E" stroke-width="1.94932" stroke-miterlimit="10"/>
<path d="M6790.13 285.281C6664.47 298.953 6494.64 304.721 6340.73 365.752C6183.08 428.263 6023.04 507.377 5856.78 567.97C5606.14 659.318 5341.6 722.719 5090.06 700.964C4854.54 680.593 4633.61 592.862 4392.12 527.597C4254.23 490.321 4117.24 458.347 3976.27 451.113C3697.06 436.318 3417.81 522.145 3136.46 552.051C2931.21 573.929 2781.61 530.159 2622.46 433.509C2482.56 348.545 2327.83 254.868 2160.71 297.775C2001.82 338.572 1856.55 432.139 1713.73 536.68" stroke="#C61C1E" stroke-width="1.94932" stroke-miterlimit="10"/>
<path d="M6794.47 269.471C6664.16 290.143 6491.69 299.966 6335.86 364.833C6176.1 431.344 6013.83 513.02 5844.38 574.161C5592.8 666.084 5325.68 726.252 5073.2 698.757C4837.68 673.112 4618.68 578.12 4377.05 512.855C4239.67 475.73 4102.55 446.317 3962.01 440.55C3683.82 428.672 3405.97 512.677 3125.85 542.296C2921.93 563.913 2768.97 523.692 2607.92 430.878C2467.31 349.845 2314.03 257.1 2148.59 304.5C1991.89 349.393 1850.23 446.084 1708.99 550.584" stroke="#C61C1E" stroke-width="1.94932" stroke-miterlimit="10"/>
<path d="M6798.81 253.66C6663.84 281.319 6488.87 295.498 6330.99 363.913C6169.24 434.712 6004.47 518.306 5831.97 580.365C5579.28 672.343 5309.73 729.826 5056.3 696.577C4820.78 665.671 4603.73 563.391 4361.95 498.127C4225.06 461.152 4087.84 434.315 3947.7 430.013C3670.56 421.054 3394.09 503.223 3115.19 532.554C2912.61 553.911 2756.32 517.21 2593.35 428.26C2452.02 351.132 2300.18 259.332 2136.44 311.225C1981.91 360.215 1843.86 460.029 1704.21 564.501" stroke="#C61C1E" stroke-width="1.94932" stroke-miterlimit="10"/>
<path d="M6803.15 237.863C6663.52 272.523 6485.92 290.743 6326.1 363.008C6162.23 437.78 5995.11 523.62 5819.55 586.57C5565.74 678.603 5293.78 733.414 5039.42 694.384C4803.89 658.245 4588.78 548.663 4346.87 483.385C4210.49 446.561 4073.14 422.286 3933.44 419.45C3657.32 413.408 3382.25 493.756 3104.56 522.798C2903.33 543.896 2743.71 510.674 2578.79 425.628C2436.77 352.363 2286.34 261.536 2124.33 317.95C1971.96 371.008 1837.54 473.974 1699.46 578.405" stroke="#C61C1E" stroke-width="1.94932" stroke-miterlimit="10"/>
<path d="M6807.49 222.057C6663.21 263.703 6482.96 285.965 6321.23 362.093C6155.24 440.851 5985.75 528.911 5807.14 592.778C5552.22 684.866 5277.82 737.019 5022.53 692.195C4786.98 650.836 4573.83 533.939 4331.78 468.647C4195.89 431.987 4058.44 410.274 3919.15 408.89C3644.06 405.766 3370.39 484.278 3093.92 513.033C2894.03 533.87 2731.08 504.115 2564.23 422.973C2421.51 353.571 2272.47 263.689 2112.19 324.652C1961.96 381.779 1831.17 487.908 1694.68 592.298" stroke="#C61C1E" stroke-width="1.94932" stroke-miterlimit="10"/>
<path d="M6811.81 206.246C6662.87 254.893 6480 281.196 6316.34 361.173C6148.24 443.904 5976.39 534.211 5794.72 598.982C5538.68 691.125 5261.84 740.649 5005.65 690.002C4770.07 643.437 4558.89 519.197 4316.69 453.905C4181.31 417.396 4043.74 398.244 3904.87 398.326C3630.81 398.121 3358.53 474.81 3083.28 503.278C2884.74 523.854 2718.47 497.524 2549.67 420.341C2406.27 354.762 2258.62 265.866 2100.06 331.363C1951.99 392.531 1824.84 501.839 1689.94 606.188" stroke="#C61C1E" stroke-width="1.94932" stroke-miterlimit="10"/>
<path d="M6816.16 190.436C6662.56 246.069 6477.05 276.413 6311.47 360.254C6141.26 446.958 5967.04 539.498 5782.32 605.173C5525.16 697.357 5245.87 744.291 4988.76 687.795C4753.15 636.038 4543.94 504.455 4301.6 439.163C4166.71 402.805 4029.03 386.215 3890.57 387.763C3617.56 390.462 3346.66 465.343 3072.63 493.509C2875.43 513.825 2705.84 490.892 2535.09 417.696C2391 355.911 2244.72 268.002 2087.9 338.075C1941.96 403.27 1818.47 515.77 1685.14 620.092" stroke="#C61C1E" stroke-width="1.94932" stroke-miterlimit="10"/>
<path d="M6820.48 174.643C6662.21 237.277 6474.08 271.662 6306.57 359.352C6134.25 450.029 5957.66 544.816 5769.88 611.395C5511.61 703.634 5229.86 747.965 4971.86 685.633C4736.2 628.698 4528.99 489.744 4286.49 424.452C4152.11 388.258 4014.31 374.23 3876.28 377.244C3604.29 382.861 3334.79 455.906 3061.98 483.798C2866.12 503.854 2693.23 484.292 2520.52 415.109C2375.75 357.106 2230.82 270.196 2075.77 344.831C1931.95 414.054 1812.12 529.76 1680.38 634.027" stroke="#C61C1E" stroke-width="1.94932" stroke-miterlimit="10"/>
<path d="M6824.83 158.834C6661.9 228.455 6471.13 266.882 6301.7 358.435C6127.25 453.085 5948.31 550.104 5757.47 617.588C5498.09 709.881 5213.86 751.637 4954.97 683.427C4719.26 621.328 4514.03 475.004 4271.4 409.699C4137.51 373.655 3999.6 362.189 3861.99 366.669C3591.03 375.203 3322.93 446.427 3051.32 474.031C2856.8 493.827 2680.6 477.593 2505.95 412.452C2360.48 358.202 2216.9 272.307 2063.62 351.531C1921.91 424.768 1805.77 543.679 1675.59 647.905" stroke="#C61C1E" stroke-width="1.94932" stroke-miterlimit="10"/>
<path d="M6829.16 143.023C6661.57 219.645 6468.16 262.113 6296.83 357.502C6120.27 456.125 5938.95 555.391 5745.05 623.779C5484.54 716.127 5197.84 755.307 4938.07 681.221C4702.29 613.97 4499.07 460.248 4256.29 394.943C4122.91 359.05 3984.88 350.159 3847.69 356.091C3577.77 367.544 3311.05 436.932 3040.67 464.248C2847.49 483.798 2667.99 470.852 2491.37 409.793C2345.21 359.269 2202.97 274.401 2051.47 358.215C1911.86 435.466 1799.4 557.583 1670.82 661.781" stroke="#C61C1E" stroke-width="1.94932" stroke-miterlimit="10"/>
<path d="M6833.5 127.215C6661.25 210.823 6465.21 257.332 6291.94 356.585C6113.26 459.18 5929.59 560.693 5732.63 629.985C5471.01 722.388 5181.81 759.02 4921.19 679.029C4685.32 606.641 4484.13 445.522 4241.2 380.217C4108.32 344.488 3970.18 338.145 3833.39 345.543C3564.5 359.914 3299.2 427.48 3030.02 454.509C2838.18 473.798 2655.36 464.126 2476.79 407.177C2329.95 360.352 2189.02 276.525 2039.33 364.955C1901.8 446.207 1793.05 571.557 1666.04 675.7" stroke="#C61C1E" stroke-width="1.94932" stroke-miterlimit="10"/>
<path d="M6837.84 111.418C6660.94 202.026 6462.27 252.577 6287.06 355.679C6106.27 462.261 5920.23 565.994 5720.22 636.19C5457.48 728.647 5165.58 763.252 4904.29 676.85C4668.18 599.79 4469.17 430.807 4226.12 365.488C4093.74 329.911 3955.48 326.143 3819.12 335.007C3551.25 352.296 3287.35 418.039 3019.39 444.767C2828.89 463.796 2642.76 457.343 2462.24 404.559C2314.7 361.406 2175.07 278.647 2027.2 371.694C1891.74 456.932 1786.71 585.515 1661.29 689.631" stroke="#C61C1E" stroke-width="1.94932" stroke-miterlimit="10"/>
<path d="M6842.17 95.6094C6660.61 193.218 6459.29 247.797 6282.17 354.762C6099.26 465.317 5910.86 571.296 5707.8 642.396C5443.95 734.908 5149.6 766.732 4887.4 674.658C4651.25 592.256 4454.23 416.067 4211.02 350.748C4079.14 315.321 3940.77 314.116 3804.83 324.445C3537.99 344.652 3275.48 408.56 3008.74 435.014C2819.59 453.782 2630.13 450.535 2447.68 401.929C2299.43 362.434 2160.98 280.566 2015.07 378.407C1881.54 467.468 1780.37 599.448 1656.52 703.523" stroke="#C61C1E" stroke-width="1.94932" stroke-miterlimit="10"/>
<path d="M6846.51 79.8008C6660.3 184.396 6456.35 243.03 6277.31 353.845C6092.29 468.372 5901.52 576.585 5695.4 648.603C5430.43 741.17 5133.64 770.226 4870.53 672.467C4634.34 584.708 4439.28 401.341 4195.94 336.008C4064.56 300.746 3926.07 302.102 3790.56 313.884C3524.76 337.008 3263.64 399.094 2998.11 425.247C2810.31 443.755 2617.52 443.672 2433.12 399.272C2284.15 363.407 2147.12 282.813 2002.93 385.107C1871.55 478.318 1774.01 613.381 1651.76 717.401" stroke="#C61C1E" stroke-width="1.94932" stroke-miterlimit="10"/>
</g>
</svg>
