<svg width="5657" height="2309" viewBox="0 0 5657 2309" fill="none" xmlns="http://www.w3.org/2000/svg">
<g clip-path="url(#clip0_53995_45669)">
<g opacity="0.4">
<path d="M6084.82 2492.24C6136.7 2406.12 6131.16 2294.65 6093.27 2201.52C6055.38 2108.4 5988.97 2030.05 5921.38 1955.63C5832.03 1857.22 5735.82 1760.45 5615.39 1704.21C5447.54 1625.84 5252.64 1635.16 5069.38 1662.17C4743.97 1710.14 4427.83 1808.41 4120.38 1925.3C3790.81 2050.6 3454.75 2200.36 3102.74 2180.33C2786.85 2162.36 2571.36 2007.86 2343.27 1808.75C2130.55 1623.05 1954.59 1383.48 1690.61 1261.98C1344.23 1102.56 917.879 1184.55 609.669 1409.06C301.459 1633.56 100.805 1981.31 -13.9102 2344.96" stroke="#C61C1E" stroke-width="1.99744" stroke-miterlimit="10"/>
<path d="M6114.77 2454.11C6161.91 2379.76 6148.12 2280.2 6104.08 2192.85C6060.17 2105.74 5991.26 2029.43 5920.47 1959.4C5827.28 1867.2 5728.32 1774.17 5604.72 1721.53C5429.06 1646.7 5225.53 1653.68 5035.32 1677.19C4711.17 1717.24 4396.88 1809.65 4091.97 1919.3C3767.63 2035.93 3438.17 2180.06 3092.21 2157.85C2776.63 2137.59 2556.97 1988.23 2326.57 1799.55C2111.01 1623.85 1931.86 1400.35 1670.2 1289.33C1328.02 1144.14 910.612 1230.19 603.426 1450.75C294.963 1671.78 89.2138 2004.04 -32.4082 2358.35" stroke="#C61C1E" stroke-width="1.99744" stroke-miterlimit="10"/>
<path d="M6144.72 2415.99C6187.11 2353.39 6165.27 2266.01 6114.9 2184.19C6065.12 2103.31 5993.62 2028.83 5919.57 1963.21C5822.58 1877.24 5720.74 1788 5594.06 1738.87C5410.45 1667.66 5198.54 1672.3 5001.27 1692.21C4678.56 1724.76 4366.02 1810.88 4063.58 1913.29C3744.54 2021.32 3421.59 2159.7 3081.71 2135.36C2766.44 2112.78 2543 1968.06 2309.88 1790.36C2091.89 1624.18 1909.27 1417.25 1649.81 1316.67C1311.97 1185.72 903.363 1275.82 597.203 1492.45C288.473 1710.02 77.6281 2026.77 -50.9004 2371.76" stroke="#C61C1E" stroke-width="1.99744" stroke-miterlimit="10"/>
<path d="M6174.65 2377.86C6212.3 2327.03 6182.62 2252.06 6125.69 2175.51C6070.29 2101.03 5995.98 2028.24 5918.65 1967C5817.97 1887.26 5713.08 1801.9 5583.4 1756.19C5391.74 1688.66 5171.65 1691.02 4967.2 1707.22C4646.07 1732.65 4335.22 1812.12 4035.19 1907.27C3721.52 2006.74 3405 2139.29 3071.2 2112.87C2756.22 2087.94 2528.8 1948.17 2293.19 1781.15C2072.53 1624.73 1886.8 1434.13 1629.42 1344.01C1296.04 1227.25 896.111 1321.46 590.975 1534.13C281.993 1748.22 66.0522 2049.47 -69.3828 2385.12" stroke="#C61C1E" stroke-width="1.99744" stroke-miterlimit="10"/>
<path d="M6204.59 2339.74C6237.51 2300.67 6200.28 2238.26 6136.5 2166.83C6075.76 2098.82 5998.44 2027.65 5917.74 1970.79C5813.42 1897.28 5705.36 1815.87 5572.73 1773.53C5372.95 1709.76 5144.84 1709.85 4933.15 1722.24C4613.7 1740.92 4304.5 1813.4 4006.79 1901.24C3698.58 1992.19 3388.41 2118.81 3060.69 2090.37C2745.99 2063.07 2514.55 1928.25 2276.5 1771.94C2053.15 1625.28 1864.44 1451.01 1609.03 1371.32C1280.27 1268.75 888.855 1367.07 584.744 1575.79C275.509 1786.44 54.4724 2072.18 -87.8691 2398.51" stroke="#C61C1E" stroke-width="1.99744" stroke-miterlimit="10"/>
<path d="M6234.54 2301.61C6262.71 2274.32 6218.24 2224.54 6147.31 2158.17C6081.56 2096.65 6000.95 2027.06 5916.82 1974.57C5808.97 1907.28 5697.6 1829.9 5562.08 1790.85C5354.1 1730.92 5118.1 1728.79 4899.1 1737.24C4581.41 1749.51 4273.87 1814.67 3978.4 1895.22C3675.72 1977.73 3371.8 2098.27 3050.17 2067.88C2735.74 2038.18 2500.29 1908.36 2259.81 1762.75C2033.74 1625.85 1842.21 1467.89 1588.65 1398.67C1264.64 1310.22 882.062 1413.38 578.526 1617.5C269.474 1825.33 42.8926 2094.89 -106.355 2411.89" stroke="#C61C1E" stroke-width="1.99744" stroke-miterlimit="10"/>
<path d="M6264.48 2263.48C6287.91 2247.96 6236.52 2210.83 6158.12 2149.5C6087.66 2094.39 6003.52 2026.45 5915.91 1978.37C5804.58 1917.26 5689.79 1844.01 5551.41 1808.19C5335.17 1752.21 5091.41 1747.85 4865.04 1752.28C4549.18 1758.44 4243.33 1816.02 3950 1889.23C3652.93 1963.36 3355.21 2077.71 3039.66 2045.42C2725.5 2013.28 2485.99 1888.5 2243.12 1753.57C2014.29 1626.44 1820.11 1484.75 1568.25 1426.03C1249.16 1351.63 874.874 1459.14 572.293 1659.21C263.058 1863.67 31.3108 2117.61 -124.844 2425.28" stroke="#C61C1E" stroke-width="1.99744" stroke-miterlimit="10"/>
<path d="M6294.43 2225.36C6313.11 2221.6 6255.1 2197.03 6168.93 2140.84C6094.06 2092 6006.14 2025.83 5915.01 1982.17C5800.26 1927.21 5681.97 1858.21 5540.75 1825.53C5316.22 1773.57 5064.77 1767.04 4830.98 1767.3C4517.01 1767.63 4212.86 1817.4 3921.59 1883.22C3630.21 1949.06 3338.6 2057.08 3029.14 2022.94C2715.24 1988.31 2471.66 1868.62 2226.42 1744.37C1994.83 1627.03 1798.13 1501.55 1547.84 1453.37C1233.84 1392.93 867.665 1504.89 566.052 1700.91C256.621 1902.02 19.7076 2140.35 -143.354 2438.69" stroke="#C61C1E" stroke-width="1.99744" stroke-miterlimit="10"/>
<path d="M6324.37 2187.23C6338.31 2195.23 6273.9 2183.06 6179.74 2132.16C6100.66 2089.43 6008.8 2025.14 5914.09 1985.95C5796 1937.08 5674.1 1872.42 5530.09 1842.83C5297.21 1794.99 5038.17 1786.33 4796.93 1782.29C4484.9 1777.07 4182.48 1818.8 3893.22 1877.17C3607.61 1934.81 3322.01 2036.34 3018.66 2000.42C2705.02 1963.28 2457.34 1848.73 2209.77 1735.14C1975.37 1627.59 1776.34 1518.24 1527.5 1480.66C1218.71 1434.04 860.502 1550.57 559.872 1742.55C250.202 1940.31 8.15115 2163.05 -161.816 2452.05" stroke="#C61C1E" stroke-width="1.99744" stroke-miterlimit="10"/>
<path d="M6354.31 2149.11C6363.52 2168.89 6292.89 2168.87 6190.54 2123.5C6107.44 2086.67 6011.51 2024.44 5913.17 1989.75C5791.78 1946.92 5666.21 1886.74 5519.42 1860.18C5278.17 1816.54 5011.58 1805.79 4762.86 1797.32C4452.79 1786.77 4152.17 1820.3 3864.81 1871.18C3585.05 1920.7 3305.38 2015.6 3008.13 1977.95C2694.74 1938.25 2442.95 1828.91 2193.06 1725.96C1955.84 1628.21 1754.63 1534.91 1507.09 1508.02C1203.68 1475.08 853.271 1596.31 553.61 1784.27C243.758 1978.62 -3.44467 2185.76 -180.305 2465.45" stroke="#C61C1E" stroke-width="1.99744" stroke-miterlimit="10"/>
<path d="M6384.26 2110.98C6388.73 2142.52 6312.01 2154.43 6201.37 2114.83C6114.33 2083.68 6014.25 2023.68 5912.28 1993.54C5787.62 1956.69 5658.33 1901.09 5508.76 1877.51C5259.12 1838.14 4985.02 1825.36 4728.82 1812.33C4420.71 1796.66 4121.97 1821.85 3836.42 1865.15C3562.59 1906.69 3288.78 1994.78 2997.63 1955.46C2684.48 1913.18 2428.56 1809.09 2176.37 1716.75C1936.3 1628.84 1733.04 1551.43 1486.69 1535.35C1188.8 1515.91 846.054 1642.01 547.375 1825.95C237.298 2016.9 -15.028 2208.46 -198.809 2478.81" stroke="#C61C1E" stroke-width="1.99744" stroke-miterlimit="10"/>
<path d="M6414.21 2072.85C6413.93 2116.16 6331.19 2139.73 6212.18 2106.16C6121.26 2080.52 6017.02 2022.88 5911.37 1997.33C5783.47 1966.41 5650.42 1915.49 5498.12 1894.84C5240.06 1859.85 4958.48 1845.08 4694.77 1827.36C4388.62 1806.78 4091.84 1823.5 3808.03 1859.16C3540.19 1892.81 3272.18 1973.92 2987.12 1933C2674.21 1888.08 2414.13 1789.32 2159.69 1707.58C1916.75 1629.53 1711.58 1567.86 1466.31 1562.73C1174.06 1556.61 838.844 1687.75 541.162 1867.67C230.86 2055.22 -26.5902 2231.2 -217.277 2492.23" stroke="#C61C1E" stroke-width="1.99744" stroke-miterlimit="10"/>
<path d="M6444.15 2034.73C6439.13 2089.8 6350.38 2124.79 6222.99 2097.49C6128.18 2077.18 6019.78 2022.02 5910.45 2001.12C5779.34 1976.05 5642.52 1929.95 5487.45 1912.16C5220.97 1881.62 4931.92 1864.93 4660.71 1842.37C4356.55 1817.06 4061.78 1825.23 3779.64 1853.13C3517.85 1879.02 3255.59 1952.97 2976.62 1910.49C2663.94 1862.88 2399.7 1769.54 2143.01 1698.36C1897.18 1630.19 1690.21 1584.09 1445.93 1590.03C1159.42 1597 831.613 1733.41 534.942 1909.33C224.402 2093.49 -38.172 2253.89 -235.766 2505.6" stroke="#C61C1E" stroke-width="1.99744" stroke-miterlimit="10"/>
<path d="M6474.09 1996.6C6464.32 2063.43 6369.54 2109.63 6233.8 2088.83C6135.07 2073.7 6022.55 2021.12 5909.56 2004.93C5775.23 1985.65 5634.62 1944.45 5476.79 1929.52C5201.89 1903.49 4905.36 1884.95 4626.66 1857.4C4324.46 1827.55 4031.8 1827.08 3751.24 1847.13C3495.59 1865.41 3239 1931.99 2966.11 1888.02C2653.67 1837.67 2385.23 1749.82 2126.32 1689.18C1877.59 1630.92 1668.9 1600.19 1425.53 1617.39C1144.85 1637.22 824.371 1779.1 528.711 1951.03C217.918 2131.77 -49.7518 2276.61 -254.252 2518.98" stroke="#C61C1E" stroke-width="1.99744" stroke-miterlimit="10"/>
<path d="M6504.04 1958.47C6489.54 2037.09 6388.63 2094.27 6244.61 2080.15C6141.91 2070.09 6025.33 2020.17 5908.65 2008.7C5771.11 1995.18 5626.7 1958.97 5466.14 1946.82C5182.82 1925.39 4878.79 1905.06 4592.62 1872.4C4292.35 1838.13 4001.89 1829.02 3722.86 1841.09C3473.39 1851.89 3222.42 1910.92 2955.61 1865.5C2643.42 1812.37 2370.77 1730.1 2109.64 1679.94C1857.99 1631.62 1647.65 1616.04 1405.17 1644.69C1130.35 1677.16 817.144 1824.74 522.508 1992.7C211.477 2169.99 -61.3164 2299.31 -272.709 2532.35" stroke="#C61C1E" stroke-width="1.99744" stroke-miterlimit="10"/>
<path d="M6533.98 1920.35C6514.73 2010.72 6407.65 2078.75 6255.42 2071.49C6148.69 2066.4 6028.09 2019.19 5907.73 2012.51C5766.96 2004.69 5618.8 1973.55 5455.47 1964.16C5163.72 1947.4 4852.17 1925.35 4558.55 1887.42C4260.21 1848.88 3972 1831.13 3694.45 1835.08C3451.19 1838.55 3205.81 1889.82 2945.08 1843.03C2633.13 1787.05 2356.27 1710.43 2092.94 1670.76C1838.37 1632.41 1626.4 1631.75 1384.75 1672.05C1115.82 1716.89 809.871 1870.42 516.26 2034.4C204.961 2208.26 -72.9134 2322.04 -291.227 2545.75" stroke="#C61C1E" stroke-width="1.99744" stroke-miterlimit="10"/>
<path d="M6563.92 1882.22C6539.93 1984.36 6426.6 2063.1 6266.22 2062.82C6155.38 2062.62 6030.86 2018.16 5906.82 2016.3C5762.82 2014.14 5610.89 1988.15 5444.81 1981.5C5144.66 1969.47 4825.56 1945.79 4524.49 1902.45C4228.05 1859.78 3942.17 1833.4 3666.05 1829.09C3429.05 1825.39 3189.22 1868.68 2934.56 1820.57C2622.88 1761.68 2341.78 1690.82 2076.25 1661.59C1818.75 1633.24 1605.14 1647.28 1364.36 1699.41C1101.29 1756.39 802.612 1916.1 510.026 2076.13C198.475 2246.51 -84.4956 2344.76 -309.701 2559.15" stroke="#C61C1E" stroke-width="1.99744" stroke-miterlimit="10"/>
<path d="M6593.87 1844.1C6565.13 1958 6445.46 2047.33 6277.04 2054.16C6162.03 2058.82 6033.6 2017.1 5905.91 2020.09C5758.66 2023.54 5602.99 2002.78 5434.15 1998.82C5125.59 1991.58 4798.89 1966.35 4490.44 1917.46C4195.86 1870.75 3912.37 1835.82 3637.67 1823.05C3406.95 1812.34 3172.67 1847.44 2924.07 1798.05C2612.66 1736.2 2327.31 1671.2 2059.57 1652.36C1799.15 1634.04 1583.87 1662.49 1343.99 1726.71C1086.75 1795.58 795.373 1961.69 503.826 2117.77C191.994 2284.72 -96.0578 2367.45 -328.17 2572.51" stroke="#C61C1E" stroke-width="1.99744" stroke-miterlimit="10"/>
<path d="M6623.81 1805.97C6590.33 1931.65 6464.23 2031.48 6287.85 2045.48C6168.6 2054.94 6036.32 2015.99 5905 2023.88C5754.47 2032.92 5595.09 2017.45 5423.48 2016.15C5106.52 2013.77 4772.18 1987.08 4456.37 1932.48C4163.63 1881.86 3882.55 1838.42 3609.26 1817.05C3384.82 1799.48 3156.09 1826.16 2913.55 1775.58C2602.41 1710.68 2312.83 1651.63 2042.87 1643.18C1779.52 1634.92 1562.47 1677.57 1323.58 1754.07C1072.07 1834.62 788.072 2007.34 497.578 2159.48C185.465 2322.95 -107.655 2390.19 -346.688 2585.91" stroke="#C61C1E" stroke-width="1.99744" stroke-miterlimit="10"/>
<path d="M6653.77 1767.85C6615.56 1905.29 6482.93 2015.58 6298.67 2036.82C6175.11 2051.07 6039.05 2014.88 5904.1 2027.68C5750.28 2042.28 5587.23 2032.15 5412.84 2033.49C5087.51 2036.02 4745.45 2007.96 4422.35 1947.5C4131.4 1893.06 3852.8 1841.25 3580.89 1811.04C3362.73 1786.81 3139.57 1804.83 2903.07 1753.09C2592.22 1685.09 2298.38 1632.09 2026.21 1633.97C1759.94 1635.81 1541.01 1692.41 1303.21 1781.41C1057.33 1873.44 780.817 2052.95 491.375 2201.17C178.982 2361.15 -119.219 2412.9 -365.145 2599.31" stroke="#C61C1E" stroke-width="1.99744" stroke-miterlimit="10"/>
<path d="M6683.7 1729.72C6640.74 1878.92 6501.52 1999.62 6309.47 2028.14C6181.54 2047.15 6041.73 2013.71 5903.18 2031.47C5746.04 2051.6 5579.33 2046.84 5402.16 2050.83C5068.46 2058.31 4718.64 2028.97 4388.26 1962.52C4099.08 1904.34 3822.94 1844.26 3552.46 1805.03C3340.57 1774.29 3123 1783.44 2892.53 1730.61C2581.99 1659.43 2283.88 1612.59 2009.49 1624.78C1740.32 1636.74 1519.37 1707.07 1282.8 1808.75C1042.41 1912.08 773.52 2098.55 485.117 2242.86C172.429 2399.34 -130.826 2435.61 -383.672 2612.68" stroke="#C61C1E" stroke-width="1.99744" stroke-miterlimit="10"/>
<path d="M6713.65 1691.59C6665.95 1852.56 6520.06 1983.63 6320.29 2019.48C6187.94 2043.23 6044.4 2012.56 5902.27 2035.26C5741.8 2060.91 5571.48 2061.57 5391.5 2068.15C5049.45 2080.64 4691.8 2050.13 4354.22 1977.54C4066.74 1915.72 3793.06 1847.51 3524.09 1799.02C3318.41 1761.93 3106.5 1762 2882.04 1708.14C2571.83 1633.7 2269.46 1593.1 1992.82 1615.59C1720.76 1637.71 1497.6 1721.56 1262.43 1836.09C1027.37 1950.59 766.244 2144.15 478.908 2284.57C165.925 2437.52 -142.384 2458.34 -402.136 2626.09" stroke="#C61C1E" stroke-width="1.99744" stroke-miterlimit="10"/>
<path d="M6743.58 1653.46C6691.14 1826.2 6538.52 1967.61 6331.09 2010.81C6194.26 2039.3 6047.04 2011.37 5901.35 2039.05C5737.52 2070.19 5563.61 2076.32 5380.84 2085.47C5030.46 2103.03 4664.88 2071.43 4320.16 1992.54C4034.35 1927.14 3763.1 1850.97 3495.68 1792.98C3296.17 1749.72 3089.98 1740.48 2871.51 1685.62C2561.66 1607.83 2255.01 1573.62 1976.12 1606.37C1701.18 1638.65 1475.63 1735.87 1242.04 1863.41C1012.15 1988.94 758.951 2189.7 472.681 2326.23C159.39 2475.65 -153.972 2481.04 -420.617 2639.45" stroke="#C61C1E" stroke-width="1.99744" stroke-miterlimit="10"/>
<path d="M6773.53 1615.34C6716.34 1799.85 6556.94 1951.58 6341.88 2002.15C6200.54 2035.37 6049.66 2010.18 5900.43 2042.86C5733.2 2079.48 5555.75 2091.1 5370.16 2102.82C5011.45 2125.48 4637.9 2092.9 4286.09 2007.58C4001.89 1938.65 3733.02 1854.72 3467.27 1786.99C3273.83 1737.69 3073.49 1718.95 2860.99 1663.17C2551.53 1581.92 2240.58 1554.19 1959.42 1597.19C1681.62 1639.68 1453.45 1750.09 1221.63 1890.77C996.72 2027.26 751.637 2235.28 466.434 2367.95C152.834 2513.83 -165.568 2503.78 -439.133 2652.88" stroke="#C61C1E" stroke-width="1.99744" stroke-miterlimit="10"/>
<path d="M6803.48 1577.21C6741.56 1773.49 6575.31 1935.55 6352.7 1993.47C6206.81 2031.44 6052.28 2008.95 5899.54 2046.63C5728.91 2088.73 5547.92 2105.87 5359.53 2120.13C4992.53 2147.93 4610.88 2114.47 4252.05 2022.57C3969.44 1950.19 3702.83 1858.65 3438.9 1780.95C3251.44 1725.77 3057.05 1697.32 2850.5 1640.65C2541.46 1555.85 2226.2 1534.73 1942.75 1587.97C1662.1 1640.66 1431.12 1764.18 1201.26 1918.07C981.134 2065.45 744.347 2280.79 460.226 2409.6C146.316 2551.91 -177.139 2526.45 -457.597 2666.21" stroke="#C61C1E" stroke-width="1.99744" stroke-miterlimit="10"/>
<path d="M6833.41 1539.09C6766.75 1747.13 6593.61 1919.51 6363.5 1984.81C6213 2027.51 6054.86 2007.75 5898.62 2050.44C5724.55 2098 5540.08 2120.67 5348.85 2137.48C4973.57 2170.46 4583.77 2136.23 4217.99 2037.61C3936.9 1961.82 3672.45 1862.88 3410.5 1774.96C3228.93 1714.01 3040.6 1675.69 2839.99 1618.19C2531.41 1529.74 2211.82 1515.36 1926.07 1578.8C1642.59 1641.73 1408.56 1778.25 1180.88 1945.45C965.361 2103.71 737.053 2326.36 454.013 2451.34C139.781 2590.07 -188.7 2549.21 -476.078 2679.64" stroke="#C61C1E" stroke-width="1.99744" stroke-miterlimit="10"/>
<path d="M6863.35 1500.96C6791.94 1720.76 6611.88 1903.46 6374.31 1976.13C6219.19 2023.58 6057.44 2006.51 5897.71 2054.23C5720.2 2107.25 5532.26 2135.48 5338.18 2154.81C4954.63 2193 4556.59 2158.1 4183.92 2052.63C3904.31 1973.48 3641.86 1867.34 3382.09 1768.95C3206.24 1702.34 3024.18 1653.99 2829.46 1595.71C2521.39 1503.5 2197.44 1495.98 1909.35 1569.6C1623.07 1642.78 1385.77 1792.26 1160.46 1972.79C949.358 2141.93 729.712 2371.9 447.752 2493.03C133.197 2628.17 -200.309 2571.93 -494.594 2693.04" stroke="#C61C1E" stroke-width="1.99744" stroke-miterlimit="10"/>
<path d="M6893.31 1462.84C6817.15 1694.4 6630.13 1887.43 6385.13 1967.47C6225.35 2019.68 6060 2005.28 5896.8 2058.02C5715.83 2116.5 5524.47 2150.3 5327.54 2172.13C4935.74 2215.58 4529.36 2180.1 4149.89 2067.63C3871.71 1985.18 3611.08 1872 3353.72 1762.92C3183.46 1690.75 3007.8 1632.21 2818.97 1573.2C2511.48 1477.1 2183.12 1476.55 1892.68 1560.38C1603.62 1643.81 1362.85 1806.21 1140.08 2000.11C933.225 2180.16 722.408 2417.38 441.543 2534.69C126.665 2666.21 -211.88 2594.62 -513.058 2706.39" stroke="#C61C1E" stroke-width="1.99744" stroke-miterlimit="10"/>
<path d="M6923.25 1424.71C6842.36 1668.05 6648.34 1871.39 6395.94 1958.8C6231.49 2015.75 6062.56 2004.04 5895.9 2061.81C5711.44 2125.75 5516.67 2165.12 5316.87 2189.46C4916.86 2238.19 4502.02 2202.27 4115.83 2082.65C3839.01 1996.92 3580.03 1876.9 3325.31 1756.91C3160.48 1679.25 2991.43 1610.41 2808.46 1550.72C2501.58 1450.61 2168.81 1457.19 1876 1551.19C1584.17 1644.88 1339.73 1820.21 1119.71 2027.44C916.933 2218.44 714.89 2462.34 435.33 2576.38C119.877 2703.69 -223.441 2617.33 -531.539 2719.78" stroke="#C61C1E" stroke-width="1.99744" stroke-miterlimit="10"/>
<path d="M6953.2 1386.58C6867.57 1641.69 6666.52 1855.36 6406.75 1950.14C6237.6 2011.86 6065.09 2002.81 5894.98 2065.61C5707.02 2135 5508.88 2179.98 5306.2 2206.8C4897.98 2260.83 4474.6 2224.56 4081.77 2097.67C3806.27 2008.69 3548.68 1881.98 3296.91 1750.9C3137.32 1667.81 2975.1 1588.57 2797.95 1528.24C2491.77 1423.97 2154.69 1438.35 1859.31 1541.99C1564.91 1646.49 1316.43 1834.23 1099.31 2054.79C900.467 2256.78 707.632 2507.98 429.098 2618.08C113.392 2741.92 -235.036 2640.04 -550.026 2733.17" stroke="#C61C1E" stroke-width="1.99744" stroke-miterlimit="10"/>
<path d="M6983.14 1348.46C6892.77 1615.32 6684.67 1839.34 6417.56 1941.46C6243.68 2007.94 6067.49 2001.27 5894.07 2069.39C5702.47 2143.91 5501.16 2195.18 5295.55 2224.12C4879.24 2284.23 4447.12 2246.96 4047.72 2112.68C3773.49 2020.48 3517.05 1887.21 3268.53 1744.88C3114.01 1656.37 2958.83 1566.67 2787.45 1505.75C2482.05 1397.18 2140.33 1418.71 1842.63 1532.78C1545.43 1647.29 1293 1848.28 1078.93 2082.12C883.876 2295.18 700.39 2553.61 422.867 2659.77C106.908 2780.12 -246.616 2662.77 -568.513 2746.56" stroke="#C61C1E" stroke-width="1.99744" stroke-miterlimit="10"/>
<path d="M7013.08 1310.33C6917.96 1588.96 6702.8 1823.32 6428.37 1932.8C6249.76 2004.06 6070.12 2000.34 5893.16 2073.19C5698.15 2153.49 5493.33 2209.69 5284.88 2241.46C4860.29 2306.19 4419.53 2269.51 4013.66 2127.71C3740.65 2032.33 3485.1 1892.6 3240.13 1738.87C3090.47 1644.96 2942.59 1544.74 2776.93 1483.27C2472.4 1370.24 2125.97 1399.09 1825.94 1523.6C1525.92 1648.12 1269.43 1862.4 1058.55 2109.48C867.158 2333.69 693.147 2599.26 416.648 2701.47C100.422 2818.36 -258.183 2685.5 -587 2759.95" stroke="#C61C1E" stroke-width="1.99744" stroke-miterlimit="10"/>
<path d="M5745.28 2198.74C5712.3 1844.34 5550.71 1503.29 5297.33 1253.3C5225.25 1182.17 5142.52 1116.43 5044.23 1092.09C4760.21 1021.77 4489.89 1267.14 4272.19 1413.03C4009.45 1589.12 3750.58 1771.93 3474.04 1926.15C3318.78 2012.73 3134.09 2091.65 2968.61 2026.71C2801.05 1960.95 2720.82 1775.92 2637.92 1616.14C2541.31 1429.96 2416.53 1253.86 2247.21 1130.03C2077.9 1006.22 1859.36 939.526 1654.29 983.618C1493.69 1018.14 1354.16 1115.78 1228.45 1221.53C898.148 1499.37 629.314 1849.89 446.586 2240.93" stroke="#C61C1E" stroke-width="1.99744" stroke-miterlimit="10"/>
<path d="M5752.58 2182.53C5720.66 1839.55 5555.95 1516.82 5297.89 1266.88C5225.83 1197.1 5144.05 1132.09 5047.12 1107.39C4766.51 1035.67 4499.75 1269.03 4282.62 1409.87C4051.11 1560.03 3822.46 1717.97 3579.47 1858.12C3549.6 1875.41 3519.56 1892.43 3489.31 1909.1C3335.23 1994.07 3152.76 2071.81 2988.95 2010.4C2822.98 1948.24 2741.62 1770.75 2657.75 1617.64C2559.76 1439.34 2434.63 1270.73 2266.55 1152.41C2098.03 1034.25 1882 971.012 1679.16 1014.3C1541.31 1043.7 1418.83 1118.56 1307.16 1204.15C1289.86 1217.39 1272.94 1230.99 1256.08 1244.51C921.56 1512.72 653.75 1836.07 476.918 2214.49" stroke="#C61C1E" stroke-width="1.99744" stroke-miterlimit="10"/>
<path d="M5759.89 2166.32C5729.03 1834.78 5561.25 1530.34 5298.47 1280.49C5226.46 1212.02 5145.6 1147.79 5050.02 1122.7C4772.82 1049.58 4509.64 1270.95 4293.05 1406.74C4063.85 1550.43 3837.22 1704.28 3594.06 1842.12C3564.42 1859.06 3534.6 1875.74 3504.59 1892.11C3351.69 1975.46 3171.42 2052.02 3009.28 1994.13C2844.9 1935.59 2762.4 1765.63 2677.56 1619.2C2578.2 1448.78 2452.73 1287.64 2285.85 1174.84C2118.12 1062.33 1904.62 1002.55 1703.99 1045.06C1567.38 1073.96 1445.7 1146.43 1334.57 1228.77C1317.34 1241.5 1300.54 1254.68 1283.67 1267.56C944.756 1526.17 678.167 1822.32 507.217 2188.13" stroke="#C61C1E" stroke-width="1.99744" stroke-miterlimit="10"/>
<path d="M5767.18 2150.12C5737.39 1830 5566.6 1543.84 5299.04 1294.09C5227.1 1226.93 5147.14 1163.47 5052.92 1138.02C4779.13 1063.49 4519.57 1272.89 4303.49 1403.59C4076.63 1540.83 3851.64 1689.96 3608.66 1826.11C3579.19 1842.63 3549.65 1859.04 3519.87 1875.09C3368.15 1956.83 3190.1 2032.21 3029.64 1977.86C2866.86 1922.93 2783.5 1760.33 2697.39 1620.76C2597 1458 2471.15 1304.12 2305.2 1197.27C2138.53 1089.97 1927.26 1034.1 1728.88 1075.82C1593.5 1104.23 1472.64 1174.3 1362.01 1253.39C1344.84 1265.62 1328.18 1278.38 1311.3 1290.61C967.831 1539.62 702.618 1808.57 537.578 2161.77" stroke="#C61C1E" stroke-width="1.99744" stroke-miterlimit="10"/>
<path d="M5774.49 2133.9C5745.75 1825.23 5571.99 1557.32 5299.61 1307.68C5227.75 1241.81 5148.68 1179.13 5055.82 1153.32C4785.44 1077.37 4529.55 1274.8 4313.93 1400.44C4089.45 1531.22 3866.28 1676.05 3623.25 1810.1C3593.98 1826.24 3564.67 1842.34 3535.13 1858.06C3384.59 1938.2 3208.75 2012.39 3049.95 1961.56C2888.76 1910.24 2804.35 1755.11 2717.19 1622.27C2615.52 1467.33 2489.32 1320.86 2324.5 1219.65C2158.7 1117.84 1949.88 1065.58 1753.72 1106.5C1619.57 1134.42 1499.51 1202.11 1389.41 1277.94C1372.32 1289.67 1355.76 1301.99 1338.89 1313.6C990.674 1553.01 727.02 1794.77 567.875 2135.35" stroke="#C61C1E" stroke-width="1.99744" stroke-miterlimit="10"/>
<path d="M5781.78 2117.69C5754.12 1820.44 5577.41 1570.77 5300.18 1321.26C5228.42 1256.69 5150.22 1194.81 5058.72 1168.62C4791.75 1091.27 4539.57 1276.74 4324.37 1397.29C4102.32 1521.68 3880.96 1662.17 3637.85 1794.08C3608.79 1809.84 3579.72 1825.64 3550.42 1841.04C3401.06 1919.56 3227.43 1992.57 3070.3 1945.28C2910.7 1897.57 2825.24 1749.9 2737.02 1623.82C2634.07 1476.66 2507.49 1337.62 2343.83 1242.06C2178.89 1145.77 1972.51 1097.11 1778.58 1137.25C1645.67 1164.66 1526.4 1229.96 1416.83 1302.55C1399.78 1313.77 1383.35 1325.67 1366.49 1336.64C1013.34 1566.42 751.428 1781 598.18 2108.96" stroke="#C61C1E" stroke-width="1.99744" stroke-miterlimit="10"/>
<path d="M5789.08 2101.48C5762.48 1815.66 5582.88 1584.19 5300.74 1334.87C5229.09 1271.56 5151.75 1210.49 5061.61 1183.94C4798.05 1105.18 4549.6 1278.7 4334.8 1394.15C4115.22 1512.15 3895.62 1648.29 3652.43 1778.08C3623.58 1793.48 3594.75 1808.93 3565.69 1824.04C3417.51 1900.95 3246.1 1972.78 3090.63 1929.01C2932.62 1884.92 2846.09 1744.71 2756.83 1625.38C2652.59 1486.01 2525.64 1354.41 2363.14 1264.5C2199.04 1173.7 1995.13 1128.64 1803.42 1168C1671.76 1194.93 1553.3 1257.84 1444.24 1327.18C1427.27 1337.89 1410.93 1349.34 1394.1 1359.69C1035.86 1579.81 775.867 1767.25 628.5 2082.6" stroke="#C61C1E" stroke-width="1.99744" stroke-miterlimit="10"/>
<path d="M5796.38 2085.26C5770.85 1810.88 5588.41 1597.57 5301.32 1348.45C5229.81 1286.41 5153.23 1226.36 5064.52 1199.23C4804.2 1119.63 4559.71 1280.67 4345.26 1390.99C4128.21 1502.64 3910.33 1634.4 3667.04 1762.06C3638.41 1777.08 3609.81 1792.23 3580.99 1807.01C3433.99 1882.32 3264.78 1952.96 3111 1912.71C2954.58 1872.23 2866.98 1739.47 2776.69 1626.89C2671.16 1495.32 2543.84 1371.14 2382.5 1286.89C2219.23 1201.61 2017.8 1160.14 1828.32 1198.7C1697.9 1225.13 1580.38 1285.89 1471.7 1351.73C1454.8 1361.96 1438.54 1372.95 1421.74 1382.68C1058.22 1593.09 800.321 1753.44 658.85 2056.18" stroke="#C61C1E" stroke-width="1.99744" stroke-miterlimit="10"/>
<path d="M5803.68 2069.05C5779.21 1806.1 5593.97 1610.92 5301.88 1362.04C5230.51 1301.23 5154.76 1242.05 5067.4 1214.52C4810.47 1133.57 4569.83 1282.65 4355.68 1387.83C4141.19 1493.18 3925.01 1620.55 3681.62 1746.03C3653.2 1760.68 3624.84 1775.51 3596.25 1789.97C3450.43 1863.66 3283.43 1933.12 3131.31 1896.41C2976.49 1859.54 2887.8 1734.24 2796.48 1628.42C2689.64 1504.62 2561.96 1387.91 2401.8 1309.28C2239.36 1229.51 2040.4 1191.64 1853.15 1229.42C1723.97 1255.36 1607.26 1313.74 1499.1 1376.31C1482.27 1386.05 1466.08 1396.58 1449.33 1405.69C1080.34 1606.3 824.73 1739.66 689.154 2029.77" stroke="#C61C1E" stroke-width="1.99744" stroke-miterlimit="10"/>
<path d="M5810.98 2052.83C5787.57 1801.32 5599.59 1624.22 5302.46 1375.63C5231.24 1316.06 5156.3 1257.74 5070.32 1229.82C4816.78 1147.52 4580.01 1284.65 4366.13 1384.67C4154.25 1483.75 3939.73 1606.68 3696.23 1730.01C3668.01 1744.3 3639.9 1758.8 3611.54 1772.94C3466.91 1845.02 3302.11 1913.3 3151.67 1880.12C2998.43 1846.86 2908.66 1729 2816.32 1629.95C2708.16 1513.93 2580.1 1404.68 2421.15 1331.68C2259.51 1257.45 2063.06 1223.16 1878.04 1260.13C1750.08 1285.57 1634.19 1341.6 1526.55 1400.89C1509.77 1410.12 1493.67 1420.19 1476.97 1428.69C1102.34 1619.41 849.175 1725.86 719.51 2003.37" stroke="#C61C1E" stroke-width="1.99744" stroke-miterlimit="10"/>
<path d="M5818.28 2036.64C5795.93 1796.55 5605.23 1637.52 5303.01 1389.25C5231.97 1330.89 5157.82 1273.45 5073.2 1245.15C4823.05 1161.49 4590.22 1286.73 4376.56 1381.54C4167.33 1474.4 3954.42 1592.86 3710.81 1714.01C3682.82 1727.93 3654.91 1742.11 3626.81 1755.94C3483.36 1826.42 3320.77 1893.52 3171.99 1863.86C3020.36 1834.21 2929.48 1723.79 2836.13 1631.51C2726.63 1523.27 2598.2 1421.49 2440.45 1354.11C2279.6 1285.41 2085.66 1254.7 1902.86 1290.89C1776.14 1315.83 1661.06 1369.5 1553.93 1425.51C1537.22 1434.24 1521.18 1443.84 1504.53 1451.76C1124.1 1632.48 873.567 1712.13 749.783 1977.02" stroke="#C61C1E" stroke-width="1.99744" stroke-miterlimit="10"/>
<path d="M5825.58 2020.42C5804.29 1791.76 5610.93 1650.75 5303.59 1402.84C5232.72 1345.67 5159.35 1289.14 5076.11 1260.45C4829.35 1175.43 4600.48 1288.81 4387 1378.38C4180.46 1465.05 3969.14 1579.04 3725.41 1697.99C3697.63 1711.55 3669.96 1725.41 3642.09 1738.91C3499.82 1807.78 3339.44 1873.7 3192.34 1847.56C3042.29 1821.52 2950.31 1718.56 2855.96 1633.04C2745.12 1532.56 2616.31 1438.28 2459.79 1376.51C2299.73 1313.35 2108.31 1286.2 1927.75 1321.61C1802.27 1346.07 1688 1397.36 1581.38 1450.1C1564.74 1458.33 1548.76 1467.46 1532.18 1474.78C1145.77 1645.35 898.033 1698.36 780.145 1950.63" stroke="#C61C1E" stroke-width="1.99744" stroke-miterlimit="10"/>
<path d="M5832.88 2004.21C5812.66 1786.99 5616.67 1663.94 5304.15 1416.43C5233.49 1360.46 5160.88 1304.83 5079 1275.76C4835.63 1189.35 4610.78 1290.93 4397.43 1375.24C4193.63 1455.79 3983.86 1565.24 3739.99 1681.99C3712.42 1695.19 3684.99 1708.72 3657.35 1721.9C3516.26 1789.15 3358.14 1853.59 3212.66 1831.3C3064.25 1808.55 2971.08 1713.35 2875.77 1634.6C2763.55 1541.9 2634.39 1455.11 2479.09 1398.94C2319.81 1341.33 2130.92 1317.73 1952.58 1352.35C1828.34 1376.31 1714.87 1425.23 1608.77 1474.7C1592.2 1482.43 1576.26 1491.07 1559.75 1497.8C1167.22 1658.07 922.418 1684.57 810.426 1924.24" stroke="#C61C1E" stroke-width="1.99744" stroke-miterlimit="10"/>
<path d="M5840.18 1988C5821.04 1782.2 5622.46 1677.08 5304.73 1430.01C5234.28 1375.22 5162.42 1320.51 5081.91 1291.06C4841.94 1203.28 4621.13 1293.09 4407.9 1372.08C4206.88 1446.55 3998.62 1551.43 3754.61 1665.96C3727.27 1678.79 3700.06 1692 3672.66 1704.86C3532.75 1770.51 3376.83 1833.74 3233.03 1814.98C3086.21 1795.83 2991.89 1708.1 2895.62 1636.1C2782.03 1551.17 2652.51 1471.89 2498.46 1421.31C2339.93 1369.26 2153.59 1349.21 1977.48 1383.04C1854.47 1406.5 1741.8 1453.06 1636.24 1499.26C1619.72 1506.49 1603.82 1514.63 1587.4 1520.81C1188.59 1670.59 946.878 1670.79 840.781 1897.83" stroke="#C61C1E" stroke-width="1.99744" stroke-miterlimit="10"/>
<path d="M5847.48 1971.78C5829.38 1777.43 5628.29 1690.16 5305.29 1443.61C5235.04 1390.01 5163.94 1336.2 5084.8 1306.37C4848.22 1217.2 4631.5 1295.31 4418.32 1368.93C4220.11 1437.38 4013.35 1537.65 3769.19 1649.95C3742.06 1662.43 3715.09 1675.31 3687.93 1687.86C3549.19 1751.9 3395.5 1813.93 3253.35 1798.71C3108.12 1783.17 3012.65 1702.89 2915.42 1637.66C2800.43 1560.51 2670.55 1488.75 2517.75 1443.74C2359.97 1397.26 2176.2 1380.75 2002.3 1413.8C1880.53 1436.76 1768.66 1480.96 1663.62 1523.88C1647.17 1530.61 1631.32 1538.26 1614.98 1543.86C1209.77 1682.94 971.283 1657.03 871.068 1871.47" stroke="#C61C1E" stroke-width="1.99744" stroke-miterlimit="10"/>
<path d="M5854.78 1955.57C5837.75 1772.64 5634.16 1703.2 5305.86 1457.2C5235.86 1404.74 5165.49 1351.86 5087.71 1321.67C4854.51 1231.11 4641.93 1297.58 4428.77 1365.79C4233.42 1428.29 4028.1 1523.9 3783.79 1633.95C3756.88 1646.06 3730.13 1658.61 3703.22 1670.84C3565.66 1733.27 3414.17 1794.11 3273.71 1782.44C3130.06 1770.49 3033.43 1697.7 2935.26 1639.21C2818.85 1569.85 2688.63 1505.62 2537.1 1466.17C2380.06 1425.3 2198.85 1412.3 2027.2 1444.54C1906.65 1467.01 1795.59 1508.83 1691.08 1548.48C1674.68 1554.69 1658.86 1561.83 1642.62 1566.88C1230.9 1695.06 995.738 1643.26 901.434 1845.08" stroke="#C61C1E" stroke-width="1.99744" stroke-miterlimit="10"/>
<path d="M5862.08 1939.35C5846.12 1767.87 5640.07 1716.17 5306.43 1470.79C5236.65 1419.47 5167.01 1367.55 5090.6 1336.97C4860.8 1245.03 4652.37 1299.93 4439.2 1362.63C4246.74 1419.25 4042.86 1510.14 3798.38 1617.92C3771.69 1629.68 3745.16 1641.88 3718.48 1653.8C3582.1 1714.63 3432.81 1774.27 3294.02 1766.13C3151.96 1757.79 3054.13 1692.48 2955.06 1640.72C2837.21 1579.16 2706.66 1522.45 2556.4 1488.54C2400.09 1453.26 2221.46 1443.76 2052.03 1475.23C1932.74 1497.2 1822.46 1536.64 1718.47 1573.03C1702.13 1578.74 1686.35 1585.35 1670.19 1589.87C1251.86 1706.88 1020.12 1629.45 931.715 1818.66" stroke="#C61C1E" stroke-width="1.99744" stroke-miterlimit="10"/>
<path d="M5869.37 1923.14C5854.48 1763.08 5646.03 1729.1 5307 1484.38C5237.47 1434.2 5168.55 1383.21 5093.5 1352.26C4867.12 1258.9 4662.87 1302.31 4449.64 1359.46C4260.1 1410.26 4057.64 1496.38 3812.97 1601.89C3786.51 1613.3 3760.21 1625.16 3733.76 1636.76C3598.56 1695.97 3451.46 1754.44 3314.37 1749.83C3173.9 1745.12 3074.88 1687.28 2974.9 1642.25C2855.59 1588.51 2724.72 1539.32 2575.74 1510.94C2420.15 1481.29 2244.1 1475.27 2076.9 1505.96C1958.84 1527.43 1849.36 1564.49 1745.91 1597.62C1729.62 1602.83 1713.87 1608.91 1697.83 1612.9C1272.8 1718.47 1044.59 1615.68 962.059 1792.27" stroke="#C61C1E" stroke-width="1.99744" stroke-miterlimit="10"/>
<path d="M5876.68 1906.94C5862.85 1758.31 5652.04 1741.96 5307.57 1498C5238.29 1448.94 5170.08 1398.91 5096.4 1367.59C4873.41 1272.82 4673.38 1304.83 4460.07 1356.35C4273.49 1401.41 4072.41 1482.71 3827.57 1585.9C3801.32 1596.96 3775.25 1608.49 3749.04 1619.78C3615.02 1677.37 3470.13 1734.66 3334.71 1733.58C3195.82 1732.47 3095.57 1682.14 2994.71 1643.82C2873.93 1597.93 2742.77 1556.27 2595.06 1533.39C2440.19 1509.4 2266.74 1506.83 2101.77 1536.72C1984.95 1557.7 1876.25 1592.37 1773.34 1622.25C1757.13 1626.95 1741.39 1632.48 1725.45 1635.95C1293.66 1729.82 1069.02 1601.92 992.387 1765.91" stroke="#C61C1E" stroke-width="1.99744" stroke-miterlimit="10"/>
<path d="M5883.98 1890.73C5871.2 1753.54 5658.07 1754.76 5308.14 1511.59C5239.12 1463.62 5171.62 1414.57 5099.3 1382.89C4879.72 1286.69 4683.93 1307.4 4470.51 1353.19C4286.89 1392.58 4087.19 1469.01 3842.16 1569.89C3816.13 1580.6 3790.29 1591.78 3764.32 1602.75C3631.48 1658.74 3488.79 1714.84 3355.06 1717.28C3217.74 1719.79 3116.29 1676.98 3014.54 1645.34C2892.29 1607.32 2760.8 1573.17 2614.39 1555.78C2460.23 1537.46 2289.36 1538.33 2126.62 1567.43C2011.04 1587.92 1903.14 1620.2 1800.75 1646.83C1784.6 1651.02 1768.9 1656.01 1753.04 1658.97C1314.48 1740.84 1093.43 1588.15 1022.69 1739.52" stroke="#C61C1E" stroke-width="1.99744" stroke-miterlimit="10"/>
<path d="M5891.28 1874.52C5879.57 1748.75 5664.16 1767.48 5308.7 1525.17C5239.95 1478.3 5173.16 1430.24 5102.18 1398.19C4886.02 1300.57 4694.46 1310.06 4480.95 1350.03C4300.31 1383.83 4101.99 1455.32 3856.75 1553.87C3830.95 1564.23 3805.32 1575.08 3779.6 1585.72C3647.94 1640.1 3507.45 1695.03 3375.39 1701C3239.66 1707.12 3136.99 1671.87 3034.36 1646.88C2910.61 1616.76 2778.83 1590.13 2633.71 1578.18C2480.26 1565.55 2311.99 1569.84 2151.47 1598.16C2037.12 1618.15 1930.02 1648.03 1828.17 1671.42C1812.07 1675.11 1796.41 1679.53 1780.66 1681.99C1335.3 1751.53 1117.86 1574.36 1053.02 1713.12" stroke="#C61C1E" stroke-width="1.99744" stroke-miterlimit="10"/>
<path d="M5898.57 1858.3C5887.93 1743.98 5670.28 1780.14 5309.27 1538.76C5240.8 1492.99 5174.7 1445.9 5105.08 1413.49C4892.33 1314.43 4705.03 1312.83 4491.39 1346.87C4313.74 1375.17 4116.78 1441.66 3871.34 1537.84C3845.77 1547.86 3820.36 1558.36 3794.87 1568.68C3664.39 1621.44 3526.1 1675.21 3395.72 1684.68C3261.58 1694.44 3157.69 1666.74 3054.17 1648.4C2928.96 1626.2 2796.86 1607.07 2653.03 1600.57C2500.29 1593.66 2334.62 1601.34 2176.33 1628.86C2063.21 1648.35 1956.91 1675.84 1855.58 1695.98C1839.55 1699.17 1823.9 1703.02 1808.25 1704.98C1356.11 1761.89 1142.28 1560.56 1083.33 1686.71" stroke="#C61C1E" stroke-width="1.99744" stroke-miterlimit="10"/>
<path d="M5905.87 1842.09C5896.3 1739.19 5676.44 1792.72 5309.84 1552.36C5241.64 1507.66 5176.23 1461.57 5107.98 1428.81C4898.63 1328.3 4715.6 1315.72 4501.82 1343.74C4327.16 1366.62 4131.57 1428.06 3885.93 1521.85C3860.58 1531.52 3835.39 1541.68 3810.14 1551.68C3680.84 1602.84 3544.76 1655.43 3416.06 1668.43C3283.51 1681.81 3178.39 1661.69 3074.01 1649.95C2947.3 1635.72 2814.92 1624.1 2672.36 1623C2520.34 1621.84 2357.26 1632.87 2201.2 1659.61C2089.32 1678.62 1983.8 1703.69 1883.03 1720.61C1867.05 1723.29 1851.43 1726.56 1835.89 1728.05C1377.01 1771.98 1166.73 1546.83 1113.68 1660.36" stroke="#C61C1E" stroke-width="1.99744" stroke-miterlimit="10"/>
<path d="M5913.17 1825.87C5904.67 1734.42 5682.65 1805.21 5310.41 1565.95C5242.5 1522.31 5177.79 1477.22 5110.88 1444.11C4904.96 1342.14 4726.17 1318.71 4512.26 1340.58C4340.6 1358.13 4146.4 1414.44 3900.53 1505.83C3875.4 1515.16 3850.44 1524.98 3825.43 1534.66C3697.31 1584.22 3563.43 1635.65 3436.4 1652.14C3305.43 1669.16 3199.1 1656.64 3093.83 1651.5C2965.65 1645.24 2832.96 1641.11 2691.69 1645.42C2540.4 1650.02 2379.9 1664.4 2226.07 1690.35C2115.42 1708.87 2010.69 1731.53 1910.44 1745.21C1894.53 1747.39 1878.94 1750.07 1863.49 1751.08C1397.94 1781.73 1191.14 1533.06 1143.99 1633.98" stroke="#C61C1E" stroke-width="1.99744" stroke-miterlimit="10"/>
<path d="M5920.47 1809.66C5913.02 1729.63 5688.89 1817.64 5310.97 1579.54C5243.35 1536.94 5179.31 1492.88 5113.77 1459.41C4911.29 1355.98 4736.72 1321.83 4522.69 1337.42C4354 1349.72 4161.21 1400.84 3915.11 1489.8C3890.21 1498.8 3865.48 1508.26 3840.7 1517.62C3713.77 1565.56 3582.1 1615.83 3456.74 1635.83C3327.36 1656.48 3219.83 1651.59 3113.65 1653.02C2984.03 1654.76 2851 1658.14 2711.01 1667.8C2560.44 1678.2 2402.52 1695.89 2250.91 1721.04C2141.5 1739.05 2037.57 1759.31 1937.86 1769.75C1921.99 1771.41 1906.44 1773.5 1891.08 1774.05C1418.94 1791.08 1215.55 1519.24 1174.29 1607.53" stroke="#C61C1E" stroke-width="1.99744" stroke-miterlimit="10"/>
<path d="M5927.77 1793.46C5921.39 1724.86 5695.18 1829.99 5311.55 1593.14C5244.23 1551.58 5180.87 1508.54 5116.68 1474.71C4917.63 1369.81 4747.25 1325.07 4533.13 1334.28C4367.39 1341.41 4176.03 1387.3 3929.71 1473.8C3905.04 1482.46 3880.53 1491.55 3855.97 1500.61C3730.23 1546.95 3600.8 1596.29 3477.07 1619.56C3349.33 1644.09 3240.55 1646.59 3133.46 1654.56C3002.39 1664.33 2869.06 1675.19 2730.32 1690.21C2580.5 1706.43 2425.15 1727.41 2275.76 1751.78C2167.58 1769.3 2064.44 1787.13 1965.26 1794.36C1949.47 1795.51 1933.94 1797 1918.68 1797.1C1440.07 1800.17 1239.98 1505.48 1204.6 1581.17" stroke="#C61C1E" stroke-width="1.99744" stroke-miterlimit="10"/>
<path d="M5935.07 1777.25C5929.75 1720.09 5701.51 1842.24 5312.11 1606.75C5245.08 1566.21 5182.41 1524.21 5119.57 1490.02C4923.97 1383.65 4757.73 1328.45 4543.56 1331.13C4380.74 1333.17 4190.85 1373.76 3944.3 1457.78C3919.86 1466.1 3895.54 1474.85 3871.24 1483.58C3746.67 1528.3 3619.46 1576.47 3497.41 1603.27C3371.25 1631.41 3261.31 1641.56 3153.28 1656.09C3020.8 1673.9 2887.14 1692.28 2749.65 1712.62C2600.59 1734.67 2447.77 1758.93 2300.63 1782.51C2193.71 1799.54 2091.34 1814.94 1992.7 1818.95C1976.96 1819.6 1961.49 1820.47 1946.31 1820.12C1461.36 1808.92 1264.41 1491.71 1234.94 1554.78" stroke="#C61C1E" stroke-width="1.99744" stroke-miterlimit="10"/>
<path d="M5942.37 1761.03C5938.12 1715.3 5707.87 1854.4 5312.68 1620.34C5245.96 1580.82 5183.96 1539.84 5122.47 1505.32C4930.31 1397.45 4768.19 1331.95 4554.02 1327.97C4394.09 1325.01 4205.72 1360.25 3958.91 1441.76C3934.69 1449.76 3910.61 1458.14 3886.54 1466.57C3763.15 1509.68 3638.15 1556.66 3517.76 1587C3393.21 1618.75 3282.1 1636.58 3173.12 1657.65C3039.25 1683.52 2905.26 1709.39 2769 1735.04C2620.72 1762.96 2470.43 1790.44 2325.5 1813.24C2219.82 1829.78 2118.25 1842.75 2020.14 1843.55C2004.46 1843.67 1989.05 1843.94 1973.93 1843.14C1482.81 1817.37 1288.85 1477.92 1265.29 1528.39" stroke="#C61C1E" stroke-width="1.99744" stroke-miterlimit="10"/>
<path d="M5949.68 1744.82C5946.49 1710.53 5714.28 1866.47 5313.25 1633.92C5246.84 1595.41 5185.58 1555.38 5125.37 1520.63C4936.87 1410.92 4778.57 1335.58 4564.46 1324.83C4407.35 1316.93 4220.55 1346.77 3973.5 1425.76C3949.51 1433.42 3925.65 1441.45 3901.82 1449.55C3779.61 1491.06 3656.83 1536.85 3538.11 1570.71C3415.14 1606.07 3302.9 1631.59 3192.95 1659.18C3057.71 1693.11 2923.39 1726.5 2788.33 1757.44C2640.84 1791.24 2493.06 1821.96 2350.37 1843.97C2245.92 1860 2145.16 1870.37 2047.57 1868.14C2031.96 1867.73 2016.59 1867.4 2001.55 1866.18C1504.44 1825.54 1313.29 1464.17 1295.61 1502.01" stroke="#C61C1E" stroke-width="1.99744" stroke-miterlimit="10"/>
<path d="M5956.97 1728.61C5954.83 1705.74 5720.71 1878.45 5313.82 1647.51C5247.7 1609.99 5187.12 1571.05 5128.27 1535.93C4943.18 1424.81 4788.9 1339.36 4574.89 1321.67C4420.55 1308.91 4235.39 1333.32 3988.09 1409.73C3964.33 1417.07 3940.69 1424.74 3917.09 1432.51C3796.06 1472.41 3675.47 1517.02 3558.43 1554.4C3437.05 1593.37 3323.69 1626.58 3212.75 1660.69C3076.17 1702.69 2941.5 1743.6 2807.63 1779.83C2660.96 1819.53 2515.67 1853.46 2375.2 1874.68C2271.98 1890.22 2172.02 1898.21 2074.96 1892.72C2059.41 1891.81 2044.11 1890.85 2029.13 1889.18C1526.2 1833.4 1337.69 1450.37 1325.9 1475.61" stroke="#C61C1E" stroke-width="1.99744" stroke-miterlimit="10"/>
<path d="M5964.28 1712.39C5963.21 1700.97 5727.2 1890.32 5314.41 1661.12C5248.6 1624.58 5188.67 1586.74 5131.19 1551.24C4949.51 1438.72 4799.14 1343.29 4585.35 1318.53C4433.7 1300.97 4250.36 1320.23 4002.71 1393.73C3979.18 1400.77 3955.75 1408.05 3932.39 1415.5C3812.54 1453.78 3694.17 1497.21 3578.8 1538.13C3459.01 1580.72 3344.61 1621.75 3232.6 1662.25C3094.75 1712.49 2959.77 1761.01 2826.98 1802.26C2681.25 1848.12 2538.34 1885 2400.1 1905.43C2298.12 1920.47 2198.97 1926.06 2102.42 1917.33C2086.92 1915.91 2071.69 1914.31 2056.77 1912.22C1548.25 1841.02 1362.14 1436.61 1356.25 1449.22" stroke="#C61C1E" stroke-width="1.99744" stroke-miterlimit="10"/>
<path d="M5971.59 1696.18C5971.59 1696.18 5733.71 1902.09 5314.98 1674.7C4896.25 1447.32 4731.88 1172.41 4017.3 1377.71C3302.71 1583.01 2678.36 2010.41 2129.84 1941.91C1581.32 1873.41 1386.58 1422.83 1386.58 1422.83" stroke="#C61C1E" stroke-width="1.99744" stroke-miterlimit="10"/>
<path d="M6289.74 1552.82C6246.94 1437.83 6121.62 1369.54 5999.24 1360.64C5876.86 1351.74 5756.46 1391.51 5642.34 1436.56C5406.29 1529.7 5180.02 1647.7 4939.21 1727.67C4698.39 1807.64 4435.7 1848.21 4190.9 1781.42C4040.39 1740.36 3902.12 1660.3 3749.95 1625.92C3444.83 1556.97 3132.97 1678.59 2822.23 1714.56C2587.13 1741.76 2498.84 1628.73 2367.88 1461.75C2240.75 1299.66 2052.69 1186.55 1849.92 1150.2C1647.14 1113.86 1431.51 1154.64 1256 1262.5" stroke="#C61C1E" stroke-width="1.99744" stroke-miterlimit="10"/>
<path d="M6294.18 1536.63C6246.59 1428.81 6118.58 1364.67 5994.23 1359.71C5869.69 1354.88 5746.86 1396.96 5629.61 1442.91C5392.43 1536.11 5163.64 1651.27 4921.89 1725.44C4681.03 1799.93 4420.38 1833.13 4175.42 1766.34C4025.43 1725.44 3887.03 1648.02 3735.3 1615.13C3431.23 1549.17 3120.8 1668.92 2811.31 1704.58C2577.59 1731.51 2485.77 1622.12 2352.94 1459.07C2224.99 1301.02 2038.47 1188.89 1837.48 1157.11C1636.91 1125.02 1425.02 1168.94 1251.12 1276.77" stroke="#C61C1E" stroke-width="1.99744" stroke-miterlimit="10"/>
<path d="M6298.62 1520.43C6246.26 1419.78 6115.56 1359.77 5989.24 1358.76C5862.53 1358 5737.28 1402.36 5616.9 1449.26C5378.57 1542.51 5147.13 1654.28 4904.6 1723.18C4663.55 1791.65 4405.07 1818.01 4159.97 1751.22C4010.49 1710.49 3871.98 1635.68 3720.67 1604.29C3417.66 1541.32 3108.67 1659.21 2800.42 1694.57C2568.07 1721.24 2472.24 1615.9 2338.03 1456.35C2208.8 1302.72 2024.28 1191.19 1825.05 1163.96C1626.67 1136.12 1418.51 1183.19 1246.24 1290.97" stroke="#C61C1E" stroke-width="1.99744" stroke-miterlimit="10"/>
<path d="M6303.05 1504.23C6245.92 1410.74 6112.52 1354.88 5984.23 1357.82C5855.35 1361.13 5727.68 1407.79 5604.16 1455.6C5364.69 1548.91 5130.69 1657.58 4887.27 1720.91C4646.14 1783.66 4389.74 1802.91 4144.49 1736.1C3995.52 1695.52 3856.9 1623.35 3706.01 1593.47C3404.06 1533.48 3096.49 1649.49 2789.49 1684.57C2558.52 1710.98 2458.96 1609.48 2323.08 1453.65C2192.81 1304.26 2009.97 1194.04 1812.59 1170.85C1616.35 1147.79 1411.97 1197.49 1241.32 1305.23" stroke="#C61C1E" stroke-width="1.99744" stroke-miterlimit="10"/>
<path d="M6307.51 1488.03C6245.61 1401.71 6109.5 1349.98 5979.24 1356.88C5848.2 1364.26 5718.1 1413.21 5591.46 1461.96C5350.84 1555.33 5114.29 1660.92 4869.99 1718.67C4628.77 1775.7 4374.45 1787.8 4129.04 1721C3980.58 1680.57 3841.85 1611.03 3691.39 1582.64C3390.5 1525.65 3084.36 1639.79 2778.61 1674.56C2549.01 1700.7 2445.74 1603.04 2308.18 1450.94C2176.92 1305.78 1995.79 1196.52 1800.17 1177.71C1606.13 1159.06 1405.49 1211.76 1236.46 1319.45" stroke="#C61C1E" stroke-width="1.99744" stroke-miterlimit="10"/>
<path d="M6311.95 1471.85C6245.27 1392.69 6106.47 1345.12 5974.23 1355.95C5841.02 1367.41 5708.5 1418.66 5578.71 1468.34C5336.94 1561.76 5097.87 1664.28 4852.66 1716.44C4611.38 1767.78 4359.09 1772.73 4113.55 1705.91C3965.6 1665.65 3826.74 1598.73 3676.72 1571.84C3376.89 1517.84 3072.18 1630.09 2767.68 1664.58C2539.45 1690.46 2432.47 1596.64 2293.23 1448.26C2160.97 1307.33 1981.55 1199.03 1787.72 1184.62C1595.88 1170.38 1398.97 1226.06 1231.57 1333.73" stroke="#C61C1E" stroke-width="1.99744" stroke-miterlimit="10"/>
<path d="M6316.39 1455.65C6244.94 1383.66 6103.4 1339.92 5969.24 1355.01C5833.82 1370.24 5698.92 1424.09 5566 1474.68C5323.09 1568.16 5081.49 1667.62 4835.37 1714.19C4594.03 1759.86 4343.8 1757.62 4098.11 1690.82C3950.67 1650.71 3811.7 1586.42 3662.1 1561.03C3363.33 1510.01 3060.04 1620.41 2756.79 1654.59C2529.94 1680.19 2419.28 1590.21 2278.33 1445.57C2145.1 1308.86 1967.38 1201.5 1775.31 1191.52C1585.67 1181.66 1392.49 1240.37 1226.7 1347.98" stroke="#C61C1E" stroke-width="1.99744" stroke-miterlimit="10"/>
<path d="M6320.83 1439.45C6244.61 1374.62 6100.36 1335.01 5964.23 1354.07C5826.64 1373.34 5689.32 1429.51 5553.27 1481.04C5309.21 1574.57 5065.1 1671 4818.05 1711.94C4576.69 1751.94 4328.46 1742.53 4082.63 1675.71C3935.71 1635.76 3796.61 1574.11 3647.45 1550.2C3349.73 1502.18 3047.88 1610.71 2745.87 1644.59C2520.4 1669.93 2406.09 1583.78 2263.38 1442.86C2129.21 1310.36 1953.17 1203.95 1762.84 1198.38C1575.43 1192.9 1385.95 1254.63 1221.79 1362.21" stroke="#C61C1E" stroke-width="1.99744" stroke-miterlimit="10"/>
<path d="M6325.28 1423.25C6244.28 1365.6 6097.31 1330.09 5959.24 1353.13C5819.45 1376.46 5679.63 1434.65 5540.55 1487.39C5295.16 1580.46 5048.74 1674.38 4800.75 1709.69C4559.36 1744.05 4313.16 1727.43 4067.17 1660.6C3920.76 1620.8 3781.55 1561.77 3632.82 1539.38C3336.15 1494.33 3035.73 1600.99 2734.96 1634.58C2510.86 1659.67 2392.91 1577.34 2248.46 1440.15C2113.36 1311.85 1938.99 1206.38 1750.42 1205.26C1565.22 1204.15 1379.46 1268.9 1216.9 1376.45" stroke="#C61C1E" stroke-width="1.99744" stroke-miterlimit="10"/>
<path d="M6329.73 1407.06C6243.95 1356.57 6094.28 1325.19 5954.24 1352.2C5812.27 1379.59 5670.03 1440.06 5527.83 1493.76C5281.29 1586.86 5032.4 1677.82 4783.44 1707.45C4542.04 1736.19 4297.83 1712.34 4051.7 1645.51C3905.81 1605.88 3766.49 1549.47 3618.17 1528.57C3322.56 1486.52 3023.56 1591.31 2724.04 1624.6C2501.32 1649.42 2379.74 1570.91 2233.52 1437.47C2097.51 1313.36 1924.79 1208.84 1737.97 1212.15C1555 1215.39 1372.93 1283.21 1212 1390.69" stroke="#C61C1E" stroke-width="1.99744" stroke-miterlimit="10"/>
<path d="M6334.17 1390.86C6243.61 1347.54 6091.23 1320.28 5949.24 1351.26C5805.11 1382.71 5660.45 1445.47 5515.12 1500.12C5267.42 1593.24 5016.06 1681.26 4766.15 1705.21C4524.75 1728.36 4282.53 1697.25 4036.25 1630.42C3890.86 1590.94 3751.43 1537.16 3603.54 1517.76C3308.99 1478.7 3011.42 1581.61 2713.15 1614.62C2491.8 1639.18 2366.63 1564.47 2218.6 1434.79C2081.71 1314.85 1910.62 1211.28 1725.53 1219.06C1544.8 1226.64 1366.44 1297.51 1207.12 1404.97" stroke="#C61C1E" stroke-width="1.99744" stroke-miterlimit="10"/>
<path d="M6338.62 1374.66C6243.29 1338.5 6088.2 1315.38 5944.25 1350.32C5797.92 1385.82 5650.85 1450.89 5502.4 1506.46C5253.55 1599.63 4999.72 1684.7 4748.84 1702.96C4507.44 1720.52 4267.21 1682.14 4020.78 1615.31C3875.91 1575.99 3736.35 1524.84 3588.9 1506.94C3295.4 1470.86 2999.26 1571.91 2702.24 1604.61C2482.27 1628.9 2353.52 1557.98 2203.68 1432.08C2065.92 1316.31 1896.45 1213.68 1713.11 1225.92C1534.61 1237.84 1359.94 1311.78 1202.25 1419.19" stroke="#C61C1E" stroke-width="1.99744" stroke-miterlimit="10"/>
<path d="M6343.06 1358.46C6242.95 1329.47 6085.16 1310.5 5939.24 1349.38C5790.73 1388.95 5641.24 1456.3 5489.67 1512.82C5239.67 1606.03 4983.39 1688.18 4731.52 1700.71C4490.12 1712.73 4251.87 1667.05 4005.3 1600.2C3860.94 1561.05 3721.26 1512.53 3574.25 1496.13C3281.8 1463.04 2987.09 1562.2 2691.32 1594.63C2472.73 1618.65 2340.42 1551.51 2188.75 1429.38C2050.12 1317.77 1882.28 1216.08 1700.66 1232.81C1524.4 1249.04 1353.42 1326.08 1197.35 1433.45" stroke="#C61C1E" stroke-width="1.99744" stroke-miterlimit="10"/>
<path d="M6347.5 1342.28C6242.62 1320.46 6082.12 1305.61 5934.23 1348.45C5783.55 1392.1 5631.65 1461.74 5476.94 1519.18C5225.81 1612.45 4967.05 1691.69 4714.22 1698.47C4472.83 1704.94 4236.56 1651.95 3989.85 1585.1C3846.01 1546.1 3706.21 1500.2 3559.61 1485.31C3268.23 1455.21 2974.95 1552.5 2680.42 1584.62C2463.2 1608.37 2327.35 1544.99 2173.83 1426.67C2034.38 1319.2 1868.12 1218.45 1688.23 1239.68C1514.22 1260.21 1346.92 1340.34 1192.48 1447.67" stroke="#C61C1E" stroke-width="1.99744" stroke-miterlimit="10"/>
<path d="M6351.94 1326.08C6242.29 1311.42 6079.07 1300.73 5929.23 1347.51C5776.38 1395.24 5622.06 1467.16 5464.22 1525.54C5211.94 1618.86 4950.74 1695.21 4696.91 1696.22C4455.54 1697.19 4221.24 1636.86 3974.38 1570C3831.05 1531.15 3691.13 1487.89 3544.97 1474.48C3254.65 1447.38 2962.79 1542.8 2669.52 1574.63C2453.67 1598.11 2314.31 1538.48 2158.9 1423.98C2018.63 1320.63 1853.96 1220.82 1675.78 1246.57C1504.01 1271.39 1340.39 1354.63 1187.58 1461.92" stroke="#C61C1E" stroke-width="1.99744" stroke-miterlimit="10"/>
<path d="M6356.39 1309.88C6241.97 1302.4 6076.04 1295.84 5924.24 1346.56C5769.21 1398.36 5612.48 1472.56 5451.51 1531.89C5198.09 1625.28 4934.42 1698.75 4679.62 1693.98C4438.26 1689.46 4205.94 1621.77 3958.93 1554.91C3816.11 1516.23 3676.09 1475.58 3530.35 1463.68C3241.08 1439.56 2950.65 1533.11 2658.63 1564.64C2444.16 1587.85 2301.28 1531.96 2143.99 1421.28C2002.94 1322.04 1839.81 1223.18 1663.37 1253.46C1493.84 1282.55 1333.92 1368.94 1182.72 1476.18" stroke="#C61C1E" stroke-width="1.99744" stroke-miterlimit="10"/>
<path d="M6360.82 1293.68C6241.63 1293.36 6073 1290.96 5919.23 1345.62C5762.02 1401.5 5602.88 1477.99 5438.78 1538.23C5184.22 1631.68 4918.09 1702.3 4662.3 1691.72C4420.94 1681.72 4190.61 1606.65 3943.45 1539.79C3801.13 1501.27 3660.99 1463.25 3515.69 1452.85C3227.48 1431.71 2938.48 1523.4 2647.7 1554.64C2434.61 1577.59 2288.26 1525.4 2129.05 1418.59C1987.22 1323.42 1825.63 1225.53 1650.92 1260.34C1483.63 1293.68 1327.39 1383.21 1177.81 1490.42" stroke="#C61C1E" stroke-width="1.99744" stroke-miterlimit="10"/>
<path d="M6365.28 1277.49C6241.3 1284.34 6069.98 1286.1 5914.24 1344.69C5754.87 1404.66 5593.29 1483.44 5426.06 1544.6C5170.37 1638.12 4901.77 1705.91 4645.01 1689.48C4403.66 1674.04 4175.3 1591.57 3928 1524.7C3786.2 1486.33 3645.94 1450.94 3501.06 1442.04C3213.9 1423.89 2926.33 1513.71 2636.79 1544.64C2425.09 1567.33 2275.25 1518.82 2114.11 1415.88C1971.52 1324.77 1811.45 1227.83 1638.46 1267.22C1473.42 1304.8 1320.87 1397.49 1172.9 1504.67" stroke="#C61C1E" stroke-width="1.99744" stroke-miterlimit="10"/>
<path d="M6369.71 1261.3C6240.96 1275.31 6066.93 1281.22 5909.22 1343.75C5747.67 1407.81 5583.69 1488.87 5413.33 1550.96C5156.49 1644.57 4885.43 1709.53 4627.68 1687.24C4386.35 1666.37 4159.96 1576.47 3912.51 1509.59C3771.22 1471.4 3630.84 1438.63 3486.39 1431.22C3200.29 1416.06 2914.15 1504.01 2625.86 1534.65C2415.53 1557.07 2262.24 1512.22 2099.17 1413.18C1955.82 1326.12 1797.26 1230.13 1626.02 1274.1C1463.21 1315.9 1314.35 1411.78 1168.01 1518.9" stroke="#C61C1E" stroke-width="1.99744" stroke-miterlimit="10"/>
<path d="M6374.16 1245.1C6240.64 1266.28 6063.92 1276.34 5904.24 1342.81C5740.53 1410.97 5574.26 1494.66 5400.62 1557.31C5142.84 1651.5 4869.12 1713.15 4610.4 1684.98C4369.07 1658.7 4144.66 1561.36 3897.07 1494.49C3756.3 1456.45 3615.8 1426.31 3471.78 1420.4C3186.74 1408.23 2902.02 1494.31 2614.98 1524.66C2406.03 1546.81 2249.3 1505.59 2084.28 1410.49C1940.19 1327.46 1783.13 1232.42 1613.61 1280.99C1453.03 1326.99 1307.88 1426.07 1163.16 1533.15" stroke="#C61C1E" stroke-width="1.99744" stroke-miterlimit="10"/>
<path d="M6378.61 1228.89C6240.31 1257.24 6061.02 1271.77 5899.24 1341.87C5733.5 1414.42 5564.67 1500.07 5387.91 1563.66C5128.98 1657.91 4852.78 1716.81 4593.1 1682.74C4351.76 1651.08 4129.35 1546.27 3881.6 1479.4C3741.34 1441.51 3600.72 1414.01 3457.13 1409.6C3173.15 1400.42 2889.85 1484.62 2604.06 1514.67C2396.49 1536.56 2236.33 1498.95 2069.34 1407.8C1924.53 1328.77 1768.94 1234.71 1601.16 1287.88C1442.81 1338.08 1301.36 1440.36 1158.26 1547.41" stroke="#C61C1E" stroke-width="1.99744" stroke-miterlimit="10"/>
<path d="M6383.05 1212.71C6239.98 1248.23 6057.99 1266.9 5894.23 1340.94C5726.31 1417.56 5555.07 1505.52 5375.17 1570.02C5115.1 1664.33 4836.42 1720.49 4575.79 1680.5C4334.44 1643.47 4114.02 1531.18 3866.14 1464.29C3726.4 1426.56 3585.66 1401.69 3442.5 1398.78C3159.57 1392.59 2877.71 1474.92 2593.17 1504.68C2386.97 1526.3 2223.4 1492.26 2054.42 1405.11C1908.89 1330.04 1754.74 1236.97 1588.74 1294.77C1432.61 1349.14 1294.87 1454.65 1153.39 1561.66" stroke="#C61C1E" stroke-width="1.99744" stroke-miterlimit="10"/>
<path d="M6387.5 1196.51C6239.65 1239.19 6054.96 1262 5889.23 1340C5719.15 1420.71 5545.48 1510.94 5362.46 1576.38C5101.24 1670.74 4820.07 1724.19 4558.48 1678.25C4317.12 1635.87 4098.7 1516.09 3850.67 1449.19C3711.43 1411.62 3570.59 1389.37 3427.86 1387.96C3145.98 1384.76 2865.55 1465.2 2582.26 1494.67C2377.44 1516.02 2210.46 1485.53 2039.5 1402.39C1893.25 1331.27 1740.54 1239.17 1576.3 1301.64C1422.36 1360.18 1288.34 1468.92 1148.49 1575.89" stroke="#C61C1E" stroke-width="1.99744" stroke-miterlimit="10"/>
<path d="M6391.93 1180.31C6239.31 1230.16 6051.93 1257.11 5884.23 1339.06C5711.98 1423.84 5535.89 1516.37 5349.74 1582.74C5087.37 1677.16 4803.7 1727.91 4541.18 1676.01C4299.79 1628.29 4083.4 1500.99 3835.22 1434.08C3696.5 1396.67 3555.53 1377.05 3413.23 1377.13C3132.41 1376.92 2853.41 1455.51 2571.37 1484.68C2367.92 1505.76 2197.55 1478.78 2024.59 1399.69C1877.64 1332.49 1726.34 1241.4 1563.87 1308.52C1412.15 1371.2 1281.86 1483.2 1143.63 1590.13" stroke="#C61C1E" stroke-width="1.99744" stroke-miterlimit="10"/>
<path d="M6396.39 1164.11C6239 1221.12 6048.9 1252.21 5879.24 1338.12C5704.82 1426.97 5526.31 1521.79 5337.02 1589.09C5073.52 1683.55 4787.34 1731.64 4523.88 1673.75C4282.45 1620.71 4068.08 1485.88 3819.75 1418.98C3681.54 1381.72 3540.46 1364.72 3398.58 1366.31C3118.83 1369.08 2841.25 1445.81 2560.45 1474.67C2358.38 1495.48 2184.61 1471.99 2009.64 1396.98C1862 1333.67 1712.1 1243.59 1551.41 1315.4C1401.87 1382.2 1275.34 1497.48 1138.71 1604.37" stroke="#C61C1E" stroke-width="1.99744" stroke-miterlimit="10"/>
<path d="M6400.82 1147.93C6238.64 1212.11 6045.86 1247.34 5874.22 1337.2C5697.64 1430.11 5516.7 1527.24 5324.29 1595.46C5059.63 1689.98 4770.94 1735.4 4506.57 1671.53C4265.09 1613.19 4052.76 1470.81 3804.28 1403.9C3666.58 1366.82 3525.38 1352.44 3383.93 1355.53C3105.23 1361.29 2829.08 1436.13 2549.54 1464.71C2348.84 1485.27 2171.69 1465.22 1994.72 1394.33C1846.37 1334.89 1697.86 1245.84 1538.98 1322.32C1391.62 1393.25 1268.83 1511.81 1133.83 1618.65" stroke="#C61C1E" stroke-width="1.99744" stroke-miterlimit="10"/>
<path d="M6405.27 1131.73C6238.32 1203.07 6042.84 1242.44 5869.22 1336.26C5690.47 1433.24 5507.11 1532.66 5311.57 1601.81C5045.78 1696.38 4754.54 1739.16 4489.26 1669.27C4247.72 1605.64 4037.43 1455.7 3788.81 1388.78C3651.62 1351.85 3510.3 1340.1 3369.29 1344.69C3091.64 1353.44 2816.93 1426.42 2538.62 1454.71C2339.3 1474.99 2158.74 1458.35 1979.78 1391.61C1830.73 1336.02 1683.6 1248 1526.53 1329.18C1381.33 1404.23 1262.32 1526.07 1128.93 1632.87" stroke="#C61C1E" stroke-width="1.99744" stroke-miterlimit="10"/>
<path d="M6409.7 1115.53C6237.98 1194.04 6039.8 1237.56 5864.23 1335.3C5683.31 1436.36 5497.52 1538.08 5298.84 1608.15C5031.9 1702.78 4738.12 1742.93 4471.94 1667.01C4230.33 1598.1 4022.1 1440.58 3773.32 1373.67C3636.65 1336.89 3495.21 1327.78 3354.64 1333.86C3078.05 1345.59 2804.76 1416.69 2527.7 1444.68C2329.75 1464.72 2145.82 1451.45 1964.84 1388.88C1815.08 1337.11 1669.32 1250.15 1514.08 1336.03C1371.02 1415.19 1255.79 1540.32 1124.03 1647.09" stroke="#C61C1E" stroke-width="1.99744" stroke-miterlimit="10"/>
<path d="M6414.15 1099.33C6237.66 1185 6036.78 1232.66 5859.23 1334.36C5676.14 1439.49 5487.93 1543.51 5286.12 1614.51C5018.04 1709.19 4721.69 1746.73 4454.64 1664.76C4212.95 1590.59 4006.8 1425.49 3757.87 1358.58C3621.7 1321.97 3480.16 1315.47 3340 1323.05C3064.46 1337.77 2792.61 1407.01 2516.79 1434.7C2320.22 1454.47 2132.89 1444.56 1949.91 1386.2C1799.44 1338.22 1655.03 1252.33 1501.64 1342.94C1360.72 1426.2 1249.29 1554.64 1119.14 1661.35" stroke="#C61C1E" stroke-width="1.99744" stroke-miterlimit="10"/>
<path d="M6418.6 1083.14C6237.33 1175.99 6033.76 1227.79 5854.23 1333.44C5668.98 1442.65 5478.35 1548.94 5273.4 1620.87C5004.17 1715.61 4705.07 1751.07 4437.33 1662.53C4195.39 1583.57 3991.47 1410.42 3742.41 1343.49C3606.77 1307.03 3465.1 1303.17 3325.37 1312.25C3050.89 1329.97 2780.47 1397.33 2505.89 1424.72C2310.7 1444.22 2119.97 1437.61 1935 1383.52C1783.81 1339.3 1640.74 1254.5 1489.22 1349.85C1350.41 1437.19 1242.79 1568.94 1114.27 1675.63" stroke="#C61C1E" stroke-width="1.99744" stroke-miterlimit="10"/>
<path d="M6423.04 1066.94C6237 1166.96 6030.71 1222.89 5849.22 1332.49C5661.79 1445.78 5468.75 1554.37 5260.67 1627.23C4990.3 1722.02 4688.69 1754.63 4420.02 1660.29C4178.04 1575.85 3976.15 1395.31 3726.94 1328.38C3591.8 1292.08 3450.02 1290.84 3310.73 1301.43C3037.3 1322.13 2768.31 1387.62 2494.99 1414.73C2301.17 1433.96 2107.03 1430.63 1920.08 1380.82C1768.16 1340.35 1626.3 1256.47 1476.78 1356.72C1339.96 1447.98 1236.29 1583.22 1109.39 1689.86" stroke="#C61C1E" stroke-width="1.99744" stroke-miterlimit="10"/>
<path d="M6427.49 1050.75C6236.68 1157.92 6027.7 1218 5844.24 1331.55C5654.65 1448.91 5459.18 1559.79 5247.97 1633.59C4976.45 1728.44 4672.34 1758.21 4402.73 1658.04C4160.71 1568.12 3960.84 1380.22 3711.49 1313.28C3576.87 1277.14 3434.97 1278.53 3296.11 1290.61C3023.75 1314.3 2756.18 1377.92 2484.1 1404.72C2291.66 1423.68 2094.11 1423.6 1905.16 1378.1C1752.51 1341.35 1612.1 1258.77 1464.35 1363.59C1329.73 1459.1 1229.78 1597.5 1104.51 1704.08" stroke="#C61C1E" stroke-width="1.99744" stroke-miterlimit="10"/>
</g>
<path d="M3806.12 1847.18V1877.19C3806.12 1883.72 3804.99 1889.26 3802.72 1893.8C3800.52 1898.34 3797.25 1901.78 3792.92 1904.12C3788.67 1906.53 3783.42 1907.74 3777.17 1907.74H3770.47V1896.24H3777.17C3781.86 1896.24 3785.55 1895.61 3788.24 1894.33C3791.01 1893.12 3793 1891.14 3794.2 1888.37C3795.48 1885.6 3796.12 1881.88 3796.12 1877.19V1847.18H3806.12ZM3806.12 1862.4C3806.12 1864.96 3806.76 1866.76 3808.04 1867.83C3809.31 1868.89 3811.34 1869.43 3814.1 1869.43H3815.49L3816.12 1875.28L3815.49 1880.92H3814.1C3811.76 1880.92 3809.63 1880.46 3807.72 1879.54C3805.87 1878.54 3804.31 1876.87 3803.03 1874.53C3801.83 1872.19 3801.19 1869.11 3801.12 1865.27L3806.12 1862.4ZM3845.92 1847.18V1862.4C3845.92 1864.96 3846.52 1866.76 3847.73 1867.83C3849.01 1868.89 3851.03 1869.43 3853.8 1869.43H3859.33L3859.97 1875.49L3859.33 1880.92H3853.8C3851.17 1880.92 3848.47 1880.24 3845.71 1878.9C3842.94 1877.55 3840.6 1875.42 3838.68 1872.51C3836.77 1869.53 3835.81 1865.81 3835.81 1861.34V1847.18H3845.92ZM3844.64 1862.83C3844.64 1866.73 3843.72 1870.06 3841.88 1872.83C3840.1 1875.53 3837.76 1877.55 3834.85 1878.9C3832.01 1880.24 3829.07 1880.92 3826.02 1880.92H3814.42V1869.43H3826.02C3829.42 1869.43 3831.91 1868.79 3833.47 1867.51C3835.03 1866.23 3835.81 1864.17 3835.81 1861.34L3844.64 1862.83ZM3818.89 1823.77C3820.59 1823.77 3821.87 1823.77 3822.72 1823.77C3823.57 1823.77 3824.85 1823.77 3826.55 1823.77C3827.76 1823.77 3829 1823.77 3830.28 1823.77C3830.28 1826.32 3830.28 1828.24 3830.28 1829.52C3830.28 1830.72 3830.28 1832.57 3830.28 1835.05C3827.65 1835.05 3825.7 1835.05 3824.42 1835.05C3823.22 1835.05 3821.37 1835.05 3818.89 1835.05C3818.89 1832.5 3818.89 1830.62 3818.89 1829.41C3818.89 1828.13 3818.89 1826.25 3818.89 1823.77ZM3838.26 1823.77C3840.88 1823.77 3842.8 1823.77 3844 1823.77C3845.28 1823.77 3847.16 1823.77 3849.64 1823.77C3849.64 1826.32 3849.64 1828.24 3849.64 1829.52C3849.64 1830.72 3849.64 1832.57 3849.64 1835.05C3847.02 1835.05 3845.07 1835.05 3843.79 1835.05C3842.59 1835.05 3840.74 1835.05 3838.26 1835.05C3838.26 1832.5 3838.26 1830.62 3838.26 1829.41C3838.26 1828.13 3838.26 1826.25 3838.26 1823.77ZM3858.28 1869.43H3873.07H3875.41C3879.24 1869.28 3882.61 1868.82 3885.52 1868.04C3888.43 1867.26 3890.77 1866.13 3892.55 1864.64C3894.32 1863.08 3895.38 1861.23 3895.74 1859.1C3896.23 1856.19 3896.09 1853.71 3895.31 1851.65C3894.53 1849.52 3893.22 1847.96 3891.37 1846.97C3889.6 1845.91 3887.51 1845.37 3885.1 1845.37C3881.19 1845.37 3878.36 1846.54 3876.58 1848.89C3874.81 1851.16 3873.92 1854.85 3873.92 1859.95V1880.6C3873.92 1884.15 3874.63 1887.06 3876.05 1889.33C3877.47 1891.6 3879.63 1893.34 3882.54 1894.54C3885.45 1895.75 3889.18 1896.42 3893.72 1896.56V1889.75C3893.72 1885.71 3894.57 1882.16 3896.27 1879.11C3898.04 1875.99 3900.31 1873.61 3903.08 1871.98C3905.92 1870.28 3908.86 1869.43 3911.91 1869.43H3917.45L3918.09 1875.07L3917.45 1880.92H3912.13C3909.64 1880.92 3907.62 1881.7 3906.06 1883.26C3904.5 1884.82 3903.72 1887.16 3903.72 1890.28V1898.48L3895.21 1907.95C3889.03 1907.95 3883.57 1906.92 3878.82 1904.86C3874.13 1902.88 3870.48 1899.83 3867.85 1895.71C3865.23 1891.6 3863.92 1886.56 3863.92 1880.6V1859.95C3863.92 1854.7 3864.77 1850.13 3866.47 1846.22C3868.17 1842.32 3870.62 1839.34 3873.81 1837.29C3877.01 1835.23 3880.77 1834.2 3885.1 1834.2C3889.21 1834.2 3892.97 1835.37 3896.38 1837.71C3899.78 1840.05 3902.34 1843.28 3904.04 1847.4C3905.81 1851.44 3906.31 1855.91 3905.53 1860.8C3904.39 1867.69 3900.74 1872.76 3894.57 1876.02C3888.39 1879.29 3881.09 1880.92 3872.64 1880.92H3858.28V1869.43ZM3916.48 1869.43H3927.65C3930.77 1869.43 3933.04 1868.75 3934.46 1867.4C3935.88 1866.06 3936.52 1864.21 3936.38 1861.87C3936.24 1859.88 3935.85 1857.08 3935.21 1853.46C3934.57 1849.84 3933.9 1846.4 3933.19 1843.14L3942.87 1840.69C3943.65 1844.03 3944.4 1847.79 3945.11 1851.97C3945.81 1856.16 3946.24 1859.53 3946.38 1862.08C3946.52 1865.27 3945.89 1868.33 3944.47 1871.23C3943.12 1874.14 3941.03 1876.48 3938.19 1878.26C3935.42 1880.03 3932.05 1880.92 3928.08 1880.92H3916.48V1869.43ZM3923.82 1895.92C3925.88 1895.92 3927.9 1895.92 3929.89 1895.92C3931.87 1895.92 3933.79 1895.92 3935.63 1895.92C3935.63 1898.62 3935.63 1900.61 3935.63 1901.88C3935.63 1903.16 3935.63 1905.08 3935.63 1907.63C3932.94 1907.63 3930.95 1907.63 3929.67 1907.63C3928.4 1907.63 3926.45 1907.63 3923.82 1907.63C3923.82 1905.01 3923.82 1903.06 3923.82 1901.78C3923.82 1900.5 3923.82 1898.55 3923.82 1895.92ZM3997.44 1853.57C3995.45 1857.9 3993.89 1862.01 3992.75 1865.91C3991.69 1869.82 3991.19 1873.4 3991.26 1876.66C3991.33 1880.64 3992.01 1884.08 3993.28 1886.99C3994.63 1889.89 3996.65 1892.16 3999.35 1893.8C4002.05 1895.43 4005.45 1896.24 4009.57 1896.24H4020.32C4023.86 1896.24 4026.91 1895.92 4029.47 1895.29C4032.09 1894.65 4034.08 1893.73 4035.43 1892.52C4036.78 1891.38 4037.45 1890.11 4037.45 1888.69C4037.52 1887.84 4037.24 1886.99 4036.6 1886.13C4036.03 1885.28 4035.04 1884.5 4033.62 1883.79C4032.13 1883.08 4030.21 1882.48 4027.87 1881.98C4025.53 1881.56 4022.69 1881.24 4019.36 1881.03C4018.37 1880.95 4016.84 1880.92 4014.78 1880.92V1869.43H4050.12L4050.75 1875.07L4050.12 1880.92H4044.79C4045.72 1881.77 4046.39 1882.83 4046.82 1884.11C4047.31 1885.46 4047.56 1886.88 4047.56 1888.37C4047.49 1891.63 4046.46 1894.72 4044.47 1897.63C4042.49 1900.61 4039.44 1903.02 4035.32 1904.86C4031.28 1906.78 4026.28 1907.74 4020.32 1907.74H4009.57C4003.82 1907.74 3998.82 1906.32 3994.56 1903.48C3990.3 1900.64 3987.04 1896.88 3984.77 1892.2C3982.57 1887.52 3981.4 1882.37 3981.26 1876.77C3981.19 1872.72 3981.83 1868.25 3983.17 1863.36C3984.59 1858.39 3986.33 1853.57 3988.39 1848.89L3997.44 1853.57ZM4082.91 1820.15L4052.68 1833.56L4068.86 1850.06C4072.55 1853.82 4074.46 1858.14 4074.61 1863.04C4074.75 1867.94 4073.15 1872.16 4069.82 1875.7C4066.48 1879.18 4061.94 1880.92 4056.2 1880.92H4032.46V1869.43H4056.3C4059.14 1869.43 4061.3 1868.86 4062.79 1867.72C4064.28 1866.59 4064.92 1865.13 4064.71 1863.36C4064.5 1861.59 4063.43 1859.74 4061.52 1857.82L4041.72 1838.03L4044.6 1824.83L4078.76 1809.72L4082.91 1820.15ZM4045.66 1812.81L4073.12 1800.78L4074.82 1805.15L4045.02 1818.24L4045.66 1812.81ZM4113.65 1827.07C4114.43 1828.91 4116.8 1834.06 4120.78 1842.5C4122.12 1845.48 4123.51 1848.5 4124.93 1851.55C4126.63 1855.31 4127.66 1859 4128.01 1862.61C4128.44 1866.23 4127.59 1869.53 4125.46 1872.51C4123.19 1875.7 4120.49 1877.9 4117.37 1879.11C4114.25 1880.32 4110.88 1880.92 4107.26 1880.92H4101.83C4097.86 1880.92 4094.31 1880.28 4091.19 1879C4088.07 1877.73 4085.48 1876.31 4083.42 1874.75L4088.42 1865.27L4088.96 1865.59C4090.73 1866.59 4092.61 1867.47 4094.6 1868.25C4096.65 1869.03 4099.07 1869.43 4101.83 1869.43H4107.26C4109.74 1869.43 4111.8 1869.18 4113.43 1868.68C4115.07 1868.18 4116.31 1867.3 4117.16 1866.02C4117.94 1864.88 4118.22 1863.68 4118.01 1862.4C4117.8 1861.05 4117.05 1859.07 4115.77 1856.44L4108.54 1840.69C4106.98 1837.5 4105.63 1834.59 4104.49 1831.96L4113.65 1827.07ZM4124.93 1851.65C4126.98 1856.19 4128.72 1859.71 4130.14 1862.19C4131.63 1864.67 4133.19 1866.52 4134.82 1867.72C4136.46 1868.86 4138.34 1869.43 4140.46 1869.43H4142.27L4142.81 1875.49L4142.27 1880.92H4140.46C4136.78 1880.92 4133.48 1879.96 4130.57 1878.05C4127.73 1876.06 4125.18 1873.33 4122.91 1869.85C4120.63 1866.3 4118.26 1861.8 4115.77 1856.33L4124.93 1851.65ZM4141.17 1869.43H4152.35C4155.47 1869.43 4157.74 1868.75 4159.16 1867.4C4160.58 1866.06 4161.22 1864.21 4161.07 1861.87C4160.93 1859.88 4160.54 1857.08 4159.9 1853.46C4159.27 1849.84 4158.59 1846.4 4157.88 1843.14L4167.57 1840.69C4168.35 1844.03 4169.09 1847.79 4169.8 1851.97C4170.51 1856.16 4170.94 1859.53 4171.08 1862.08C4171.22 1865.27 4170.58 1868.33 4169.16 1871.23C4167.81 1874.14 4165.72 1876.48 4162.88 1878.26C4160.12 1880.03 4156.75 1880.92 4152.77 1880.92H4141.17V1869.43ZM4151.82 1816.75C4153.87 1816.75 4155.9 1816.75 4157.88 1816.75C4159.87 1816.75 4161.78 1816.75 4163.63 1816.75C4163.63 1819.37 4163.63 1821.32 4163.63 1822.6C4163.63 1823.88 4163.63 1825.83 4163.63 1828.45C4160.93 1828.45 4158.95 1828.45 4157.67 1828.45C4156.39 1828.45 4154.44 1828.45 4151.82 1828.45C4151.82 1825.76 4151.82 1823.77 4151.82 1822.49C4151.82 1821.22 4151.82 1819.3 4151.82 1816.75ZM4203.24 1847.18V1877.19C4203.24 1883.72 4202.1 1889.26 4199.83 1893.8C4197.63 1898.34 4194.37 1901.78 4190.04 1904.12C4185.78 1906.53 4180.53 1907.74 4174.29 1907.74H4167.58V1896.24H4174.29C4178.97 1896.24 4182.66 1895.61 4185.36 1894.33C4188.12 1893.12 4190.11 1891.14 4191.32 1888.37C4192.59 1885.6 4193.23 1881.88 4193.23 1877.19V1847.18H4203.24ZM4192.27 1821.32C4194.33 1821.32 4196.35 1821.32 4198.34 1821.32C4200.33 1821.32 4202.24 1821.32 4204.09 1821.32C4204.09 1823.95 4204.09 1825.9 4204.09 1827.17C4204.09 1828.45 4204.09 1830.4 4204.09 1833.03C4201.39 1833.03 4199.4 1833.03 4198.13 1833.03C4196.85 1833.03 4194.9 1833.03 4192.27 1833.03C4192.27 1830.33 4192.27 1828.35 4192.27 1827.07C4192.27 1825.79 4192.27 1823.88 4192.27 1821.32ZM4253.83 1853.57C4251.84 1857.9 4250.28 1862.01 4249.15 1865.91C4248.08 1869.82 4247.59 1873.4 4247.66 1876.66C4247.73 1880.64 4248.4 1884.08 4249.68 1886.99C4251.03 1889.89 4253.05 1892.16 4255.75 1893.8C4258.44 1895.43 4261.85 1896.24 4265.96 1896.24H4276.71C4280.97 1896.24 4284.34 1895.82 4286.82 1894.97C4289.38 1894.19 4291.22 1892.94 4292.36 1891.24C4293.56 1889.54 4294.24 1887.3 4294.38 1884.54C4294.45 1883.62 4294.38 1883.01 4294.16 1882.73C4293.95 1882.44 4293.35 1882.16 4292.36 1881.88L4269.37 1875.7C4267.59 1869.96 4267.24 1864.49 4268.3 1859.31C4269.44 1854.14 4271.57 1849.77 4274.69 1846.22C4277.39 1843.17 4280.44 1840.83 4283.84 1839.2C4287.25 1837.57 4290.79 1836.72 4294.48 1836.65C4296.47 1836.58 4298.56 1836.68 4300.76 1836.97C4302.96 1837.25 4304.88 1837.64 4306.51 1838.14L4304.17 1848.89C4301.47 1848.1 4298.39 1847.82 4294.91 1848.03C4292.36 1848.1 4290.01 1848.64 4287.89 1849.63C4285.76 1850.55 4283.88 1851.9 4282.25 1853.67C4280.54 1855.52 4279.3 1857.43 4278.52 1859.42C4277.81 1861.41 4277.56 1863.64 4277.78 1866.13C4279.69 1866.55 4282.99 1867.44 4287.67 1868.79C4289.45 1869.28 4291.01 1869.74 4292.36 1870.17C4293.7 1870.52 4294.95 1870.84 4296.08 1871.13C4298.28 1871.77 4299.98 1872.69 4301.19 1873.89C4302.47 1875.03 4303.35 1876.45 4303.85 1878.15C4304.42 1879.78 4304.63 1881.84 4304.49 1884.32C4304.27 1889.22 4303.07 1893.41 4300.87 1896.88C4298.67 1900.43 4295.51 1903.13 4291.4 1904.97C4287.35 1906.82 4282.46 1907.74 4276.71 1907.74H4265.96C4260.22 1907.74 4255.21 1906.32 4250.96 1903.48C4246.7 1900.64 4243.44 1896.88 4241.17 1892.2C4238.97 1887.52 4237.8 1882.37 4237.65 1876.77C4237.58 1872.72 4238.22 1868.25 4239.57 1863.36C4240.99 1858.39 4242.73 1853.57 4244.78 1848.89L4253.83 1853.57ZM4321.41 1811.21H4331.41L4331.52 1880.92H4321.51L4321.41 1811.21ZM4363.81 1847.18V1877.19C4363.81 1883.72 4362.67 1889.26 4360.4 1893.8C4358.2 1898.34 4354.94 1901.78 4350.61 1904.12C4346.35 1906.53 4341.1 1907.74 4334.86 1907.74H4328.16V1896.24H4334.86C4339.54 1896.24 4343.23 1895.61 4345.93 1894.33C4348.7 1893.12 4350.68 1891.14 4351.89 1888.37C4353.17 1885.6 4353.8 1881.88 4353.8 1877.19V1847.18H4363.81ZM4363.81 1862.4C4363.81 1864.96 4364.45 1866.76 4365.72 1867.83C4367 1868.89 4369.02 1869.43 4371.79 1869.43H4373.17L4373.81 1875.28L4373.17 1880.92H4371.79C4369.45 1880.92 4367.32 1880.46 4365.4 1879.54C4363.56 1878.54 4362 1876.87 4360.72 1874.53C4359.52 1872.19 4358.88 1869.11 4358.81 1865.27L4363.81 1862.4ZM4372.11 1869.43H4383.28C4386.4 1869.43 4388.67 1868.75 4390.09 1867.4C4391.51 1866.06 4392.15 1864.21 4392.01 1861.87C4391.86 1859.88 4391.47 1857.08 4390.84 1853.46C4390.2 1849.84 4389.52 1846.4 4388.81 1843.14L4398.5 1840.69C4399.28 1844.03 4400.02 1847.79 4400.73 1851.97C4401.44 1856.16 4401.87 1859.53 4402.01 1862.08C4402.15 1865.27 4401.51 1868.33 4400.09 1871.23C4398.75 1874.14 4396.65 1876.48 4393.82 1878.26C4391.05 1880.03 4387.68 1880.92 4383.71 1880.92H4372.11V1869.43ZM4379.45 1895.92C4381.51 1895.92 4383.53 1895.92 4385.51 1895.92C4387.5 1895.92 4389.42 1895.92 4391.26 1895.92C4391.26 1898.62 4391.26 1900.61 4391.26 1901.88C4391.26 1903.16 4391.26 1905.08 4391.26 1907.63C4388.57 1907.63 4386.58 1907.63 4385.3 1907.63C4384.02 1907.63 4382.07 1907.63 4379.45 1907.63C4379.45 1905.01 4379.45 1903.06 4379.45 1901.78C4379.45 1900.5 4379.45 1898.55 4379.45 1895.92ZM4436.89 1873.58C4436.89 1871.59 4437.03 1869.99 4437.31 1868.79C4437.6 1867.58 4438.27 1865.95 4439.33 1863.89C4440.47 1861.76 4442.46 1858.5 4445.29 1854.1L4446.36 1852.61L4451.68 1856.12C4450.19 1858.39 4448.74 1860.7 4447.32 1863.04C4446.11 1865.03 4445.37 1866.41 4445.08 1867.19C4444.8 1867.9 4444.66 1868.82 4444.66 1869.96V1873.47L4436.89 1873.58ZM4444.34 1881.03C4442.21 1881.03 4440.43 1880.32 4439.02 1878.9C4437.6 1877.48 4436.89 1875.7 4436.89 1873.58C4436.89 1871.59 4437.6 1869.92 4439.02 1868.57C4440.43 1867.15 4442.21 1866.45 4444.34 1866.45C4445.61 1866.45 4446.82 1866.76 4447.95 1867.4C4449.09 1868.04 4449.98 1868.93 4450.62 1870.06C4451.32 1871.13 4451.68 1872.3 4451.68 1873.58C4451.68 1874.99 4451.32 1876.27 4450.62 1877.41C4449.98 1878.54 4449.09 1879.43 4447.95 1880.07C4446.82 1880.71 4445.61 1881.03 4444.34 1881.03ZM4478.2 1854.21C4476.36 1858.04 4474.94 1861.8 4473.95 1865.49C4472.95 1869.11 4472.46 1872.72 4472.46 1876.34C4472.46 1880.39 4473.06 1883.9 4474.27 1886.88C4475.54 1889.86 4477.53 1892.16 4480.23 1893.8C4482.99 1895.43 4486.54 1896.24 4490.87 1896.24H4501.51C4506.19 1896.24 4509.81 1895.75 4512.37 1894.75C4514.92 1893.76 4516.69 1892.13 4517.69 1889.86C4518.75 1887.66 4519.28 1884.57 4519.28 1880.6V1847.18H4529.39V1880.6C4529.39 1889.04 4527.12 1895.68 4522.58 1900.5C4518.11 1905.33 4511.09 1907.74 4501.51 1907.74H4490.87C4484.77 1907.74 4479.59 1906.28 4475.33 1903.37C4471.07 1900.54 4467.85 1896.71 4465.65 1891.88C4463.52 1887.13 4462.45 1881.95 4462.45 1876.34C4462.45 1871.73 4463.13 1867.12 4464.48 1862.51C4465.89 1857.9 4467.67 1853.6 4469.8 1849.63L4478.2 1854.21ZM4529.39 1858.89C4529.39 1862.79 4530.17 1865.52 4531.74 1867.08C4533.37 1868.64 4535.6 1869.43 4538.44 1869.43C4541.49 1869.43 4543.69 1868.75 4545.04 1867.4C4546.46 1865.98 4547.17 1863.82 4547.17 1860.91V1847.18H4557.17V1861.98C4557.17 1864.53 4557.81 1866.41 4559.09 1867.62C4560.36 1868.75 4562.31 1869.35 4564.94 1869.43C4567.78 1869.35 4569.87 1868.64 4571.22 1867.3C4572.64 1865.95 4573.24 1864.14 4573.03 1861.87C4572.82 1859.46 4572.39 1856.58 4571.75 1853.25C4571.18 1849.84 4570.54 1846.47 4569.84 1843.14L4579.52 1840.69C4580.3 1844.03 4581.05 1847.79 4581.75 1851.97C4582.46 1856.16 4582.89 1859.53 4583.03 1862.08C4583.1 1865.2 4582.46 1868.22 4581.12 1871.13C4579.84 1874.04 4577.82 1876.41 4575.05 1878.26C4572.35 1880.03 4568.98 1880.92 4564.94 1880.92C4562.53 1880.92 4560.15 1880.39 4557.81 1879.32C4555.47 1878.19 4553.48 1876.52 4551.85 1874.32C4550.15 1876.45 4548.16 1878.08 4545.89 1879.22C4543.69 1880.35 4541.21 1880.92 4538.44 1880.92C4535.18 1880.92 4532.23 1880.07 4529.61 1878.36C4527.05 1876.66 4525.03 1874.14 4523.54 1870.81C4522.12 1867.47 4521.41 1863.5 4521.41 1858.89H4529.39ZM4545.78 1808.02C4548.2 1808.02 4550 1808.02 4551.21 1808.02C4552.42 1808.02 4554.19 1808.02 4556.53 1808.02C4556.53 1810.43 4556.53 1812.24 4556.53 1813.45C4556.53 1814.65 4556.53 1816.43 4556.53 1818.77C4554.12 1818.77 4552.31 1818.77 4551.1 1818.77C4549.97 1818.77 4548.2 1818.77 4545.78 1818.77C4545.78 1816.36 4545.78 1814.58 4545.78 1813.45C4545.78 1812.24 4545.78 1810.43 4545.78 1808.02ZM4535.57 1822.28C4537.27 1822.28 4538.55 1822.28 4539.4 1822.28C4540.25 1822.28 4541.53 1822.28 4543.23 1822.28C4544.44 1822.28 4545.68 1822.28 4546.95 1822.28C4546.95 1824.83 4546.95 1826.75 4546.95 1828.03C4546.95 1829.23 4546.95 1831.08 4546.95 1833.56C4544.33 1833.56 4542.38 1833.56 4541.1 1833.56C4539.89 1833.56 4538.05 1833.56 4535.57 1833.56C4535.57 1831.01 4535.57 1829.13 4535.57 1827.92C4535.57 1826.64 4535.57 1824.76 4535.57 1822.28ZM4555.36 1822.28C4557.92 1822.28 4559.8 1822.28 4561 1822.28C4562.28 1822.28 4564.16 1822.28 4566.64 1822.28C4566.64 1824.83 4566.64 1826.75 4566.64 1828.03C4566.64 1829.23 4566.64 1831.08 4566.64 1833.56C4564.09 1833.56 4562.17 1833.56 4560.9 1833.56C4559.69 1833.56 4557.84 1833.56 4555.36 1833.56C4555.36 1831.01 4555.36 1829.13 4555.36 1827.92C4555.36 1826.64 4555.36 1824.76 4555.36 1822.28ZM4613.45 1847.18V1877.19C4613.45 1883.72 4612.31 1889.26 4610.04 1893.8C4607.84 1898.34 4604.58 1901.78 4600.25 1904.12C4595.99 1906.53 4590.74 1907.74 4584.5 1907.74H4577.79V1896.24H4584.5C4589.18 1896.24 4592.87 1895.61 4595.57 1894.33C4598.33 1893.12 4600.32 1891.14 4601.53 1888.37C4602.8 1885.6 4603.44 1881.88 4603.44 1877.19V1847.18H4613.45ZM4602.48 1821.32C4604.54 1821.32 4606.56 1821.32 4608.55 1821.32C4610.54 1821.32 4612.45 1821.32 4614.3 1821.32C4614.3 1823.95 4614.3 1825.9 4614.3 1827.17C4614.3 1828.45 4614.3 1830.4 4614.3 1833.03C4611.6 1833.03 4609.62 1833.03 4608.34 1833.03C4607.06 1833.03 4605.11 1833.03 4602.48 1833.03C4602.48 1830.33 4602.48 1828.35 4602.48 1827.07C4602.48 1825.79 4602.48 1823.88 4602.48 1821.32ZM4653.67 1847.18V1877.19C4653.67 1883.72 4652.53 1889.26 4650.26 1893.8C4648.06 1898.34 4644.8 1901.78 4640.47 1904.12C4636.21 1906.53 4630.96 1907.74 4624.72 1907.74H4618.02V1896.24H4624.72C4629.4 1896.24 4633.09 1895.61 4635.79 1894.33C4638.56 1893.12 4640.54 1891.14 4641.75 1888.37C4643.02 1885.6 4643.66 1881.88 4643.66 1877.19V1847.18H4653.67ZM4676.97 1896.24C4681.86 1896.24 4685.59 1895.71 4688.14 1894.65C4690.77 1893.58 4692.54 1891.92 4693.46 1889.65C4694.46 1887.45 4694.95 1884.4 4694.95 1880.49V1859.53C4694.95 1855.48 4694.03 1852.33 4692.19 1850.06C4690.41 1847.79 4687.68 1846.65 4683.99 1846.65C4680.66 1846.65 4678.07 1847.82 4676.22 1850.16C4674.38 1852.5 4673.45 1855.59 4673.45 1859.42C4673.45 1862.97 4674.31 1865.52 4676.01 1867.08C4677.71 1868.57 4680.41 1869.32 4684.1 1869.32H4699.42V1880.6H4684.1C4677.92 1880.6 4672.96 1878.75 4669.2 1875.07C4665.44 1871.38 4663.56 1866.23 4663.56 1859.63C4663.56 1855.09 4664.41 1850.98 4666.11 1847.29C4667.89 1843.6 4670.33 1840.73 4673.45 1838.67C4676.58 1836.54 4680.09 1835.48 4683.99 1835.48C4688.25 1835.48 4691.94 1836.5 4695.06 1838.56C4698.25 1840.55 4700.7 1843.39 4702.4 1847.08C4704.18 1850.69 4705.06 1854.88 4705.06 1859.63V1880.49C4705.06 1885.89 4704.1 1890.6 4702.19 1894.65C4700.34 1898.69 4697.33 1901.88 4693.14 1904.23C4689.03 1906.57 4683.64 1907.74 4676.97 1907.74H4665.15V1896.24H4676.97ZM4753.56 1896.24C4758.46 1896.24 4762.18 1895.71 4764.74 1894.65C4767.36 1893.58 4769.14 1891.92 4770.06 1889.65C4771.05 1887.45 4771.55 1884.4 4771.55 1880.49V1859.53C4771.55 1855.48 4770.63 1852.33 4768.78 1850.06C4767.01 1847.79 4764.28 1846.65 4760.59 1846.65C4757.25 1846.65 4754.66 1847.82 4752.82 1850.16C4750.97 1852.5 4750.05 1855.59 4750.05 1859.42C4750.05 1862.97 4750.9 1865.52 4752.61 1867.08C4754.31 1868.57 4757 1869.32 4760.69 1869.32H4776.02V1880.6H4760.69C4754.52 1880.6 4749.55 1878.75 4745.79 1875.07C4742.03 1871.38 4740.15 1866.23 4740.15 1859.63C4740.15 1855.09 4741 1850.98 4742.71 1847.29C4744.48 1843.6 4746.93 1840.73 4750.05 1838.67C4753.17 1836.54 4756.68 1835.48 4760.59 1835.48C4764.84 1835.48 4768.53 1836.5 4771.65 1838.56C4774.85 1840.55 4777.3 1843.39 4779 1847.08C4780.77 1850.69 4781.66 1854.88 4781.66 1859.63V1880.49C4781.66 1885.89 4780.7 1890.6 4778.79 1894.65C4776.94 1898.69 4773.93 1901.88 4769.74 1904.23C4765.62 1906.57 4760.23 1907.74 4753.56 1907.74H4741.75V1896.24H4753.56ZM4859.96 1858.68C4860.88 1862.65 4862.72 1865.45 4865.49 1867.08C4868.26 1868.64 4871.56 1869.43 4875.39 1869.43H4877.52L4878.16 1875.07L4877.52 1880.92H4875.39C4869.86 1880.92 4864.68 1879.39 4859.85 1876.34C4855.1 1873.29 4851.87 1868.33 4850.17 1861.44C4847.26 1849.1 4844.35 1836.79 4841.44 1824.51L4851.23 1821.96L4859.96 1858.68ZM4856.66 1846.33C4857.16 1850.87 4857.19 1854.67 4856.77 1857.72C4856.41 1860.7 4855.45 1863.54 4853.89 1866.23C4851.98 1869.57 4849.53 1872.16 4846.55 1874C4843.57 1875.78 4840.34 1876.66 4836.86 1876.66C4833.39 1876.66 4830.02 1875.7 4826.75 1873.79C4823.63 1872.01 4821.18 1869.5 4819.41 1866.23C4817.64 1862.97 4816.71 1859.46 4816.64 1855.7C4816.64 1851.94 4817.57 1848.5 4819.41 1845.37C4820.69 1843.24 4822.14 1841.44 4823.77 1839.95C4825.48 1838.46 4828.14 1836.79 4831.76 1834.94C4835.44 1833.03 4840.84 1830.65 4847.93 1827.81L4851.76 1838.46C4846.3 1840.23 4841.94 1841.9 4838.67 1843.46C4835.41 1844.95 4833.03 1846.33 4831.54 1847.61C4830.05 1848.81 4828.92 1850.06 4828.14 1851.33C4826.72 1853.6 4826.33 1855.94 4826.97 1858.36C4827.68 1860.77 4829.13 1862.68 4831.33 1864.1C4833.6 1865.45 4836.12 1865.88 4838.89 1865.38C4841.65 1864.81 4843.96 1863.39 4845.8 1861.12C4847.01 1859.71 4847.72 1858.04 4847.93 1856.12C4848.14 1854.21 4847.9 1851.44 4847.19 1847.82L4856.66 1846.33ZM4876.48 1869.43H4889.99C4893.75 1869.43 4896.41 1868.79 4897.97 1867.51C4899.53 1866.16 4900.24 1864.28 4900.1 1861.87C4899.96 1859.88 4899.57 1857.08 4898.93 1853.46C4898.36 1849.84 4897.73 1846.4 4897.02 1843.14L4906.7 1840.69C4907.48 1844.03 4908.23 1847.79 4908.94 1851.97C4909.64 1856.16 4910.07 1859.53 4910.21 1862.08C4910.28 1865.35 4909.61 1868.43 4908.19 1871.34C4906.77 1874.18 4904.54 1876.48 4901.49 1878.26C4898.51 1880.03 4894.78 1880.92 4890.31 1880.92H4876.48V1869.43ZM4871.69 1896.14C4873.39 1896.14 4874.67 1896.14 4875.52 1896.14C4876.37 1896.14 4877.65 1896.14 4879.35 1896.14C4880.56 1896.14 4881.8 1896.14 4883.07 1896.14C4883.07 1898.69 4883.07 1900.57 4883.07 1901.78C4883.07 1903.06 4883.07 1904.94 4883.07 1907.42C4880.45 1907.42 4878.5 1907.42 4877.22 1907.42C4876.01 1907.42 4874.17 1907.42 4871.69 1907.42C4871.69 1904.86 4871.69 1902.95 4871.69 1901.67C4871.69 1900.47 4871.69 1898.62 4871.69 1896.14ZM4891.06 1896.14C4893.68 1896.14 4895.6 1896.14 4896.8 1896.14C4898.08 1896.14 4899.96 1896.14 4902.44 1896.14C4902.44 1898.69 4902.44 1900.57 4902.44 1901.78C4902.44 1903.06 4902.44 1904.94 4902.44 1907.42C4899.82 1907.42 4897.87 1907.42 4896.59 1907.42C4895.38 1907.42 4893.54 1907.42 4891.06 1907.42C4891.06 1904.86 4891.06 1902.95 4891.06 1901.67C4891.06 1900.47 4891.06 1898.62 4891.06 1896.14ZM4951.11 1827.07C4951.89 1828.91 4954.27 1834.06 4958.24 1842.5C4959.59 1845.48 4960.97 1848.5 4962.39 1851.55C4964.1 1855.31 4965.12 1859 4965.48 1862.61C4965.9 1866.23 4965.05 1869.53 4962.92 1872.51C4960.65 1875.7 4957.96 1877.9 4954.84 1879.11C4951.71 1880.32 4948.34 1880.92 4944.73 1880.92H4939.3C4935.33 1880.92 4931.78 1880.28 4928.66 1879C4925.53 1877.73 4922.94 1876.31 4920.89 1874.75L4925.89 1865.27L4926.42 1865.59C4928.2 1866.59 4930.08 1867.47 4932.06 1868.25C4934.12 1869.03 4936.53 1869.43 4939.3 1869.43H4944.73C4947.21 1869.43 4949.27 1869.18 4950.9 1868.68C4952.53 1868.18 4953.77 1867.3 4954.62 1866.02C4955.4 1864.88 4955.69 1863.68 4955.48 1862.4C4955.26 1861.05 4954.52 1859.07 4953.24 1856.44L4946 1840.69C4944.44 1837.5 4943.09 1834.59 4941.96 1831.96L4951.11 1827.07ZM4962.39 1851.65C4964.45 1856.19 4966.19 1859.71 4967.61 1862.19C4969.1 1864.67 4970.66 1866.52 4972.29 1867.72C4973.92 1868.86 4975.8 1869.43 4977.93 1869.43H4979.74L4980.27 1875.49L4979.74 1880.92H4977.93C4974.24 1880.92 4970.94 1879.96 4968.03 1878.05C4965.2 1876.06 4962.64 1873.33 4960.37 1869.85C4958.1 1866.3 4955.72 1861.8 4953.24 1856.33L4962.39 1851.65ZM4942.28 1805.68C4944.34 1805.68 4946.36 1805.68 4948.34 1805.68C4950.33 1805.68 4952.25 1805.68 4954.09 1805.68C4954.09 1808.3 4954.09 1810.25 4954.09 1811.53C4954.09 1812.81 4954.09 1814.76 4954.09 1817.38C4951.4 1817.38 4949.41 1817.38 4948.13 1817.38C4946.85 1817.38 4944.9 1817.38 4942.28 1817.38C4942.28 1814.69 4942.28 1812.7 4942.28 1811.42C4942.28 1810.15 4942.28 1808.23 4942.28 1805.68ZM4978.64 1869.43H4983.53C4987.86 1869.43 4991.48 1869.28 4994.39 1869C4997.37 1868.64 4999.92 1868.11 5002.05 1867.4L4994.92 1857.82C4991.73 1853.43 4989.35 1850.23 4987.79 1848.25L4994.92 1836.22H5022.7C5026.6 1836.22 5029.72 1837.6 5032.06 1840.37C5034.48 1843.07 5035.61 1846.26 5035.47 1849.95C5035.4 1853.64 5033.91 1856.87 5031 1859.63L5027.27 1863.15C5025.36 1864.85 5023.41 1866.59 5021.42 1868.36C5022.7 1868.79 5023.98 1869.07 5025.25 1869.21C5026.53 1869.35 5028.13 1869.43 5030.04 1869.43H5041.85L5042.6 1875.38L5041.85 1880.92H5028.34C5024.65 1880.92 5021.46 1880.49 5018.76 1879.64C5016.06 1878.72 5013.51 1877.41 5011.1 1875.7C5008.12 1877.41 5004.57 1878.72 5000.46 1879.64C4996.41 1880.49 4991.37 1880.92 4985.34 1880.92H4978.64V1869.43ZM5012.06 1864.21C5013.62 1862.79 5015.78 1860.63 5018.55 1857.72C5020.46 1855.8 5022.31 1853.99 5024.08 1852.29C5024.93 1851.51 5025.39 1850.69 5025.47 1849.84C5025.61 1848.92 5025.32 1848.18 5024.61 1847.61C5023.9 1846.97 5022.88 1846.65 5021.53 1846.65H4998.65C5000.21 1848.57 5002.44 1851.47 5005.35 1855.38C5007.69 1858.57 5009.93 1861.51 5012.06 1864.21ZM5005.35 1814.3C5007.41 1814.3 5009.43 1814.3 5011.42 1814.3C5013.4 1814.3 5015.32 1814.3 5017.16 1814.3C5017.16 1816.92 5017.16 1818.87 5017.16 1820.15C5017.16 1821.43 5017.16 1823.38 5017.16 1826C5014.47 1826 5012.48 1826 5011.2 1826C5009.93 1826 5007.98 1826 5005.35 1826C5005.35 1823.31 5005.35 1821.32 5005.35 1820.04C5005.35 1818.77 5005.35 1816.85 5005.35 1814.3ZM5040.79 1869.43H5054.3C5058.07 1869.43 5060.73 1868.79 5062.29 1867.51C5063.85 1866.16 5064.56 1864.28 5064.42 1861.87C5064.27 1859.88 5063.88 1857.08 5063.24 1853.46C5062.68 1849.84 5062.04 1846.4 5061.33 1843.14L5071.01 1840.69C5071.79 1844.03 5072.54 1847.79 5073.25 1851.97C5073.96 1856.16 5074.38 1859.53 5074.53 1862.08C5074.6 1865.35 5073.92 1868.43 5072.5 1871.34C5071.08 1874.18 5068.85 1876.48 5065.8 1878.26C5062.82 1880.03 5059.09 1880.92 5054.62 1880.92H5040.79V1869.43ZM5044.94 1817.06C5046.64 1817.06 5047.92 1817.06 5048.77 1817.06C5049.62 1817.06 5050.9 1817.06 5052.6 1817.06C5053.81 1817.06 5055.05 1817.06 5056.33 1817.06C5056.33 1819.62 5056.33 1821.53 5056.33 1822.81C5056.33 1824.02 5056.33 1825.86 5056.33 1828.35C5053.7 1828.35 5051.75 1828.35 5050.47 1828.35C5049.27 1828.35 5047.42 1828.35 5044.94 1828.35C5044.94 1825.79 5044.94 1823.91 5044.94 1822.71C5044.94 1821.43 5044.94 1819.55 5044.94 1817.06ZM5064.31 1817.06C5066.93 1817.06 5068.85 1817.06 5070.06 1817.06C5071.33 1817.06 5073.21 1817.06 5075.7 1817.06C5075.7 1819.62 5075.7 1821.53 5075.7 1822.81C5075.7 1824.02 5075.7 1825.86 5075.7 1828.35C5073.07 1828.35 5071.12 1828.35 5069.84 1828.35C5068.64 1828.35 5066.79 1828.35 5064.31 1828.35C5064.31 1825.79 5064.31 1823.91 5064.31 1822.71C5064.31 1821.43 5064.31 1819.55 5064.31 1817.06Z" fill="#243344"/>
<path d="M4215.23 383.237C4373.63 383.237 4528 377.282 4681.74 384.804C4851.51 393.142 4939.06 509.996 4910.62 689.226C4733.47 695.558 4625.36 806.769 4533.15 952.147C4514.83 868.77 4526.2 797.429 4564.38 730.037C4567.68 724.207 4574.32 719.38 4580.47 716.183C4623.99 693.489 4650.76 642.898 4640.2 594.941C4637.66 583.343 4623.93 566.981 4613.69 565.602C4573.2 560.21 4532.03 559.395 4491.11 558.267C4486.46 558.142 4479.13 565.727 4477.21 571.181C4433.12 694.617 4388.47 817.865 4346.44 941.991C4319.67 1020.92 4308.31 1102.23 4325.88 1185.48C4327.37 1192.56 4329.73 1199.46 4332.65 1210.05C4470.25 1215.82 4604.99 1207.92 4723.03 1124.11C4785.13 1079.97 4816.24 1016.78 4819.34 939.922C4819.71 930.958 4820.4 922.056 4821.08 911.775C4900 962.616 4942.41 1068.25 4925.52 1167.8C4900.25 1316.88 4821.08 1390.98 4664.6 1403.89C4579.23 1410.91 4493.16 1411.1 4407.41 1411.79C4257.39 1412.98 4107.37 1412.1 3957.36 1412.1C3946.3 1412.1 3935.31 1412.1 3921.09 1412.1C4019.76 1066.87 4117.37 725.649 4215.23 383.237Z" fill="#C61C1E"/>
<path d="M3839.31 1630.56C3836.29 1636.6 3833.5 1643.61 3830.94 1651.61C3828.52 1659.46 3827.32 1666.25 3827.32 1671.98C3827.32 1676.81 3828.15 1680.73 3829.81 1683.75C3831.62 1686.77 3834.48 1689.03 3838.41 1690.54C3842.33 1692.05 3847.54 1692.8 3854.02 1692.8H3866.02C3872.96 1692.8 3878.24 1692.27 3881.86 1691.22C3885.48 1690.16 3887.97 1688.43 3889.33 1686.01C3890.84 1683.6 3891.59 1680.05 3891.59 1675.38V1604.99H3941.39V1675.38C3941.39 1697.71 3935.2 1715.59 3922.83 1729.02C3910.46 1742.6 3891.52 1749.39 3866.02 1749.39H3854.02C3837.43 1749.39 3823.39 1745.92 3811.93 1738.97C3800.46 1732.03 3791.93 1722.68 3786.35 1710.91C3780.77 1699.29 3777.98 1686.31 3777.98 1671.98C3777.98 1662.02 3779.71 1651.38 3783.18 1640.07C3786.8 1628.75 3790.73 1619.02 3794.95 1610.87L3839.31 1630.56ZM3843.39 1564.47C3850.33 1564.47 3857.34 1564.47 3864.43 1564.47C3873.79 1564.47 3880.73 1564.55 3885.26 1564.7C3885.26 1573.9 3885.26 1580.77 3885.26 1585.29C3885.26 1589.67 3885.26 1596.31 3885.26 1605.21C3875.75 1605.21 3868.66 1605.21 3863.98 1605.21C3859.46 1605.21 3852.59 1605.21 3843.39 1605.21C3843.39 1596.01 3843.39 1589.22 3843.39 1584.84C3843.39 1580.32 3843.39 1573.53 3843.39 1564.47ZM3964.08 1524.86H4013.87V1684.88H3964.08V1524.86ZM4090.37 1604.99V1668.36C4090.37 1684.65 4087.42 1698.84 4081.54 1710.91C4075.81 1723.13 4067.21 1732.56 4055.74 1739.2C4044.42 1745.99 4030.69 1749.39 4014.54 1749.39H4000.29V1692.8H4014.54C4022.99 1692.8 4028.88 1692.35 4032.2 1691.44C4035.67 1690.39 4037.93 1688.28 4038.99 1685.11C4040.05 1681.94 4040.57 1676.36 4040.57 1668.36V1604.99H4090.37ZM4165.9 1692.8C4153.23 1692.8 4142.59 1690.09 4133.99 1684.65C4125.39 1679.07 4118.98 1671.68 4114.75 1662.47C4110.53 1653.27 4108.41 1643.08 4108.41 1631.92V1524.86H4158.21V1630.56C4158.21 1631.92 4158.36 1633.05 4158.66 1633.96C4159.11 1634.71 4159.72 1635.31 4160.47 1635.77C4161.22 1636.07 4162.28 1636.22 4163.64 1636.22H4177.22L4179.48 1663.15L4177.22 1692.8H4165.9ZM4174.87 1636.22H4195.69C4200.67 1636.22 4204.14 1635.39 4206.11 1633.73C4208.07 1632.07 4208.75 1629.5 4208.14 1626.03C4207.09 1620 4206.33 1615.55 4205.88 1612.68C4205.43 1609.81 4204.67 1605.44 4203.62 1599.55L4250.69 1587.56C4252.81 1596.46 4254.62 1605.29 4256.13 1614.04C4257.79 1622.79 4258.62 1630.41 4258.62 1636.9C4258.62 1645.95 4256.35 1654.85 4251.83 1663.61C4247.45 1672.21 4241.19 1679.22 4233.04 1684.65C4224.89 1690.09 4215.46 1692.8 4204.75 1692.8H4174.87V1636.22ZM4171.93 1709.33C4178.87 1709.33 4185.89 1709.33 4192.98 1709.33C4202.33 1709.33 4209.27 1709.4 4213.8 1709.55C4213.8 1718.76 4213.8 1725.55 4213.8 1729.92C4213.8 1734.45 4213.8 1741.16 4213.8 1750.07C4204.3 1750.07 4197.2 1750.07 4192.53 1750.07C4188 1750.07 4181.13 1750.07 4171.93 1750.07C4171.93 1740.86 4171.93 1734 4171.93 1729.47C4171.93 1725.09 4171.93 1718.38 4171.93 1709.33ZM4369.22 1692.8C4356.7 1692.8 4345.76 1689.71 4336.4 1683.52C4327.05 1677.34 4320.33 1668.81 4316.26 1657.95C4312.34 1647.08 4311.66 1634.79 4314.22 1621.06C4316.03 1611.7 4318.22 1602.42 4320.79 1593.22L4367.18 1607.25L4366.28 1610.87C4364.32 1618.72 4363.04 1624.15 4362.43 1627.17C4361.83 1630.18 4362.13 1632.45 4363.34 1633.96C4364.54 1635.46 4366.73 1636.22 4369.9 1636.22H4439.38L4398.19 1590.05L4406.34 1539.35L4486.69 1504.04L4506.61 1555.64L4459.08 1576.69L4476.28 1599.78C4484.73 1611.1 4488.65 1624.15 4488.05 1638.94C4487.44 1653.72 4482.69 1666.4 4473.79 1676.96C4464.89 1687.52 4453.34 1692.8 4439.16 1692.8H4369.22ZM4521.77 1664.51L4519.51 1692.8H4517.24C4507.59 1692.8 4498.84 1690.99 4490.99 1687.37C4483.29 1683.6 4475.6 1677.71 4467.9 1669.72C4460.21 1661.72 4451.08 1650.55 4440.52 1636.22L4436.22 1630.33L4476.28 1599.78L4480.8 1605.66C4487.44 1614.27 4492.72 1620.68 4496.65 1624.9C4500.57 1629.13 4504.04 1632.07 4507.06 1633.73C4510.23 1635.39 4513.62 1636.22 4517.24 1636.22H4519.51L4521.77 1664.51ZM4593.29 1604.99V1630.56C4593.29 1632.82 4593.67 1634.33 4594.42 1635.09C4595.18 1635.84 4596.61 1636.22 4598.73 1636.22H4601.44L4603.7 1664.96L4601.44 1692.8H4595.78C4586.28 1692.8 4577.53 1690.31 4569.53 1685.33C4561.53 1680.2 4555.19 1672.96 4550.52 1663.61C4545.84 1654.1 4543.5 1643.08 4543.5 1630.56V1604.99H4593.29ZM4593.29 1630.56C4593.29 1641.88 4590.58 1652.29 4585.15 1661.8C4579.86 1671.3 4572.85 1678.85 4564.1 1684.43C4555.5 1690.01 4546.52 1692.8 4537.16 1692.8H4517.25V1636.22H4536.71C4539.58 1636.22 4541.39 1635.84 4542.14 1635.09C4543.05 1634.33 4543.5 1632.82 4543.5 1630.56H4593.29ZM4510 1709.78C4516.94 1709.78 4523.96 1709.78 4531.05 1709.78C4540.41 1709.78 4547.35 1709.85 4551.87 1710C4551.87 1719.21 4551.87 1726 4551.87 1730.37C4551.87 1734.9 4551.87 1741.62 4551.87 1750.52C4542.37 1750.52 4535.28 1750.52 4530.6 1750.52C4526.07 1750.52 4519.21 1750.52 4510 1750.52C4510 1741.31 4510 1734.45 4510 1729.92C4510 1725.55 4510 1718.83 4510 1709.78ZM4599.25 1636.22H4611.47C4613.88 1636.22 4615.62 1635.84 4616.67 1635.09C4617.73 1634.18 4618.26 1632.67 4618.26 1630.56V1604.99H4668.05V1636.22C4668.05 1637.58 4668.58 1638.78 4669.64 1639.84C4670.84 1640.75 4672.2 1641.2 4673.71 1641.2C4675.22 1641.2 4676.5 1640.75 4677.56 1639.84C4678.77 1638.78 4679.37 1637.58 4679.37 1636.22V1604.99H4729.16V1634.86C4729.16 1636.67 4729.69 1638.18 4730.75 1639.39C4731.95 1640.44 4733.46 1640.97 4735.27 1640.97C4737.54 1640.97 4739.2 1639.99 4740.25 1638.03C4741.46 1636.07 4741.76 1633.13 4741.16 1629.2C4740.1 1622.41 4739.35 1617.43 4738.89 1614.27C4738.44 1610.95 4737.69 1606.04 4736.63 1599.55L4783.71 1587.56C4785.82 1596.46 4787.63 1605.29 4789.14 1614.04C4790.8 1622.79 4791.63 1630.41 4791.63 1636.9C4791.63 1646.25 4789.59 1655.23 4785.52 1663.83C4781.6 1672.28 4775.41 1679.22 4766.96 1684.65C4758.51 1690.09 4747.87 1692.8 4735.05 1692.8C4729.16 1692.8 4723.65 1691.97 4718.52 1690.31C4713.39 1688.5 4708.64 1685.94 4704.27 1682.62C4700.95 1685.64 4696.34 1688.13 4690.46 1690.09C4684.57 1691.9 4678.99 1692.8 4673.71 1692.8C4666.62 1692.8 4660.13 1691.97 4654.25 1690.31C4648.51 1688.5 4644.29 1685.94 4641.57 1682.62C4638.4 1686.39 4634.18 1689.03 4628.9 1690.54C4623.77 1692.05 4617.88 1692.8 4611.24 1692.8H4599.25V1636.22ZM4965.72 1625.81C4966.78 1630.03 4968.59 1632.82 4971.15 1634.18C4973.72 1635.54 4978.24 1636.22 4984.73 1636.22H4989.26L4991.52 1664.51L4989.26 1692.8H4984.73C4969.34 1692.8 4955.31 1688.43 4942.64 1679.68C4930.11 1670.77 4921.66 1657.19 4917.29 1638.94C4910.5 1610.27 4903.63 1581.6 4896.69 1552.93L4945.12 1540.25L4965.72 1625.81ZM4960.97 1608.15C4962.33 1620.07 4962.33 1630.18 4960.97 1638.48C4959.61 1646.63 4957.05 1653.87 4953.27 1660.21C4947.84 1669.72 4940.98 1677.11 4932.68 1682.39C4924.38 1687.67 4915.32 1690.39 4905.52 1690.54C4895.86 1690.69 4886.35 1688.2 4877 1683.07C4867.79 1678.24 4860.55 1670.92 4855.27 1661.12C4849.99 1651.31 4847.27 1640.82 4847.12 1629.66C4847.12 1618.34 4849.91 1608.15 4855.5 1599.1C4858.82 1593.52 4862.36 1588.92 4866.13 1585.29C4870.06 1581.52 4876.32 1577.3 4884.92 1572.62C4893.52 1567.94 4906.12 1562.28 4922.72 1555.64L4940.6 1605.66C4928.68 1609.44 4919.47 1612.61 4912.99 1615.17C4906.65 1617.58 4902.35 1619.55 4900.08 1621.06C4897.97 1622.41 4896.54 1623.77 4895.78 1625.13C4894.43 1627.39 4894.12 1629.81 4894.88 1632.37C4895.63 1634.79 4897.14 1636.6 4899.41 1637.8C4901.67 1639.01 4904.08 1639.31 4906.65 1638.71C4909.36 1637.95 4911.4 1636.45 4912.76 1634.18C4913.66 1632.67 4914.12 1631.16 4914.12 1629.66C4914.27 1628.15 4914.04 1625.96 4913.44 1623.09L4960.97 1608.15ZM4986.93 1636.22H5007.75C5012.73 1636.22 5016.2 1635.39 5018.17 1633.73C5020.13 1632.07 5020.81 1629.5 5020.2 1626.03C5019.15 1620 5018.39 1615.55 5017.94 1612.68C5017.49 1609.81 5016.73 1605.44 5015.68 1599.55L5062.75 1587.56C5064.87 1596.46 5066.68 1605.29 5068.18 1614.04C5069.84 1622.79 5070.67 1630.41 5070.67 1636.9C5070.67 1645.95 5068.41 1654.85 5063.88 1663.61C5059.51 1672.21 5053.25 1679.22 5045.1 1684.65C5036.95 1690.09 5027.52 1692.8 5016.81 1692.8H4986.93V1636.22ZM4983.99 1709.33C4990.93 1709.33 4997.95 1709.33 5005.04 1709.33C5014.39 1709.33 5021.33 1709.4 5025.86 1709.55C5025.86 1718.76 5025.86 1725.55 5025.86 1729.92C5025.86 1734.45 5025.86 1741.16 5025.86 1750.07C5016.35 1750.07 5009.26 1750.07 5004.59 1750.07C5000.06 1750.07 4993.19 1750.07 4983.99 1750.07C4983.99 1740.86 4983.99 1734 4983.99 1729.47C4983.99 1725.09 4983.99 1718.38 4983.99 1709.33Z" fill="#243344"/>
</g>
<defs>
<clipPath id="clip0_53995_45669">
<rect width="5657" height="2309" fill="white"/>
</clipPath>
</defs>
</svg>
