<svg width="1316" height="1542" viewBox="0 0 1316 1542" fill="none" xmlns="http://www.w3.org/2000/svg">
<path d="M40.1207 1466.18V1496.19C40.1207 1502.72 38.9855 1508.26 36.7151 1512.8C34.5157 1517.34 31.252 1520.78 26.9241 1523.12C22.6671 1525.53 17.4169 1526.74 11.1733 1526.74H4.46863V1515.24H11.1733C15.856 1515.24 19.5454 1514.61 22.2414 1513.33C25.0085 1512.12 26.995 1510.14 28.2012 1507.37C29.4783 1504.6 30.1168 1500.88 30.1168 1496.19V1466.18H40.1207ZM40.1207 1481.4C40.1207 1483.96 40.7592 1485.76 42.0363 1486.83C43.3134 1487.89 45.3355 1488.43 48.1025 1488.43H49.486L50.1245 1494.28L49.486 1499.92H48.1025C45.7611 1499.92 43.6327 1499.46 41.717 1498.54C39.8723 1497.54 38.3115 1495.87 37.0344 1493.53C35.8282 1491.19 35.1897 1488.11 35.1187 1484.27L40.1207 1481.4ZM79.9199 1466.18V1481.4C79.9199 1483.96 80.523 1485.76 81.7291 1486.83C83.0062 1487.89 85.0283 1488.43 87.7953 1488.43H93.3294L93.9679 1494.49L93.3294 1499.92H87.7953C85.1702 1499.92 82.4741 1499.24 79.7071 1497.9C76.9401 1496.55 74.5987 1494.42 72.6831 1491.51C70.7675 1488.53 69.8096 1484.81 69.8096 1480.34V1466.18H79.9199ZM78.6428 1481.83C78.6428 1485.73 77.7205 1489.06 75.8758 1491.83C74.1021 1494.53 71.7608 1496.55 68.8518 1497.9C66.0139 1499.24 63.0695 1499.92 60.0186 1499.92H48.4184V1488.43H60.0186C63.4242 1488.43 65.9074 1487.79 67.4683 1486.51C69.0292 1485.23 69.8096 1483.17 69.8096 1480.34L78.6428 1481.83ZM52.8882 1442.77C54.591 1442.77 55.8681 1442.77 56.7195 1442.77C57.5709 1442.77 58.848 1442.77 60.5508 1442.77C61.7569 1442.77 62.9985 1442.77 64.2756 1442.77C64.2756 1445.32 64.2756 1447.24 64.2756 1448.52C64.2756 1449.72 64.2756 1451.57 64.2756 1454.05C61.6505 1454.05 59.6994 1454.05 58.4223 1454.05C57.2161 1454.05 55.3715 1454.05 52.8882 1454.05C52.8882 1451.5 52.8882 1449.62 52.8882 1448.41C52.8882 1447.13 52.8882 1445.25 52.8882 1442.77ZM72.2574 1442.77C74.8825 1442.77 76.7982 1442.77 78.0043 1442.77C79.2814 1442.77 81.1615 1442.77 83.6448 1442.77C83.6448 1445.32 83.6448 1447.24 83.6448 1448.52C83.6448 1449.72 83.6448 1451.57 83.6448 1454.05C81.0196 1454.05 79.0685 1454.05 77.7914 1454.05C76.5853 1454.05 74.7406 1454.05 72.2574 1454.05C72.2574 1451.5 72.2574 1449.62 72.2574 1448.41C72.2574 1447.13 72.2574 1445.25 72.2574 1442.77ZM92.2767 1488.43H107.07H109.411C113.242 1488.28 116.612 1487.82 119.521 1487.04C122.43 1486.26 124.772 1485.13 126.545 1483.64C128.319 1482.08 129.383 1480.23 129.738 1478.1C130.235 1475.19 130.093 1472.71 129.312 1470.65C128.532 1468.52 127.219 1466.96 125.375 1465.97C123.601 1464.91 121.508 1464.37 119.096 1464.37C115.193 1464.37 112.355 1465.54 110.582 1467.89C108.808 1470.16 107.921 1473.85 107.921 1478.95V1499.6C107.921 1503.15 108.631 1506.06 110.05 1508.33C111.469 1510.6 113.633 1512.34 116.541 1513.54C119.45 1514.75 123.175 1515.42 127.716 1515.56V1508.75C127.716 1504.71 128.567 1501.16 130.27 1498.11C132.044 1494.99 134.314 1492.61 137.081 1490.98C139.919 1489.28 142.864 1488.43 145.914 1488.43H151.448L152.087 1494.07L151.448 1499.92H146.127C143.644 1499.92 141.622 1500.7 140.061 1502.26C138.5 1503.82 137.72 1506.16 137.72 1509.28V1517.48L129.206 1526.95C123.033 1526.95 117.57 1525.92 112.817 1523.86C108.134 1521.88 104.48 1518.83 101.855 1514.71C99.2298 1510.6 97.9172 1505.56 97.9172 1499.6V1478.95C97.9172 1473.7 98.7686 1469.13 100.471 1465.22C102.174 1461.32 104.622 1458.34 107.815 1456.29C111.007 1454.23 114.768 1453.2 119.096 1453.2C123.211 1453.2 126.971 1454.37 130.377 1456.71C133.782 1459.05 136.336 1462.28 138.039 1466.4C139.813 1470.44 140.309 1474.91 139.529 1479.8C138.394 1486.69 134.74 1491.76 128.567 1495.02C122.395 1498.29 115.087 1499.92 106.644 1499.92H92.2767V1488.43ZM150.477 1488.43H161.652C164.774 1488.43 167.044 1487.75 168.463 1486.4C169.882 1485.06 170.521 1483.21 170.379 1480.87C170.237 1478.88 169.847 1476.08 169.208 1472.46C168.569 1468.84 167.895 1465.4 167.186 1462.14L176.871 1459.69C177.651 1463.03 178.396 1466.79 179.105 1470.97C179.815 1475.16 180.241 1478.53 180.383 1481.08C180.524 1484.27 179.886 1487.33 178.467 1490.23C177.119 1493.14 175.026 1495.48 172.188 1497.26C169.421 1499.03 166.051 1499.92 162.078 1499.92H150.477V1488.43ZM157.821 1514.92C159.878 1514.92 161.9 1514.92 163.887 1514.92C165.873 1514.92 167.789 1514.92 169.634 1514.92C169.634 1517.62 169.634 1519.61 169.634 1520.88C169.634 1522.16 169.634 1524.08 169.634 1526.63C166.938 1526.63 164.951 1526.63 163.674 1526.63C162.397 1526.63 160.446 1526.63 157.821 1526.63C157.821 1524.01 157.821 1522.06 157.821 1520.78C157.821 1519.5 157.821 1517.55 157.821 1514.92ZM231.435 1472.57C229.449 1476.9 227.888 1481.01 226.753 1484.91C225.688 1488.82 225.192 1492.4 225.263 1495.66C225.334 1499.64 226.008 1503.08 227.285 1505.99C228.633 1508.89 230.655 1511.16 233.351 1512.8C236.047 1514.43 239.453 1515.24 243.568 1515.24H254.316C257.864 1515.24 260.915 1514.92 263.469 1514.29C266.094 1513.65 268.081 1512.73 269.429 1511.52C270.777 1510.38 271.451 1509.11 271.451 1507.69C271.522 1506.84 271.238 1505.99 270.599 1505.13C270.032 1504.28 269.038 1503.5 267.619 1502.79C266.13 1502.08 264.214 1501.48 261.873 1500.98C259.531 1500.56 256.693 1500.24 253.359 1500.03C252.365 1499.95 250.84 1499.92 248.782 1499.92V1488.43H284.115L284.754 1494.07L284.115 1499.92H278.794C279.716 1500.77 280.39 1501.83 280.816 1503.11C281.313 1504.46 281.561 1505.88 281.561 1507.37C281.49 1510.63 280.461 1513.72 278.475 1516.63C276.488 1519.61 273.437 1522.02 269.322 1523.86C265.278 1525.78 260.276 1526.74 254.316 1526.74H243.568C237.821 1526.74 232.819 1525.32 228.562 1522.48C224.305 1519.64 221.041 1515.88 218.771 1511.2C216.571 1506.52 215.401 1501.37 215.259 1495.77C215.188 1491.72 215.826 1487.25 217.174 1482.36C218.593 1477.39 220.332 1472.57 222.389 1467.89L231.435 1472.57ZM316.908 1439.15L286.683 1452.56L302.86 1469.06C306.549 1472.82 308.465 1477.14 308.607 1482.04C308.749 1486.94 307.152 1491.16 303.818 1494.7C300.483 1498.18 295.942 1499.92 290.195 1499.92H266.463V1488.43H290.302C293.14 1488.43 295.304 1487.86 296.794 1486.72C298.284 1485.59 298.922 1484.13 298.709 1482.36C298.497 1480.59 297.432 1478.74 295.517 1476.82L275.722 1457.03L278.595 1443.83L312.757 1428.72L316.908 1439.15ZM279.66 1431.81L307.117 1419.78L308.82 1424.15L279.021 1437.24L279.66 1431.81ZM347.646 1446.07C348.427 1447.91 350.803 1453.06 354.777 1461.5C356.125 1464.48 357.508 1467.5 358.927 1470.55C360.63 1474.31 361.659 1478 362.013 1481.61C362.439 1485.23 361.588 1488.53 359.459 1491.51C357.189 1494.7 354.493 1496.9 351.371 1498.11C348.249 1499.32 344.879 1499.92 341.261 1499.92H335.833C331.86 1499.92 328.312 1499.28 325.191 1498C322.069 1496.73 319.479 1495.31 317.422 1493.75L322.424 1484.27L322.956 1484.59C324.73 1485.59 326.61 1486.47 328.596 1487.25C330.654 1488.03 333.066 1488.43 335.833 1488.43H341.261C343.744 1488.43 345.801 1488.18 347.433 1487.68C349.065 1487.18 350.307 1486.3 351.158 1485.02C351.939 1483.88 352.222 1482.68 352.01 1481.4C351.797 1480.05 351.052 1478.07 349.775 1475.44L342.538 1459.69C340.977 1456.5 339.629 1453.59 338.494 1450.96L347.646 1446.07ZM358.927 1470.65C360.985 1475.19 362.723 1478.71 364.142 1481.19C365.632 1483.67 367.193 1485.52 368.825 1486.72C370.456 1487.86 372.337 1488.43 374.465 1488.43H376.274L376.806 1494.49L376.274 1499.92H374.465C370.776 1499.92 367.476 1498.96 364.568 1497.05C361.73 1495.06 359.175 1492.33 356.905 1488.85C354.635 1485.3 352.258 1480.8 349.775 1475.33L358.927 1470.65ZM375.173 1488.43H386.348C389.47 1488.43 391.74 1487.75 393.159 1486.4C394.578 1485.06 395.217 1483.21 395.075 1480.87C394.933 1478.88 394.543 1476.08 393.904 1472.46C393.265 1468.84 392.591 1465.4 391.882 1462.14L401.567 1459.69C402.347 1463.03 403.092 1466.79 403.801 1470.97C404.511 1475.16 404.937 1478.53 405.079 1481.08C405.22 1484.27 404.582 1487.33 403.163 1490.23C401.815 1493.14 399.722 1495.48 396.884 1497.26C394.117 1499.03 390.747 1499.92 386.774 1499.92H375.173V1488.43ZM385.816 1435.75C387.873 1435.75 389.895 1435.75 391.882 1435.75C393.869 1435.75 395.784 1435.75 397.629 1435.75C397.629 1438.37 397.629 1440.32 397.629 1441.6C397.629 1442.88 397.629 1444.83 397.629 1447.45C394.933 1447.45 392.946 1447.45 391.669 1447.45C390.392 1447.45 388.441 1447.45 385.816 1447.45C385.816 1444.76 385.816 1442.77 385.816 1441.49C385.816 1440.22 385.816 1438.3 385.816 1435.75ZM437.236 1466.18V1496.19C437.236 1502.72 436.101 1508.26 433.83 1512.8C431.631 1517.34 428.367 1520.78 424.039 1523.12C419.783 1525.53 414.532 1526.74 408.289 1526.74H401.584V1515.24H408.289C412.971 1515.24 416.661 1514.61 419.357 1513.33C422.124 1512.12 424.11 1510.14 425.317 1507.37C426.594 1504.6 427.232 1500.88 427.232 1496.19V1466.18H437.236ZM426.274 1440.32C428.332 1440.32 430.354 1440.32 432.341 1440.32C434.327 1440.32 436.243 1440.32 438.087 1440.32C438.087 1442.95 438.087 1444.9 438.087 1446.17C438.087 1447.45 438.087 1449.4 438.087 1452.03C435.391 1452.03 433.405 1452.03 432.128 1452.03C430.851 1452.03 428.9 1452.03 426.274 1452.03C426.274 1449.33 426.274 1447.35 426.274 1446.07C426.274 1444.79 426.274 1442.88 426.274 1440.32ZM487.83 1472.57C485.843 1476.9 484.282 1481.01 483.147 1484.91C482.083 1488.82 481.586 1492.4 481.657 1495.66C481.728 1499.64 482.402 1503.08 483.679 1505.99C485.027 1508.89 487.049 1511.16 489.745 1512.8C492.442 1514.43 495.847 1515.24 499.962 1515.24H510.711C514.968 1515.24 518.338 1514.82 520.821 1513.97C523.375 1513.19 525.22 1511.94 526.355 1510.24C527.561 1508.54 528.236 1506.3 528.377 1503.54C528.448 1502.62 528.377 1502.01 528.165 1501.73C527.952 1501.44 527.349 1501.16 526.355 1500.88L503.368 1494.7C501.594 1488.96 501.239 1483.49 502.304 1478.31C503.439 1473.14 505.567 1468.77 508.689 1465.22C511.385 1462.17 514.436 1459.83 517.841 1458.2C521.247 1456.57 524.794 1455.72 528.484 1455.65C530.47 1455.58 532.563 1455.68 534.763 1455.97C536.962 1456.25 538.878 1456.64 540.51 1457.14L538.168 1467.89C535.472 1467.1 532.386 1466.82 528.91 1467.03C526.355 1467.1 524.014 1467.64 521.886 1468.63C519.757 1469.55 517.877 1470.9 516.245 1472.67C514.542 1474.52 513.301 1476.43 512.52 1478.42C511.811 1480.41 511.562 1482.64 511.775 1485.13C513.691 1485.55 516.99 1486.44 521.673 1487.79C523.446 1488.28 525.007 1488.74 526.355 1489.17C527.703 1489.52 528.945 1489.84 530.08 1490.13C532.28 1490.77 533.982 1491.69 535.189 1492.89C536.466 1494.03 537.353 1495.45 537.849 1497.15C538.417 1498.78 538.63 1500.84 538.488 1503.32C538.275 1508.22 537.069 1512.41 534.869 1515.88C532.67 1519.43 529.513 1522.13 525.398 1523.97C521.353 1525.82 516.458 1526.74 510.711 1526.74H499.962C494.215 1526.74 489.213 1525.32 484.956 1522.48C480.699 1519.64 477.436 1515.88 475.165 1511.2C472.966 1506.52 471.795 1501.37 471.653 1495.77C471.582 1491.72 472.221 1487.25 473.569 1482.36C474.988 1477.39 476.726 1472.57 478.784 1467.89L487.83 1472.57ZM555.407 1430.21H565.41L565.517 1499.92H555.513L555.407 1430.21ZM597.807 1466.18V1496.19C597.807 1502.72 596.672 1508.26 594.402 1512.8C592.202 1517.34 588.939 1520.78 584.611 1523.12C580.354 1525.53 575.104 1526.74 568.86 1526.74H562.155V1515.24H568.86C573.543 1515.24 577.232 1514.61 579.928 1513.33C582.695 1512.12 584.682 1510.14 585.888 1507.37C587.165 1504.6 587.804 1500.88 587.804 1496.19V1466.18H597.807ZM597.807 1481.4C597.807 1483.96 598.446 1485.76 599.723 1486.83C601 1487.89 603.022 1488.43 605.789 1488.43H607.173L607.811 1494.28L607.173 1499.92H605.789C603.448 1499.92 601.319 1499.46 599.404 1498.54C597.559 1497.54 595.998 1495.87 594.721 1493.53C593.515 1491.19 592.876 1488.11 592.806 1484.27L597.807 1481.4ZM606.105 1488.43H617.28C620.402 1488.43 622.672 1487.75 624.091 1486.4C625.51 1485.06 626.148 1483.21 626.007 1480.87C625.865 1478.88 625.474 1476.08 624.836 1472.46C624.197 1468.84 623.523 1465.4 622.814 1462.14L632.498 1459.69C633.279 1463.03 634.024 1466.79 634.733 1470.97C635.443 1475.16 635.868 1478.53 636.01 1481.08C636.152 1484.27 635.514 1487.33 634.095 1490.23C632.747 1493.14 630.654 1495.48 627.816 1497.26C625.049 1499.03 621.679 1499.92 617.705 1499.92H606.105V1488.43ZM613.448 1514.92C615.506 1514.92 617.528 1514.92 619.515 1514.92C621.501 1514.92 623.417 1514.92 625.262 1514.92C625.262 1517.62 625.262 1519.61 625.262 1520.88C625.262 1522.16 625.262 1524.08 625.262 1526.63C622.565 1526.63 620.579 1526.63 619.302 1526.63C618.025 1526.63 616.074 1526.63 613.448 1526.63C613.448 1524.01 613.448 1522.06 613.448 1520.78C613.448 1519.5 613.448 1517.55 613.448 1514.92ZM670.887 1492.58C670.887 1490.59 671.029 1488.99 671.312 1487.79C671.596 1486.58 672.27 1484.95 673.334 1482.89C674.47 1480.76 676.456 1477.5 679.294 1473.1L680.358 1471.61L685.68 1475.12C684.19 1477.39 682.735 1479.7 681.316 1482.04C680.11 1484.03 679.365 1485.41 679.081 1486.19C678.797 1486.9 678.656 1487.82 678.656 1488.96V1492.47L670.887 1492.58ZM678.336 1500.03C676.208 1500.03 674.434 1499.32 673.015 1497.9C671.596 1496.48 670.887 1494.7 670.887 1492.58C670.887 1490.59 671.596 1488.92 673.015 1487.57C674.434 1486.15 676.208 1485.45 678.336 1485.45C679.613 1485.45 680.82 1485.76 681.955 1486.4C683.09 1487.04 683.977 1487.93 684.615 1489.06C685.325 1490.13 685.68 1491.3 685.68 1492.58C685.68 1493.99 685.325 1495.27 684.615 1496.41C683.977 1497.54 683.09 1498.43 681.955 1499.07C680.82 1499.71 679.613 1500.03 678.336 1500.03ZM712.204 1473.21C710.359 1477.04 708.94 1480.8 707.947 1484.49C706.954 1488.11 706.457 1491.72 706.457 1495.34C706.457 1499.39 707.06 1502.9 708.266 1505.88C709.543 1508.86 711.53 1511.16 714.226 1512.8C716.993 1514.43 720.541 1515.24 724.869 1515.24H735.511C740.194 1515.24 743.812 1514.75 746.366 1513.75C748.92 1512.76 750.694 1511.13 751.687 1508.86C752.752 1506.66 753.284 1503.57 753.284 1499.6V1466.18H763.394V1499.6C763.394 1508.04 761.124 1514.68 756.583 1519.5C752.113 1524.33 745.089 1526.74 735.511 1526.74H724.869C718.767 1526.74 713.588 1525.28 709.331 1522.37C705.074 1519.54 701.845 1515.71 699.646 1510.88C697.518 1506.13 696.453 1500.95 696.453 1495.34C696.453 1490.73 697.127 1486.12 698.475 1481.51C699.894 1476.9 701.668 1472.6 703.797 1468.63L712.204 1473.21ZM763.394 1477.89C763.394 1481.79 764.174 1484.52 765.735 1486.08C767.367 1487.64 769.602 1488.43 772.44 1488.43C775.491 1488.43 777.69 1487.75 779.038 1486.4C780.457 1484.98 781.167 1482.82 781.167 1479.91V1466.18H791.171V1480.98C791.171 1483.53 791.809 1485.41 793.086 1486.62C794.363 1487.75 796.315 1488.35 798.94 1488.43C801.778 1488.35 803.871 1487.64 805.219 1486.3C806.638 1484.95 807.241 1483.14 807.028 1480.87C806.815 1478.46 806.389 1475.58 805.751 1472.25C805.183 1468.84 804.545 1465.47 803.835 1462.14L813.52 1459.69C814.3 1463.03 815.045 1466.79 815.755 1470.97C816.464 1475.16 816.89 1478.53 817.032 1481.08C817.103 1484.2 816.464 1487.22 815.116 1490.13C813.839 1493.04 811.817 1495.41 809.05 1497.26C806.354 1499.03 802.984 1499.92 798.94 1499.92C796.527 1499.92 794.151 1499.39 791.809 1498.32C789.468 1497.19 787.481 1495.52 785.85 1493.32C784.147 1495.45 782.16 1497.08 779.89 1498.22C777.69 1499.35 775.207 1499.92 772.44 1499.92C769.176 1499.92 766.232 1499.07 763.607 1497.36C761.053 1495.66 759.031 1493.14 757.541 1489.81C756.122 1486.47 755.412 1482.5 755.412 1477.89H763.394ZM779.783 1427.02C782.196 1427.02 784.005 1427.02 785.211 1427.02C786.417 1427.02 788.191 1427.02 790.532 1427.02C790.532 1429.43 790.532 1431.24 790.532 1432.45C790.532 1433.65 790.532 1435.43 790.532 1437.77C788.12 1437.77 786.311 1437.77 785.105 1437.77C783.969 1437.77 782.196 1437.77 779.783 1437.77C779.783 1435.36 779.783 1433.58 779.783 1432.45C779.783 1431.24 779.783 1429.43 779.783 1427.02ZM769.567 1441.28C771.269 1441.28 772.547 1441.28 773.398 1441.28C774.249 1441.28 775.526 1441.28 777.229 1441.28C778.435 1441.28 779.677 1441.28 780.954 1441.28C780.954 1443.83 780.954 1445.75 780.954 1447.03C780.954 1448.23 780.954 1450.08 780.954 1452.56C778.329 1452.56 776.378 1452.56 775.101 1452.56C773.895 1452.56 772.05 1452.56 769.567 1452.56C769.567 1450.01 769.567 1448.13 769.567 1446.92C769.567 1445.64 769.567 1443.76 769.567 1441.28ZM789.362 1441.28C791.916 1441.28 793.796 1441.28 795.002 1441.28C796.279 1441.28 798.159 1441.28 800.642 1441.28C800.642 1443.83 800.642 1445.75 800.642 1447.03C800.642 1448.23 800.642 1450.08 800.642 1452.56C798.088 1452.56 796.173 1452.56 794.896 1452.56C793.689 1452.56 791.845 1452.56 789.362 1452.56C789.362 1450.01 789.362 1448.13 789.362 1446.92C789.362 1445.64 789.362 1443.76 789.362 1441.28ZM847.447 1466.18V1496.19C847.447 1502.72 846.311 1508.26 844.041 1512.8C841.842 1517.34 838.578 1520.78 834.25 1523.12C829.993 1525.53 824.743 1526.74 818.499 1526.74H811.795V1515.24H818.499C823.182 1515.24 826.871 1514.61 829.567 1513.33C832.334 1512.12 834.321 1510.14 835.527 1507.37C836.804 1504.6 837.443 1500.88 837.443 1496.19V1466.18H847.447ZM836.485 1440.32C838.542 1440.32 840.565 1440.32 842.551 1440.32C844.538 1440.32 846.453 1440.32 848.298 1440.32C848.298 1442.95 848.298 1444.9 848.298 1446.17C848.298 1447.45 848.298 1449.4 848.298 1452.03C845.602 1452.03 843.615 1452.03 842.338 1452.03C841.061 1452.03 839.11 1452.03 836.485 1452.03C836.485 1449.33 836.485 1447.35 836.485 1446.07C836.485 1444.79 836.485 1442.88 836.485 1440.32ZM887.667 1466.18V1496.19C887.667 1502.72 886.532 1508.26 884.262 1512.8C882.062 1517.34 878.799 1520.78 874.471 1523.12C870.214 1525.53 864.964 1526.74 858.72 1526.74H852.015V1515.24H858.72C863.403 1515.24 867.092 1514.61 869.788 1513.33C872.555 1512.12 874.542 1510.14 875.748 1507.37C877.025 1504.6 877.664 1500.88 877.664 1496.19V1466.18H887.667ZM910.967 1515.24C915.862 1515.24 919.587 1514.71 922.141 1513.65C924.766 1512.58 926.54 1510.92 927.462 1508.65C928.456 1506.45 928.952 1503.4 928.952 1499.49V1478.53C928.952 1474.48 928.03 1471.33 926.185 1469.06C924.412 1466.79 921.68 1465.65 917.991 1465.65C914.656 1465.65 912.066 1466.82 910.222 1469.16C908.377 1471.5 907.455 1474.59 907.455 1478.42C907.455 1481.97 908.306 1484.52 910.009 1486.08C911.712 1487.57 914.408 1488.32 918.097 1488.32H933.422V1499.6H918.097C911.925 1499.6 906.958 1497.75 903.198 1494.07C899.438 1490.38 897.557 1485.23 897.557 1478.63C897.557 1474.09 898.409 1469.98 900.112 1466.29C901.885 1462.6 904.333 1459.73 907.455 1457.67C910.577 1455.54 914.089 1454.48 917.991 1454.48C922.248 1454.48 925.937 1455.5 929.059 1457.56C932.252 1459.55 934.699 1462.39 936.402 1466.08C938.176 1469.69 939.063 1473.88 939.063 1478.63V1499.49C939.063 1504.89 938.105 1509.6 936.189 1513.65C934.345 1517.69 931.329 1520.88 927.143 1523.23C923.028 1525.57 917.636 1526.74 910.967 1526.74H899.154V1515.24H910.967ZM987.563 1515.24C992.458 1515.24 996.183 1514.71 998.737 1513.65C1001.36 1512.58 1003.14 1510.92 1004.06 1508.65C1005.05 1506.45 1005.55 1503.4 1005.55 1499.49V1478.53C1005.55 1474.48 1004.63 1471.33 1002.78 1469.06C1001.01 1466.79 998.276 1465.65 994.587 1465.65C991.252 1465.65 988.663 1466.82 986.818 1469.16C984.973 1471.5 984.051 1474.59 984.051 1478.42C984.051 1481.97 984.902 1484.52 986.605 1486.08C988.308 1487.57 991.004 1488.32 994.693 1488.32H1010.02V1499.6H994.693C988.521 1499.6 983.554 1497.75 979.794 1494.07C976.034 1490.38 974.153 1485.23 974.153 1478.63C974.153 1474.09 975.005 1469.98 976.708 1466.29C978.481 1462.6 980.929 1459.73 984.051 1457.67C987.173 1455.54 990.685 1454.48 994.587 1454.48C998.844 1454.48 1002.53 1455.5 1005.65 1457.56C1008.85 1459.55 1011.3 1462.39 1013 1466.08C1014.77 1469.69 1015.66 1473.88 1015.66 1478.63V1499.49C1015.66 1504.89 1014.7 1509.6 1012.79 1513.65C1010.94 1517.69 1007.93 1520.88 1003.74 1523.23C999.624 1525.57 994.232 1526.74 987.563 1526.74H975.75V1515.24H987.563ZM1093.96 1477.68C1094.88 1481.65 1096.72 1484.45 1099.49 1486.08C1102.26 1487.64 1105.56 1488.43 1109.39 1488.43H1111.52L1112.16 1494.07L1111.52 1499.92H1109.39C1103.86 1499.92 1098.68 1498.39 1093.85 1495.34C1089.1 1492.29 1085.87 1487.33 1084.17 1480.44C1081.26 1468.1 1078.35 1455.79 1075.44 1443.51L1085.23 1440.96L1093.96 1477.68ZM1090.66 1465.33C1091.16 1469.87 1091.19 1473.67 1090.77 1476.72C1090.41 1479.7 1089.45 1482.54 1087.89 1485.23C1085.98 1488.57 1083.53 1491.16 1080.55 1493C1077.57 1494.78 1074.34 1495.66 1070.86 1495.66C1067.39 1495.66 1064.02 1494.7 1060.75 1492.79C1057.63 1491.01 1055.18 1488.5 1053.41 1485.23C1051.64 1481.97 1050.71 1478.46 1050.64 1474.7C1050.64 1470.94 1051.57 1467.5 1053.41 1464.37C1054.69 1462.24 1056.14 1460.44 1057.77 1458.95C1059.48 1457.46 1062.14 1455.79 1065.76 1453.94C1069.44 1452.03 1074.84 1449.65 1081.93 1446.81L1085.76 1457.46C1080.3 1459.23 1075.94 1460.9 1072.67 1462.46C1069.41 1463.95 1067.03 1465.33 1065.54 1466.61C1064.05 1467.81 1062.92 1469.06 1062.14 1470.33C1060.72 1472.6 1060.33 1474.94 1060.97 1477.36C1061.68 1479.77 1063.13 1481.68 1065.33 1483.1C1067.6 1484.45 1070.12 1484.88 1072.89 1484.38C1075.65 1483.81 1077.96 1482.39 1079.8 1480.12C1081.01 1478.71 1081.72 1477.04 1081.93 1475.12C1082.14 1473.21 1081.9 1470.44 1081.19 1466.82L1090.66 1465.33ZM1110.48 1488.43H1123.99C1127.75 1488.43 1130.41 1487.79 1131.97 1486.51C1133.53 1485.16 1134.24 1483.28 1134.1 1480.87C1133.96 1478.88 1133.57 1476.08 1132.93 1472.46C1132.36 1468.84 1131.73 1465.4 1131.02 1462.14L1140.7 1459.69C1141.48 1463.03 1142.23 1466.79 1142.94 1470.97C1143.64 1475.16 1144.07 1478.53 1144.21 1481.08C1144.28 1484.35 1143.61 1487.43 1142.19 1490.34C1140.77 1493.18 1138.54 1495.48 1135.49 1497.26C1132.51 1499.03 1128.78 1499.92 1124.31 1499.92H1110.48V1488.43ZM1105.69 1515.14C1107.39 1515.14 1108.67 1515.14 1109.52 1515.14C1110.37 1515.14 1111.65 1515.14 1113.35 1515.14C1114.56 1515.14 1115.8 1515.14 1117.07 1515.14C1117.07 1517.69 1117.07 1519.57 1117.07 1520.78C1117.07 1522.06 1117.07 1523.94 1117.07 1526.42C1114.45 1526.42 1112.5 1526.42 1111.22 1526.42C1110.01 1526.42 1108.17 1526.42 1105.69 1526.42C1105.69 1523.86 1105.69 1521.95 1105.69 1520.67C1105.69 1519.47 1105.69 1517.62 1105.69 1515.14ZM1125.06 1515.14C1127.68 1515.14 1129.6 1515.14 1130.8 1515.14C1132.08 1515.14 1133.96 1515.14 1136.44 1515.14C1136.44 1517.69 1136.44 1519.57 1136.44 1520.78C1136.44 1522.06 1136.44 1523.94 1136.44 1526.42C1133.82 1526.42 1131.87 1526.42 1130.59 1526.42C1129.38 1526.42 1127.54 1526.42 1125.06 1526.42C1125.06 1523.86 1125.06 1521.95 1125.06 1520.67C1125.06 1519.47 1125.06 1517.62 1125.06 1515.14ZM1185.11 1446.07C1185.89 1447.91 1188.27 1453.06 1192.24 1461.5C1193.59 1464.48 1194.97 1467.5 1196.39 1470.55C1198.1 1474.31 1199.12 1478 1199.48 1481.61C1199.9 1485.23 1199.05 1488.53 1196.92 1491.51C1194.65 1494.7 1191.96 1496.9 1188.84 1498.11C1185.71 1499.32 1182.34 1499.92 1178.73 1499.92H1173.3C1169.33 1499.92 1165.78 1499.28 1162.66 1498C1159.53 1496.73 1156.94 1495.31 1154.89 1493.75L1159.89 1484.27L1160.42 1484.59C1162.2 1485.59 1164.08 1486.47 1166.06 1487.25C1168.12 1488.03 1170.53 1488.43 1173.3 1488.43H1178.73C1181.21 1488.43 1183.27 1488.18 1184.9 1487.68C1186.53 1487.18 1187.77 1486.3 1188.62 1485.02C1189.4 1483.88 1189.69 1482.68 1189.48 1481.4C1189.26 1480.05 1188.52 1478.07 1187.24 1475.44L1180 1459.69C1178.44 1456.5 1177.09 1453.59 1175.96 1450.96L1185.11 1446.07ZM1196.39 1470.65C1198.45 1475.19 1200.19 1478.71 1201.61 1481.19C1203.1 1483.67 1204.66 1485.52 1206.29 1486.72C1207.92 1487.86 1209.8 1488.43 1211.93 1488.43H1213.74L1214.27 1494.49L1213.74 1499.92H1211.93C1208.24 1499.92 1204.94 1498.96 1202.03 1497.05C1199.2 1495.06 1196.64 1492.33 1194.37 1488.85C1192.1 1485.3 1189.72 1480.8 1187.24 1475.33L1196.39 1470.65ZM1176.28 1424.68C1178.34 1424.68 1180.36 1424.68 1182.34 1424.68C1184.33 1424.68 1186.25 1424.68 1188.09 1424.68C1188.09 1427.3 1188.09 1429.25 1188.09 1430.53C1188.09 1431.81 1188.09 1433.76 1188.09 1436.38C1185.4 1436.38 1183.41 1436.38 1182.13 1436.38C1180.85 1436.38 1178.9 1436.38 1176.28 1436.38C1176.28 1433.69 1176.28 1431.7 1176.28 1430.42C1176.28 1429.15 1176.28 1427.23 1176.28 1424.68ZM1212.64 1488.43H1217.53C1221.86 1488.43 1225.48 1488.28 1228.39 1488C1231.37 1487.64 1233.92 1487.11 1236.05 1486.4L1228.92 1476.82C1225.73 1472.43 1223.35 1469.23 1221.79 1467.25L1228.92 1455.22H1256.7C1260.6 1455.22 1263.72 1456.6 1266.06 1459.37C1268.48 1462.07 1269.61 1465.26 1269.47 1468.95C1269.4 1472.64 1267.91 1475.87 1265 1478.63L1261.27 1482.15C1259.36 1483.85 1257.41 1485.59 1255.42 1487.36C1256.7 1487.79 1257.98 1488.07 1259.25 1488.21C1260.53 1488.35 1262.13 1488.43 1264.04 1488.43H1275.85L1276.6 1494.38L1275.85 1499.92H1262.34C1258.65 1499.92 1255.46 1499.49 1252.76 1498.64C1250.06 1497.72 1247.51 1496.41 1245.1 1494.7C1242.12 1496.41 1238.57 1497.72 1234.46 1498.64C1230.41 1499.49 1225.37 1499.92 1219.34 1499.92H1212.64V1488.43ZM1246.06 1483.21C1247.62 1481.79 1249.78 1479.63 1252.55 1476.72C1254.46 1474.8 1256.31 1472.99 1258.08 1471.29C1258.93 1470.51 1259.39 1469.69 1259.47 1468.84C1259.61 1467.92 1259.32 1467.18 1258.61 1466.61C1257.9 1465.97 1256.88 1465.65 1255.53 1465.65H1232.65C1234.21 1467.57 1236.44 1470.47 1239.35 1474.38C1241.69 1477.57 1243.93 1480.51 1246.06 1483.21ZM1239.35 1433.3C1241.41 1433.3 1243.43 1433.3 1245.42 1433.3C1247.4 1433.3 1249.32 1433.3 1251.16 1433.3C1251.16 1435.92 1251.16 1437.87 1251.16 1439.15C1251.16 1440.43 1251.16 1442.38 1251.16 1445C1248.47 1445 1246.48 1445 1245.2 1445C1243.93 1445 1241.98 1445 1239.35 1445C1239.35 1442.31 1239.35 1440.32 1239.35 1439.04C1239.35 1437.77 1239.35 1435.85 1239.35 1433.3ZM1274.79 1488.43H1288.3C1292.07 1488.43 1294.73 1487.79 1296.29 1486.51C1297.85 1485.16 1298.56 1483.28 1298.42 1480.87C1298.27 1478.88 1297.88 1476.08 1297.24 1472.46C1296.68 1468.84 1296.04 1465.4 1295.33 1462.14L1305.01 1459.69C1305.79 1463.03 1306.54 1466.79 1307.25 1470.97C1307.96 1475.16 1308.38 1478.53 1308.53 1481.08C1308.6 1484.35 1307.92 1487.43 1306.5 1490.34C1305.08 1493.18 1302.85 1495.48 1299.8 1497.26C1296.82 1499.03 1293.09 1499.92 1288.62 1499.92H1274.79V1488.43ZM1278.94 1436.06C1280.64 1436.06 1281.92 1436.06 1282.77 1436.06C1283.62 1436.06 1284.9 1436.06 1286.6 1436.06C1287.81 1436.06 1289.05 1436.06 1290.33 1436.06C1290.33 1438.62 1290.33 1440.53 1290.33 1441.81C1290.33 1443.02 1290.33 1444.86 1290.33 1447.35C1287.7 1447.35 1285.75 1447.35 1284.47 1447.35C1283.27 1447.35 1281.42 1447.35 1278.94 1447.35C1278.94 1444.79 1278.94 1442.91 1278.94 1441.71C1278.94 1440.43 1278.94 1438.55 1278.94 1436.06ZM1298.31 1436.06C1300.93 1436.06 1302.85 1436.06 1304.06 1436.06C1305.33 1436.06 1307.21 1436.06 1309.7 1436.06C1309.7 1438.62 1309.7 1440.53 1309.7 1441.81C1309.7 1443.02 1309.7 1444.86 1309.7 1447.35C1307.07 1447.35 1305.12 1447.35 1303.84 1447.35C1302.64 1447.35 1300.79 1447.35 1298.31 1447.35C1298.31 1444.79 1298.31 1442.91 1298.31 1441.71C1298.31 1440.43 1298.31 1438.55 1298.31 1436.06Z" fill="#243344"/>
<path d="M449.232 2.2372C607.633 2.2372 761.998 -3.71833 915.742 3.80444C1085.51 12.1422 1173.06 128.996 1144.62 308.226C967.466 314.558 859.361 425.769 767.152 571.147C748.834 487.77 760.197 416.429 798.385 349.037C801.676 343.207 808.32 338.38 814.467 335.183C857.995 312.489 884.757 261.898 874.201 213.941C871.655 202.343 857.933 185.981 847.687 184.602C807.202 179.21 766.034 178.395 725.114 177.267C720.457 177.142 713.13 184.727 711.205 190.181C667.119 313.617 622.473 436.865 580.436 560.991C553.673 639.918 542.31 721.226 559.883 804.478C561.373 811.562 563.733 818.458 566.651 829.053C704.251 834.82 838.994 826.921 957.034 743.105C1019.13 698.971 1050.24 635.78 1053.34 558.922C1053.71 549.958 1054.4 541.056 1055.08 530.775C1134 581.616 1176.41 687.248 1159.52 786.8C1134.25 935.876 1055.08 1009.98 898.604 1022.89C813.225 1029.91 727.163 1030.1 641.412 1030.79C491.393 1031.98 341.375 1031.1 191.356 1031.1C180.304 1031.1 169.313 1031.1 155.094 1031.1C253.761 685.869 351.372 344.649 449.232 2.2372Z" fill="#C61C1E"/>
<path d="M73.3116 1249.56C70.2938 1255.6 67.5024 1262.61 64.9372 1270.61C62.523 1278.46 61.3159 1285.25 61.3159 1290.98C61.3159 1295.81 62.1458 1299.73 63.8056 1302.75C65.6162 1305.77 68.4831 1308.03 72.4062 1309.54C76.3293 1311.05 81.535 1311.8 88.0232 1311.8H100.019C106.96 1311.8 112.241 1311.27 115.862 1310.22C119.484 1309.16 121.973 1307.43 123.331 1305.01C124.84 1302.6 125.595 1299.05 125.595 1294.38V1223.99H175.388V1294.38C175.388 1316.71 169.201 1334.59 156.829 1348.02C144.456 1361.6 125.519 1368.39 100.019 1368.39H88.0232C71.4255 1368.39 57.3928 1364.92 45.9252 1357.97C34.4577 1351.03 25.9325 1341.68 20.3496 1329.91C14.7667 1318.29 11.9752 1305.31 11.9752 1290.98C11.9752 1281.02 13.7105 1270.38 17.1809 1259.07C20.8022 1247.75 24.7253 1238.02 28.9502 1229.87L73.3116 1249.56ZM77.3856 1183.47C84.3265 1183.47 91.3428 1183.47 98.4346 1183.47C107.79 1183.47 114.731 1183.55 119.257 1183.7C119.257 1192.9 119.257 1199.77 119.257 1204.29C119.257 1208.67 119.257 1215.31 119.257 1224.21C109.751 1224.21 102.659 1224.21 97.9819 1224.21C93.4552 1224.21 86.5898 1224.21 77.3856 1224.21C77.3856 1215.01 77.3856 1208.22 77.3856 1203.84C77.3856 1199.32 77.3856 1192.53 77.3856 1183.47ZM198.081 1143.86H247.875V1303.88H198.081V1143.86ZM324.366 1223.99V1287.36C324.366 1303.65 321.424 1317.84 315.539 1329.91C309.806 1342.13 301.205 1351.56 289.737 1358.2C278.421 1364.99 264.69 1368.39 248.545 1368.39H234.286V1311.8H248.545C256.995 1311.8 262.879 1311.35 266.199 1310.44C269.669 1309.39 271.933 1307.28 272.989 1304.11C274.045 1300.94 274.573 1295.36 274.573 1287.36V1223.99H324.366ZM399.902 1311.8C387.227 1311.8 376.589 1309.09 367.989 1303.65C359.388 1298.07 352.975 1290.68 348.75 1281.47C344.525 1272.27 342.413 1262.08 342.413 1250.92V1143.86H392.206V1249.56C392.206 1250.92 392.357 1252.05 392.659 1252.96C393.112 1253.71 393.715 1254.31 394.47 1254.77C395.224 1255.07 396.28 1255.22 397.638 1255.22H411.218L413.482 1282.15L411.218 1311.8H399.902ZM408.872 1255.22H429.695C434.674 1255.22 438.144 1254.39 440.106 1252.73C442.067 1251.07 442.746 1248.5 442.143 1245.03C441.087 1239 440.332 1234.55 439.88 1231.68C439.427 1228.81 438.672 1224.44 437.616 1218.55L484.694 1206.56C486.806 1215.46 488.617 1224.29 490.126 1233.04C491.785 1241.79 492.615 1249.41 492.615 1255.9C492.615 1264.95 490.352 1273.85 485.825 1282.61C481.449 1291.21 475.188 1298.22 467.04 1303.65C458.892 1309.09 449.461 1311.8 438.748 1311.8H408.872V1255.22ZM405.93 1328.33C412.87 1328.33 419.887 1328.33 426.979 1328.33C436.334 1328.33 443.275 1328.4 447.801 1328.55C447.801 1337.76 447.801 1344.55 447.801 1348.92C447.801 1353.45 447.801 1360.16 447.801 1369.07C438.295 1369.07 431.203 1369.07 426.526 1369.07C421.999 1369.07 415.134 1369.07 405.93 1369.07C405.93 1359.86 405.93 1353 405.93 1348.47C405.93 1344.09 405.93 1337.38 405.93 1328.33ZM603.222 1311.8C590.698 1311.8 579.758 1308.71 570.403 1302.52C561.048 1296.34 554.334 1287.81 550.26 1276.95C546.336 1266.08 545.657 1253.79 548.223 1240.06C550.033 1230.7 552.221 1221.42 554.786 1212.22L601.185 1226.25L600.279 1229.87C598.318 1237.72 597.035 1243.15 596.432 1246.17C595.828 1249.18 596.13 1251.45 597.337 1252.96C598.544 1254.46 600.732 1255.22 603.901 1255.22H673.385L632.192 1209.05L640.34 1158.35L720.689 1123.04L740.606 1174.64L693.076 1195.69L710.277 1218.78C718.727 1230.1 722.65 1243.15 722.047 1257.94C721.443 1272.72 716.69 1285.4 707.788 1295.96C698.885 1306.52 687.342 1311.8 673.159 1311.8H603.222ZM755.77 1283.51L753.507 1311.8H751.244C741.587 1311.8 732.835 1309.99 724.989 1306.37C717.294 1302.6 709.598 1296.71 701.903 1288.72C694.208 1280.72 685.079 1269.55 674.517 1255.22L670.216 1249.33L710.277 1218.78L714.804 1224.66C721.443 1233.27 726.724 1239.68 730.647 1243.9C734.57 1248.13 738.041 1251.07 741.059 1252.73C744.227 1254.39 747.622 1255.22 751.244 1255.22H753.507L755.77 1283.51ZM827.293 1223.99V1249.56C827.293 1251.82 827.671 1253.33 828.425 1254.09C829.179 1254.84 830.613 1255.22 832.725 1255.22H835.441L837.705 1283.96L835.441 1311.8H829.783C820.277 1311.8 811.525 1309.31 803.528 1304.33C795.531 1299.2 789.194 1291.96 784.516 1282.61C779.839 1273.1 777.5 1262.08 777.5 1249.56V1223.99H827.293ZM827.293 1249.56C827.293 1260.88 824.577 1271.29 819.145 1280.8C813.864 1290.3 806.848 1297.85 798.096 1303.43C789.496 1309.01 780.518 1311.8 771.163 1311.8H751.245V1255.22H770.71C773.577 1255.22 775.388 1254.84 776.142 1254.09C777.047 1253.33 777.5 1251.82 777.5 1249.56H827.293ZM744.003 1328.78C750.944 1328.78 757.96 1328.78 765.052 1328.78C774.407 1328.78 781.348 1328.85 785.874 1329C785.874 1338.21 785.874 1345 785.874 1349.37C785.874 1353.9 785.874 1360.62 785.874 1369.52C776.368 1369.52 769.277 1369.52 764.599 1369.52C760.072 1369.52 753.207 1369.52 744.003 1369.52C744.003 1360.31 744.003 1353.45 744.003 1348.92C744.003 1344.55 744.003 1337.83 744.003 1328.78ZM833.247 1255.22H845.469C847.883 1255.22 849.618 1254.84 850.675 1254.09C851.731 1253.18 852.259 1251.67 852.259 1249.56V1223.99H902.052V1255.22C902.052 1256.58 902.58 1257.78 903.637 1258.84C904.844 1259.75 906.202 1260.2 907.711 1260.2C909.219 1260.2 910.502 1259.75 911.558 1258.84C912.765 1257.78 913.369 1256.58 913.369 1255.22V1223.99H963.162V1253.86C963.162 1255.67 963.69 1257.18 964.747 1258.39C965.954 1259.44 967.463 1259.97 969.273 1259.97C971.537 1259.97 973.196 1258.99 974.253 1257.03C975.46 1255.07 975.761 1252.13 975.158 1248.2C974.102 1241.41 973.347 1236.43 972.895 1233.27C972.442 1229.95 971.687 1225.04 970.631 1218.55L1017.71 1206.56C1019.82 1215.46 1021.63 1224.29 1023.14 1233.04C1024.8 1241.79 1025.63 1249.41 1025.63 1255.9C1025.63 1265.25 1023.59 1274.23 1019.52 1282.83C1015.6 1291.28 1009.41 1298.22 1000.96 1303.65C992.51 1309.09 981.872 1311.8 969.047 1311.8C963.162 1311.8 957.655 1310.97 952.525 1309.31C947.394 1307.5 942.641 1304.94 938.266 1301.62C934.946 1304.64 930.344 1307.13 924.459 1309.09C918.575 1310.9 912.992 1311.8 907.711 1311.8C900.619 1311.8 894.131 1310.97 888.246 1309.31C882.512 1307.5 878.287 1304.94 875.571 1301.62C872.403 1305.39 868.178 1308.03 862.897 1309.54C857.766 1311.05 851.882 1311.8 845.243 1311.8H833.247V1255.22ZM1199.72 1244.81C1200.78 1249.03 1202.59 1251.82 1205.15 1253.18C1207.72 1254.54 1212.24 1255.22 1218.73 1255.22H1223.26L1225.52 1283.51L1223.26 1311.8H1218.73C1203.34 1311.8 1189.31 1307.43 1176.64 1298.68C1164.11 1289.77 1155.66 1276.19 1151.29 1257.94C1144.5 1229.27 1137.63 1200.6 1130.69 1171.93L1179.12 1159.25L1199.72 1244.81ZM1194.97 1227.15C1196.33 1239.07 1196.33 1249.18 1194.97 1257.48C1193.61 1265.63 1191.05 1272.87 1187.27 1279.21C1181.84 1288.72 1174.98 1296.11 1166.68 1301.39C1158.38 1306.67 1149.32 1309.39 1139.52 1309.54C1129.86 1309.69 1120.35 1307.2 1111 1302.07C1101.79 1297.24 1094.55 1289.92 1089.27 1280.12C1083.99 1270.31 1081.27 1259.82 1081.12 1248.66C1081.12 1237.34 1083.91 1227.15 1089.5 1218.1C1092.82 1212.52 1096.36 1207.92 1100.13 1204.29C1104.06 1200.52 1110.32 1196.3 1118.92 1191.62C1127.52 1186.94 1140.12 1181.28 1156.72 1174.64L1174.6 1224.66C1162.68 1228.44 1153.47 1231.61 1146.99 1234.17C1140.65 1236.58 1136.35 1238.55 1134.08 1240.06C1131.97 1241.41 1130.54 1242.77 1129.78 1244.13C1128.43 1246.39 1128.12 1248.81 1128.88 1251.37C1129.63 1253.79 1131.14 1255.6 1133.41 1256.8C1135.67 1258.01 1138.08 1258.31 1140.65 1257.71C1143.36 1256.95 1145.4 1255.45 1146.76 1253.18C1147.66 1251.67 1148.12 1250.16 1148.12 1248.66C1148.27 1247.15 1148.04 1244.96 1147.44 1242.09L1194.97 1227.15ZM1220.93 1255.22H1241.75C1246.73 1255.22 1250.2 1254.39 1252.17 1252.73C1254.13 1251.07 1254.81 1248.5 1254.2 1245.03C1253.15 1239 1252.39 1234.55 1251.94 1231.68C1251.49 1228.81 1250.73 1224.44 1249.68 1218.55L1296.75 1206.56C1298.87 1215.46 1300.68 1224.29 1302.18 1233.04C1303.84 1241.79 1304.67 1249.41 1304.67 1255.9C1304.67 1264.95 1302.41 1273.85 1297.88 1282.61C1293.51 1291.21 1287.25 1298.22 1279.1 1303.65C1270.95 1309.09 1261.52 1311.8 1250.81 1311.8H1220.93V1255.22ZM1217.99 1328.33C1224.93 1328.33 1231.95 1328.33 1239.04 1328.33C1248.39 1328.33 1255.33 1328.4 1259.86 1328.55C1259.86 1337.76 1259.86 1344.55 1259.86 1348.92C1259.86 1353.45 1259.86 1360.16 1259.86 1369.07C1250.35 1369.07 1243.26 1369.07 1238.59 1369.07C1234.06 1369.07 1227.19 1369.07 1217.99 1369.07C1217.99 1359.86 1217.99 1353 1217.99 1348.47C1217.99 1344.09 1217.99 1337.38 1217.99 1328.33Z" fill="#243344"/>
</svg>
