<svg width="1009" height="1032" viewBox="0 0 1009 1032" fill="none" xmlns="http://www.w3.org/2000/svg">
<path d="M294.232 2.2372C452.633 2.2372 606.998 -3.71833 760.742 3.80444C930.506 12.1422 1018.06 128.996 989.619 308.226C812.466 314.558 704.361 425.769 612.152 571.147C593.834 487.77 605.197 416.429 643.385 349.037C646.676 343.207 653.32 338.38 659.467 335.183C702.995 312.489 729.757 261.898 719.201 213.941C716.655 202.343 702.933 185.981 692.687 184.602C652.202 179.21 611.034 178.395 570.114 177.267C565.457 177.142 558.13 184.727 556.205 190.181C512.119 313.617 467.473 436.865 425.436 560.991C398.673 639.918 387.31 721.226 404.883 804.478C406.373 811.562 408.733 818.458 411.651 829.053C549.251 834.82 683.994 826.921 802.034 743.105C864.128 698.971 895.237 635.78 898.342 558.922C898.714 549.958 899.397 541.056 900.08 530.775C979.001 581.616 1021.41 687.248 1004.52 786.8C979.25 935.876 900.08 1009.98 743.604 1022.89C658.225 1029.91 572.163 1030.1 486.412 1030.79C336.393 1031.98 186.375 1031.1 36.3565 1031.1C25.3038 1031.1 14.3132 1031.1 0.09375 1031.1C98.7607 685.869 196.372 344.649 294.232 2.2372Z" fill="#C61C1E"/>
</svg>
