<svg width="2325" height="1032" viewBox="0 0 2325 1032" fill="none" xmlns="http://www.w3.org/2000/svg">
<path d="M40.1207 657.38V687.391C40.1207 693.919 38.9855 699.453 36.7151 703.994C34.5157 708.534 31.252 711.975 26.9241 714.317C22.6671 716.729 17.4169 717.935 11.1733 717.935H4.46863V706.441H11.1733C15.856 706.441 19.5454 705.803 22.2414 704.526C25.0085 703.319 26.995 701.333 28.2012 698.566C29.4783 695.799 30.1168 692.074 30.1168 687.391V657.38H40.1207ZM40.1207 672.598C40.1207 675.153 40.7592 676.962 42.0363 678.026C43.3134 679.09 45.3355 679.622 48.1025 679.622H49.486L50.1245 685.476L49.486 691.116H48.1025C45.7611 691.116 43.6327 690.655 41.717 689.733C39.8723 688.739 38.3115 687.072 37.0344 684.731C35.8282 682.389 35.1897 679.303 35.1187 675.472L40.1207 672.598ZM79.9199 657.38V672.598C79.9199 675.153 80.523 676.962 81.7291 678.026C83.0062 679.09 85.0283 679.622 87.7953 679.622H93.3294L93.9679 685.689L93.3294 691.116H87.7953C85.1702 691.116 82.4741 690.442 79.7071 689.094C76.9401 687.746 74.5987 685.618 72.6831 682.709C70.7675 679.729 69.8096 676.004 69.8096 671.534V657.38H79.9199ZM78.6428 673.024C78.6428 676.926 77.7205 680.261 75.8758 683.028C74.1021 685.724 71.7608 687.746 68.8518 689.094C66.0139 690.442 63.0695 691.116 60.0186 691.116H48.4184V679.622H60.0186C63.4242 679.622 65.9074 678.984 67.4683 677.707C69.0292 676.43 69.8096 674.372 69.8096 671.534L78.6428 673.024ZM52.8882 633.967C54.591 633.967 55.8681 633.967 56.7195 633.967C57.5709 633.967 58.848 633.967 60.5508 633.967C61.7569 633.967 62.9985 633.967 64.2756 633.967C64.2756 636.521 64.2756 638.436 64.2756 639.713C64.2756 640.92 64.2756 642.764 64.2756 645.247C61.6505 645.247 59.6994 645.247 58.4223 645.247C57.2161 645.247 55.3715 645.247 52.8882 645.247C52.8882 642.693 52.8882 640.813 52.8882 639.607C52.8882 638.33 52.8882 636.45 52.8882 633.967ZM72.2574 633.967C74.8825 633.967 76.7982 633.967 78.0043 633.967C79.2814 633.967 81.1615 633.967 83.6448 633.967C83.6448 636.521 83.6448 638.436 83.6448 639.713C83.6448 640.92 83.6448 642.764 83.6448 645.247C81.0196 645.247 79.0685 645.247 77.7914 645.247C76.5853 645.247 74.7406 645.247 72.2574 645.247C72.2574 642.693 72.2574 640.813 72.2574 639.607C72.2574 638.33 72.2574 636.45 72.2574 633.967ZM92.2767 679.622H107.07H109.411C113.242 679.481 116.612 679.019 119.521 678.239C122.43 677.458 124.772 676.323 126.545 674.833C128.319 673.272 129.383 671.428 129.738 669.299C130.235 666.39 130.093 663.907 129.312 661.85C128.532 659.721 127.219 658.16 125.375 657.167C123.601 656.103 121.508 655.571 119.096 655.571C115.193 655.571 112.355 656.741 110.582 659.083C108.808 661.353 107.921 665.042 107.921 670.151V690.797C107.921 694.344 108.631 697.253 110.05 699.524C111.469 701.794 113.633 703.532 116.541 704.738C119.45 705.945 123.175 706.619 127.716 706.761V699.949C127.716 695.905 128.567 692.358 130.27 689.307C132.044 686.185 134.314 683.808 137.081 682.177C139.919 680.474 142.864 679.622 145.914 679.622H151.448L152.087 685.263L151.448 691.116H146.127C143.644 691.116 141.622 691.897 140.061 693.458C138.5 695.018 137.72 697.36 137.72 700.482V708.676L129.206 718.148C123.033 718.148 117.57 717.119 112.817 715.062C108.134 713.075 104.48 710.024 101.855 705.909C99.2298 701.794 97.9172 696.757 97.9172 690.797V670.151C97.9172 664.9 98.7686 660.324 100.471 656.422C102.174 652.52 104.622 649.54 107.815 647.482C111.007 645.425 114.768 644.396 119.096 644.396C123.211 644.396 126.971 645.567 130.377 647.908C133.782 650.249 136.336 653.478 138.039 657.593C139.813 661.637 140.309 666.107 139.529 671.002C138.394 677.884 134.74 682.957 128.567 686.221C122.395 689.484 115.087 691.116 106.644 691.116H92.2767V679.622ZM150.477 679.622H161.652C164.774 679.622 167.044 678.948 168.463 677.6C169.882 676.252 170.521 674.408 170.379 672.066C170.237 670.08 169.847 667.277 169.208 663.659C168.569 660.04 167.895 656.599 167.186 653.336L176.871 650.888C177.651 654.223 178.396 657.983 179.105 662.169C179.815 666.355 180.241 669.725 180.383 672.279C180.524 675.472 179.886 678.523 178.467 681.432C177.119 684.341 175.026 686.682 172.188 688.456C169.421 690.229 166.051 691.116 162.078 691.116H150.477V679.622ZM157.821 706.122C159.878 706.122 161.9 706.122 163.887 706.122C165.873 706.122 167.789 706.122 169.634 706.122C169.634 708.818 169.634 710.805 169.634 712.082C169.634 713.359 169.634 715.274 169.634 717.829C166.938 717.829 164.951 717.829 163.674 717.829C162.397 717.829 160.446 717.829 157.821 717.829C157.821 715.204 157.821 713.252 157.821 711.975C157.821 710.698 157.821 708.747 157.821 706.122ZM231.435 663.765C229.449 668.093 227.888 672.208 226.753 676.11C225.688 680.013 225.192 683.596 225.263 686.859C225.334 690.832 226.008 694.273 227.285 697.182C228.633 700.091 230.655 702.362 233.351 703.994C236.047 705.625 239.453 706.441 243.568 706.441H254.316C257.864 706.441 260.915 706.122 263.469 705.483C266.094 704.845 268.081 703.923 269.429 702.716C270.777 701.581 271.451 700.304 271.451 698.885C271.522 698.034 271.238 697.182 270.599 696.331C270.032 695.48 269.038 694.699 267.619 693.99C266.13 693.28 264.214 692.677 261.873 692.18C259.531 691.755 256.693 691.435 253.359 691.223C252.365 691.152 250.84 691.116 248.782 691.116V679.622H284.115L284.754 685.263L284.115 691.116H278.794C279.716 691.968 280.39 693.032 280.816 694.309C281.313 695.657 281.561 697.076 281.561 698.566C281.49 701.83 280.461 704.916 278.475 707.825C276.488 710.805 273.437 713.217 269.322 715.062C265.278 716.977 260.276 717.935 254.316 717.935H243.568C237.821 717.935 232.819 716.516 228.562 713.678C224.305 710.84 221.041 707.08 218.771 702.397C216.571 697.715 215.401 692.571 215.259 686.966C215.188 682.922 215.826 678.452 217.174 673.556C218.593 668.59 220.332 663.765 222.389 659.083L231.435 663.765ZM316.908 630.348L286.683 643.758L302.86 660.253C306.549 664.014 308.465 668.341 308.607 673.237C308.749 678.132 307.152 682.354 303.818 685.901C300.483 689.378 295.942 691.116 290.195 691.116H266.463V679.622H290.302C293.14 679.622 295.304 679.055 296.794 677.92C298.284 676.784 298.922 675.33 298.709 673.556C298.497 671.783 297.432 669.938 295.517 668.022L275.722 648.227L278.595 635.031L312.757 619.919L316.908 630.348ZM279.66 623.005L307.117 610.979L308.82 615.342L279.021 628.432L279.66 623.005ZM347.646 637.266C348.427 639.11 350.803 644.254 354.777 652.697C356.125 655.677 357.508 658.692 358.927 661.743C360.63 665.503 361.659 669.193 362.013 672.811C362.439 676.43 361.588 679.729 359.459 682.709C357.189 685.901 354.493 688.101 351.371 689.307C348.249 690.513 344.879 691.116 341.261 691.116H335.833C331.86 691.116 328.312 690.478 325.191 689.201C322.069 687.923 319.479 686.505 317.422 684.944L322.424 675.472L322.956 675.791C324.73 676.784 326.61 677.671 328.596 678.452C330.654 679.232 333.066 679.622 335.833 679.622H341.261C343.744 679.622 345.801 679.374 347.433 678.877C349.065 678.381 350.307 677.494 351.158 676.217C351.939 675.082 352.222 673.876 352.01 672.598C351.797 671.25 351.052 669.264 349.775 666.639L342.538 650.888C340.977 647.695 339.629 644.786 338.494 642.161L347.646 637.266ZM358.927 661.85C360.985 666.39 362.723 669.902 364.142 672.386C365.632 674.869 367.193 676.713 368.825 677.92C370.456 679.055 372.337 679.622 374.465 679.622H376.274L376.806 685.689L376.274 691.116H374.465C370.776 691.116 367.476 690.158 364.568 688.243C361.73 686.256 359.175 683.525 356.905 680.048C354.635 676.501 352.258 671.995 349.775 666.532L358.927 661.85ZM375.173 679.622H386.348C389.47 679.622 391.74 678.948 393.159 677.6C394.578 676.252 395.217 674.408 395.075 672.066C394.933 670.08 394.543 667.277 393.904 663.659C393.265 660.04 392.591 656.599 391.882 653.336L401.567 650.888C402.347 654.223 403.092 657.983 403.801 662.169C404.511 666.355 404.937 669.725 405.079 672.279C405.22 675.472 404.582 678.523 403.163 681.432C401.815 684.341 399.722 686.682 396.884 688.456C394.117 690.229 390.747 691.116 386.774 691.116H375.173V679.622ZM385.816 626.943C387.873 626.943 389.895 626.943 391.882 626.943C393.869 626.943 395.784 626.943 397.629 626.943C397.629 629.568 397.629 631.519 397.629 632.796C397.629 634.073 397.629 636.024 397.629 638.649C394.933 638.649 392.946 638.649 391.669 638.649C390.392 638.649 388.441 638.649 385.816 638.649C385.816 635.953 385.816 633.967 385.816 632.689C385.816 631.412 385.816 629.497 385.816 626.943ZM437.236 657.38V687.391C437.236 693.919 436.101 699.453 433.83 703.994C431.631 708.534 428.367 711.975 424.039 714.317C419.783 716.729 414.532 717.935 408.289 717.935H401.584V706.441H408.289C412.971 706.441 416.661 705.803 419.357 704.526C422.124 703.319 424.11 701.333 425.317 698.566C426.594 695.799 427.232 692.074 427.232 687.391V657.38H437.236ZM426.274 631.519C428.332 631.519 430.354 631.519 432.341 631.519C434.327 631.519 436.243 631.519 438.087 631.519C438.087 634.144 438.087 636.095 438.087 637.372C438.087 638.649 438.087 640.6 438.087 643.225C435.391 643.225 433.405 643.225 432.128 643.225C430.851 643.225 428.9 643.225 426.274 643.225C426.274 640.529 426.274 638.543 426.274 637.266C426.274 635.989 426.274 634.073 426.274 631.519ZM487.83 663.765C485.843 668.093 484.282 672.208 483.147 676.11C482.083 680.013 481.586 683.596 481.657 686.859C481.728 690.832 482.402 694.273 483.679 697.182C485.027 700.091 487.049 702.362 489.745 703.994C492.442 705.625 495.847 706.441 499.962 706.441H510.711C514.968 706.441 518.338 706.016 520.821 705.164C523.375 704.384 525.22 703.142 526.355 701.439C527.561 699.737 528.236 697.502 528.377 694.735C528.448 693.812 528.377 693.209 528.165 692.925C527.952 692.642 527.349 692.358 526.355 692.074L503.368 685.901C501.594 680.155 501.239 674.691 502.304 669.512C503.439 664.333 505.567 659.969 508.689 656.422C511.385 653.371 514.436 651.03 517.841 649.398C521.247 647.766 524.794 646.915 528.484 646.844C530.47 646.773 532.563 646.879 534.763 647.163C536.962 647.447 538.878 647.837 540.51 648.334L538.168 659.083C535.472 658.302 532.386 658.018 528.91 658.231C526.355 658.302 524.014 658.834 521.886 659.828C519.757 660.75 517.877 662.098 516.245 663.872C514.542 665.716 513.301 667.632 512.52 669.619C511.811 671.605 511.562 673.84 511.775 676.323C513.691 676.749 516.99 677.636 521.673 678.984C523.446 679.481 525.007 679.942 526.355 680.367C527.703 680.722 528.945 681.041 530.08 681.325C532.28 681.964 533.982 682.886 535.189 684.092C536.466 685.227 537.353 686.646 537.849 688.349C538.417 689.981 538.63 692.039 538.488 694.522C538.275 699.417 537.069 703.603 534.869 707.08C532.67 710.627 529.513 713.323 525.398 715.168C521.353 717.013 516.458 717.935 510.711 717.935H499.962C494.215 717.935 489.213 716.516 484.956 713.678C480.699 710.84 477.436 707.08 475.165 702.397C472.966 697.715 471.795 692.571 471.653 686.966C471.582 682.922 472.221 678.452 473.569 673.556C474.988 668.59 476.726 663.765 478.784 659.083L487.83 663.765ZM555.407 621.408H565.41L565.517 691.116H555.513L555.407 621.408ZM597.807 657.38V687.391C597.807 693.919 596.672 699.453 594.402 703.994C592.202 708.534 588.939 711.975 584.611 714.317C580.354 716.729 575.104 717.935 568.86 717.935H562.155V706.441H568.86C573.543 706.441 577.232 705.803 579.928 704.526C582.695 703.319 584.682 701.333 585.888 698.566C587.165 695.799 587.804 692.074 587.804 687.391V657.38H597.807ZM597.807 672.598C597.807 675.153 598.446 676.962 599.723 678.026C601 679.09 603.022 679.622 605.789 679.622H607.173L607.811 685.476L607.173 691.116H605.789C603.448 691.116 601.319 690.655 599.404 689.733C597.559 688.739 595.998 687.072 594.721 684.731C593.515 682.389 592.876 679.303 592.806 675.472L597.807 672.598ZM606.105 679.622H617.28C620.402 679.622 622.672 678.948 624.091 677.6C625.51 676.252 626.148 674.408 626.007 672.066C625.865 670.08 625.474 667.277 624.836 663.659C624.197 660.04 623.523 656.599 622.814 653.336L632.498 650.888C633.279 654.223 634.024 657.983 634.733 662.169C635.443 666.355 635.868 669.725 636.01 672.279C636.152 675.472 635.514 678.523 634.095 681.432C632.747 684.341 630.654 686.682 627.816 688.456C625.049 690.229 621.679 691.116 617.705 691.116H606.105V679.622ZM613.448 706.122C615.506 706.122 617.528 706.122 619.515 706.122C621.501 706.122 623.417 706.122 625.262 706.122C625.262 708.818 625.262 710.805 625.262 712.082C625.262 713.359 625.262 715.274 625.262 717.829C622.565 717.829 620.579 717.829 619.302 717.829C618.025 717.829 616.074 717.829 613.448 717.829C613.448 715.204 613.448 713.252 613.448 711.975C613.448 710.698 613.448 708.747 613.448 706.122ZM670.887 683.773C670.887 681.786 671.029 680.19 671.312 678.984C671.596 677.778 672.27 676.146 673.334 674.088C674.47 671.96 676.456 668.696 679.294 664.297L680.358 662.807L685.68 666.319C684.19 668.59 682.735 670.896 681.316 673.237C680.11 675.224 679.365 676.607 679.081 677.388C678.797 678.097 678.656 679.019 678.656 680.155V683.667L670.887 683.773ZM678.336 691.223C676.208 691.223 674.434 690.513 673.015 689.094C671.596 687.675 670.887 685.901 670.887 683.773C670.887 681.786 671.596 680.119 673.015 678.771C674.434 677.352 676.208 676.643 678.336 676.643C679.613 676.643 680.82 676.962 681.955 677.6C683.09 678.239 683.977 679.126 684.615 680.261C685.325 681.325 685.68 682.496 685.68 683.773C685.68 685.192 685.325 686.469 684.615 687.604C683.977 688.739 683.09 689.626 681.955 690.265C680.82 690.903 679.613 691.223 678.336 691.223ZM712.204 664.404C710.359 668.235 708.94 671.995 707.947 675.685C706.954 679.303 706.457 682.922 706.457 686.54C706.457 690.584 707.06 694.096 708.266 697.076C709.543 700.056 711.53 702.362 714.226 703.994C716.993 705.625 720.541 706.441 724.869 706.441H735.511C740.194 706.441 743.812 705.945 746.366 704.951C748.92 703.958 750.694 702.326 751.687 700.056C752.752 697.856 753.284 694.77 753.284 690.797V657.38H763.394V690.797C763.394 699.24 761.124 705.874 756.583 710.698C752.113 715.523 745.089 717.935 735.511 717.935H724.869C718.767 717.935 713.588 716.481 709.331 713.572C705.074 710.734 701.845 706.902 699.646 702.078C697.518 697.324 696.453 692.145 696.453 686.54C696.453 681.928 697.127 677.317 698.475 672.705C699.894 668.093 701.668 663.801 703.797 659.828L712.204 664.404ZM763.394 669.086C763.394 672.989 764.174 675.72 765.735 677.281C767.367 678.842 769.602 679.622 772.44 679.622C775.491 679.622 777.69 678.948 779.038 677.6C780.457 676.181 781.167 674.017 781.167 671.108V657.38H791.171V672.173C791.171 674.727 791.809 676.607 793.086 677.813C794.363 678.948 796.315 679.551 798.94 679.622C801.778 679.551 803.871 678.842 805.219 677.494C806.638 676.146 807.241 674.337 807.028 672.066C806.815 669.654 806.389 666.781 805.751 663.446C805.183 660.04 804.545 656.67 803.835 653.336L813.52 650.888C814.3 654.223 815.045 657.983 815.755 662.169C816.464 666.355 816.89 669.725 817.032 672.279C817.103 675.401 816.464 678.416 815.116 681.325C813.839 684.234 811.817 686.611 809.05 688.456C806.354 690.229 802.984 691.116 798.94 691.116C796.527 691.116 794.151 690.584 791.809 689.52C789.468 688.385 787.481 686.717 785.85 684.518C784.147 686.646 782.16 688.278 779.89 689.413C777.69 690.549 775.207 691.116 772.44 691.116C769.176 691.116 766.232 690.265 763.607 688.562C761.053 686.859 759.031 684.341 757.541 681.006C756.122 677.671 755.412 673.698 755.412 669.086H763.394ZM779.783 618.216C782.196 618.216 784.005 618.216 785.211 618.216C786.417 618.216 788.191 618.216 790.532 618.216C790.532 620.628 790.532 622.437 790.532 623.643C790.532 624.85 790.532 626.623 790.532 628.965C788.12 628.965 786.311 628.965 785.105 628.965C783.969 628.965 782.196 628.965 779.783 628.965C779.783 626.552 779.783 624.779 779.783 623.643C779.783 622.437 779.783 620.628 779.783 618.216ZM769.567 632.477C771.269 632.477 772.547 632.477 773.398 632.477C774.249 632.477 775.526 632.477 777.229 632.477C778.435 632.477 779.677 632.477 780.954 632.477C780.954 635.031 780.954 636.946 780.954 638.223C780.954 639.43 780.954 641.274 780.954 643.758C778.329 643.758 776.378 643.758 775.101 643.758C773.895 643.758 772.05 643.758 769.567 643.758C769.567 641.203 769.567 639.323 769.567 638.117C769.567 636.84 769.567 634.96 769.567 632.477ZM789.362 632.477C791.916 632.477 793.796 632.477 795.002 632.477C796.279 632.477 798.159 632.477 800.642 632.477C800.642 635.031 800.642 636.946 800.642 638.223C800.642 639.43 800.642 641.274 800.642 643.758C798.088 643.758 796.173 643.758 794.896 643.758C793.689 643.758 791.845 643.758 789.362 643.758C789.362 641.203 789.362 639.323 789.362 638.117C789.362 636.84 789.362 634.96 789.362 632.477ZM847.447 657.38V687.391C847.447 693.919 846.311 699.453 844.041 703.994C841.842 708.534 838.578 711.975 834.25 714.317C829.993 716.729 824.743 717.935 818.499 717.935H811.795V706.441H818.499C823.182 706.441 826.871 705.803 829.567 704.526C832.334 703.319 834.321 701.333 835.527 698.566C836.804 695.799 837.443 692.074 837.443 687.391V657.38H847.447ZM836.485 631.519C838.542 631.519 840.565 631.519 842.551 631.519C844.538 631.519 846.453 631.519 848.298 631.519C848.298 634.144 848.298 636.095 848.298 637.372C848.298 638.649 848.298 640.6 848.298 643.225C845.602 643.225 843.615 643.225 842.338 643.225C841.061 643.225 839.11 643.225 836.485 643.225C836.485 640.529 836.485 638.543 836.485 637.266C836.485 635.989 836.485 634.073 836.485 631.519ZM887.667 657.38V687.391C887.667 693.919 886.532 699.453 884.262 703.994C882.062 708.534 878.799 711.975 874.471 714.317C870.214 716.729 864.964 717.935 858.72 717.935H852.015V706.441H858.72C863.403 706.441 867.092 705.803 869.788 704.526C872.555 703.319 874.542 701.333 875.748 698.566C877.025 695.799 877.664 692.074 877.664 687.391V657.38H887.667ZM910.967 706.441C915.862 706.441 919.587 705.909 922.141 704.845C924.766 703.781 926.54 702.113 927.462 699.843C928.456 697.644 928.952 694.593 928.952 690.691V669.725C928.952 665.681 928.03 662.524 926.185 660.253C924.412 657.983 921.68 656.848 917.991 656.848C914.656 656.848 912.066 658.018 910.222 660.36C908.377 662.701 907.455 665.787 907.455 669.619C907.455 673.166 908.306 675.72 910.009 677.281C911.712 678.771 914.408 679.516 918.097 679.516H933.422V690.797H918.097C911.925 690.797 906.958 688.952 903.198 685.263C899.438 681.574 897.557 676.43 897.557 669.831C897.557 665.291 898.409 661.176 900.112 657.486C901.885 653.797 904.333 650.923 907.455 648.866C910.577 646.737 914.089 645.673 917.991 645.673C922.248 645.673 925.937 646.702 929.059 648.759C932.252 650.746 934.699 653.584 936.402 657.273C938.176 660.892 939.063 665.078 939.063 669.831V690.691C939.063 696.083 938.105 700.801 936.189 704.845C934.345 708.889 931.329 712.082 927.143 714.423C923.028 716.764 917.636 717.935 910.967 717.935H899.154V706.441H910.967ZM987.563 706.441C992.458 706.441 996.183 705.909 998.737 704.845C1001.36 703.781 1003.14 702.113 1004.06 699.843C1005.05 697.644 1005.55 694.593 1005.55 690.691V669.725C1005.55 665.681 1004.63 662.524 1002.78 660.253C1001.01 657.983 998.276 656.848 994.587 656.848C991.252 656.848 988.663 658.018 986.818 660.36C984.973 662.701 984.051 665.787 984.051 669.619C984.051 673.166 984.902 675.72 986.605 677.281C988.308 678.771 991.004 679.516 994.693 679.516H1010.02V690.797H994.693C988.521 690.797 983.554 688.952 979.794 685.263C976.034 681.574 974.153 676.43 974.153 669.831C974.153 665.291 975.005 661.176 976.708 657.486C978.481 653.797 980.929 650.923 984.051 648.866C987.173 646.737 990.685 645.673 994.587 645.673C998.844 645.673 1002.53 646.702 1005.65 648.759C1008.85 650.746 1011.3 653.584 1013 657.273C1014.77 660.892 1015.66 665.078 1015.66 669.831V690.691C1015.66 696.083 1014.7 700.801 1012.79 704.845C1010.94 708.889 1007.93 712.082 1003.74 714.423C999.624 716.764 994.232 717.935 987.563 717.935H975.75V706.441H987.563ZM1093.96 668.874C1094.88 672.847 1096.72 675.649 1099.49 677.281C1102.26 678.842 1105.56 679.622 1109.39 679.622H1111.52L1112.16 685.263L1111.52 691.116H1109.39C1103.86 691.116 1098.68 689.591 1093.85 686.54C1089.1 683.489 1085.87 678.523 1084.17 671.641C1081.26 659.295 1078.35 646.986 1075.44 634.711L1085.23 632.157L1093.96 668.874ZM1090.66 656.528C1091.16 661.069 1091.19 664.865 1090.77 667.916C1090.41 670.896 1089.45 673.734 1087.89 676.43C1085.98 679.764 1083.53 682.354 1080.55 684.199C1077.57 685.972 1074.34 686.859 1070.86 686.859C1067.39 686.859 1064.02 685.901 1060.75 683.986C1057.63 682.212 1055.18 679.693 1053.41 676.43C1051.64 673.166 1050.71 669.654 1050.64 665.894C1050.64 662.133 1051.57 658.692 1053.41 655.571C1054.69 653.442 1056.14 651.633 1057.77 650.143C1059.48 648.653 1062.14 646.986 1065.76 645.141C1069.44 643.225 1074.84 640.849 1081.93 638.011L1085.76 648.653C1080.3 650.427 1075.94 652.094 1072.67 653.655C1069.41 655.145 1067.03 656.528 1065.54 657.805C1064.05 659.012 1062.92 660.253 1062.14 661.53C1060.72 663.801 1060.33 666.142 1060.97 668.554C1061.68 670.967 1063.13 672.882 1065.33 674.301C1067.6 675.649 1070.12 676.075 1072.89 675.578C1075.65 675.011 1077.96 673.592 1079.8 671.321C1081.01 669.902 1081.72 668.235 1081.93 666.319C1082.14 664.404 1081.9 661.637 1081.19 658.018L1090.66 656.528ZM1110.48 679.622H1123.99C1127.75 679.622 1130.41 678.984 1131.97 677.707C1133.53 676.359 1134.24 674.479 1134.1 672.066C1133.96 670.08 1133.57 667.277 1132.93 663.659C1132.36 660.04 1131.73 656.599 1131.02 653.336L1140.7 650.888C1141.48 654.223 1142.23 657.983 1142.94 662.169C1143.64 666.355 1144.07 669.725 1144.21 672.279C1144.28 675.543 1143.61 678.629 1142.19 681.538C1140.77 684.376 1138.54 686.682 1135.49 688.456C1132.51 690.229 1128.78 691.116 1124.31 691.116H1110.48V679.622ZM1105.69 706.335C1107.39 706.335 1108.67 706.335 1109.52 706.335C1110.37 706.335 1111.65 706.335 1113.35 706.335C1114.56 706.335 1115.8 706.335 1117.07 706.335C1117.07 708.889 1117.07 710.769 1117.07 711.975C1117.07 713.252 1117.07 715.133 1117.07 717.616C1114.45 717.616 1112.5 717.616 1111.22 717.616C1110.01 717.616 1108.17 717.616 1105.69 717.616C1105.69 715.062 1105.69 713.146 1105.69 711.869C1105.69 710.663 1105.69 708.818 1105.69 706.335ZM1125.06 706.335C1127.68 706.335 1129.6 706.335 1130.8 706.335C1132.08 706.335 1133.96 706.335 1136.44 706.335C1136.44 708.889 1136.44 710.769 1136.44 711.975C1136.44 713.252 1136.44 715.133 1136.44 717.616C1133.82 717.616 1131.87 717.616 1130.59 717.616C1129.38 717.616 1127.54 717.616 1125.06 717.616C1125.06 715.062 1125.06 713.146 1125.06 711.869C1125.06 710.663 1125.06 708.818 1125.06 706.335ZM1185.11 637.266C1185.89 639.11 1188.27 644.254 1192.24 652.697C1193.59 655.677 1194.97 658.692 1196.39 661.743C1198.1 665.503 1199.12 669.193 1199.48 672.811C1199.9 676.43 1199.05 679.729 1196.92 682.709C1194.65 685.901 1191.96 688.101 1188.84 689.307C1185.71 690.513 1182.34 691.116 1178.73 691.116H1173.3C1169.33 691.116 1165.78 690.478 1162.66 689.201C1159.53 687.923 1156.94 686.505 1154.89 684.944L1159.89 675.472L1160.42 675.791C1162.2 676.784 1164.08 677.671 1166.06 678.452C1168.12 679.232 1170.53 679.622 1173.3 679.622H1178.73C1181.21 679.622 1183.27 679.374 1184.9 678.877C1186.53 678.381 1187.77 677.494 1188.62 676.217C1189.4 675.082 1189.69 673.876 1189.48 672.598C1189.26 671.25 1188.52 669.264 1187.24 666.639L1180 650.888C1178.44 647.695 1177.09 644.786 1175.96 642.161L1185.11 637.266ZM1196.39 661.85C1198.45 666.39 1200.19 669.902 1201.61 672.386C1203.1 674.869 1204.66 676.713 1206.29 677.92C1207.92 679.055 1209.8 679.622 1211.93 679.622H1213.74L1214.27 685.689L1213.74 691.116H1211.93C1208.24 691.116 1204.94 690.158 1202.03 688.243C1199.2 686.256 1196.64 683.525 1194.37 680.048C1192.1 676.501 1189.72 671.995 1187.24 666.532L1196.39 661.85ZM1176.28 615.874C1178.34 615.874 1180.36 615.874 1182.34 615.874C1184.33 615.874 1186.25 615.874 1188.09 615.874C1188.09 618.5 1188.09 620.451 1188.09 621.728C1188.09 623.005 1188.09 624.956 1188.09 627.581C1185.4 627.581 1183.41 627.581 1182.13 627.581C1180.85 627.581 1178.9 627.581 1176.28 627.581C1176.28 624.885 1176.28 622.898 1176.28 621.621C1176.28 620.344 1176.28 618.429 1176.28 615.874ZM1212.64 679.622H1217.53C1221.86 679.622 1225.48 679.481 1228.39 679.197C1231.37 678.842 1233.92 678.31 1236.05 677.6L1228.92 668.022C1225.73 663.623 1223.35 660.431 1221.79 658.444L1228.92 646.418H1256.7C1260.6 646.418 1263.72 647.802 1266.06 650.569C1268.48 653.265 1269.61 656.457 1269.47 660.147C1269.4 663.836 1267.91 667.064 1265 669.831L1261.27 673.343C1259.36 675.046 1257.41 676.784 1255.42 678.558C1256.7 678.984 1257.98 679.268 1259.25 679.41C1260.53 679.551 1262.13 679.622 1264.04 679.622H1275.85L1276.6 685.582L1275.85 691.116H1262.34C1258.65 691.116 1255.46 690.691 1252.76 689.839C1250.06 688.917 1247.51 687.604 1245.1 685.901C1242.12 687.604 1238.57 688.917 1234.46 689.839C1230.41 690.691 1225.37 691.116 1219.34 691.116H1212.64V679.622ZM1246.06 674.408C1247.62 672.989 1249.78 670.825 1252.55 667.916C1254.46 666 1256.31 664.191 1258.08 662.488C1258.93 661.708 1259.39 660.892 1259.47 660.04C1259.61 659.118 1259.32 658.373 1258.61 657.805C1257.9 657.167 1256.88 656.848 1255.53 656.848H1232.65C1234.21 658.763 1236.44 661.672 1239.35 665.574C1241.69 668.767 1243.93 671.712 1246.06 674.408ZM1239.35 624.495C1241.41 624.495 1243.43 624.495 1245.42 624.495C1247.4 624.495 1249.32 624.495 1251.16 624.495C1251.16 627.12 1251.16 629.071 1251.16 630.348C1251.16 631.625 1251.16 633.576 1251.16 636.201C1248.47 636.201 1246.48 636.201 1245.2 636.201C1243.93 636.201 1241.98 636.201 1239.35 636.201C1239.35 633.505 1239.35 631.519 1239.35 630.242C1239.35 628.965 1239.35 627.049 1239.35 624.495ZM1274.79 679.622H1288.3C1292.07 679.622 1294.73 678.984 1296.29 677.707C1297.85 676.359 1298.56 674.479 1298.42 672.066C1298.27 670.08 1297.88 667.277 1297.24 663.659C1296.68 660.04 1296.04 656.599 1295.33 653.336L1305.01 650.888C1305.79 654.223 1306.54 657.983 1307.25 662.169C1307.96 666.355 1308.38 669.725 1308.53 672.279C1308.6 675.543 1307.92 678.629 1306.5 681.538C1305.08 684.376 1302.85 686.682 1299.8 688.456C1296.82 690.229 1293.09 691.116 1288.62 691.116H1274.79V679.622ZM1278.94 627.262C1280.64 627.262 1281.92 627.262 1282.77 627.262C1283.62 627.262 1284.9 627.262 1286.6 627.262C1287.81 627.262 1289.05 627.262 1290.33 627.262C1290.33 629.816 1290.33 631.732 1290.33 633.009C1290.33 634.215 1290.33 636.06 1290.33 638.543C1287.7 638.543 1285.75 638.543 1284.47 638.543C1283.27 638.543 1281.42 638.543 1278.94 638.543C1278.94 635.989 1278.94 634.108 1278.94 632.902C1278.94 631.625 1278.94 629.745 1278.94 627.262ZM1298.31 627.262C1300.93 627.262 1302.85 627.262 1304.06 627.262C1305.33 627.262 1307.21 627.262 1309.7 627.262C1309.7 629.816 1309.7 631.732 1309.7 633.009C1309.7 634.215 1309.7 636.06 1309.7 638.543C1307.07 638.543 1305.12 638.543 1303.84 638.543C1302.64 638.543 1300.79 638.543 1298.31 638.543C1298.31 635.989 1298.31 634.108 1298.31 632.902C1298.31 631.625 1298.31 629.745 1298.31 627.262Z" fill="#243344"/>
<path d="M1610.23 2.2372C1768.63 2.2372 1923 -3.71833 2076.74 3.80444C2246.51 12.1422 2334.06 128.996 2305.62 308.226C2128.47 314.558 2020.36 425.769 1928.15 571.147C1909.83 487.77 1921.2 416.429 1959.38 349.037C1962.68 343.207 1969.32 338.38 1975.47 335.183C2018.99 312.489 2045.76 261.898 2035.2 213.941C2032.66 202.343 2018.93 185.981 2008.69 184.602C1968.2 179.21 1927.03 178.395 1886.11 177.267C1881.46 177.142 1874.13 184.727 1872.21 190.181C1828.12 313.617 1783.47 436.865 1741.44 560.991C1714.67 639.918 1703.31 721.226 1720.88 804.478C1722.37 811.562 1724.73 818.458 1727.65 829.053C1865.25 834.82 1999.99 826.921 2118.03 743.105C2180.13 698.971 2211.24 635.78 2214.34 558.922C2214.71 549.958 2215.4 541.056 2216.08 530.775C2295 581.616 2337.41 687.248 2320.52 786.8C2295.25 935.876 2216.08 1009.98 2059.6 1022.89C1974.23 1029.91 1888.16 1030.1 1802.41 1030.79C1652.39 1031.98 1502.37 1031.1 1352.36 1031.1C1341.3 1031.1 1330.31 1031.1 1316.09 1031.1C1414.76 685.869 1512.37 344.649 1610.23 2.2372Z" fill="#C61C1E"/>
<path d="M73.3116 440.758C70.2938 446.794 67.5024 453.81 64.9372 461.807C62.523 469.654 61.3159 476.444 61.3159 482.177C61.3159 487.006 62.1458 490.929 63.8056 493.947C65.6162 496.964 68.4831 499.228 72.4062 500.737C76.3293 502.246 81.535 503 88.0232 503H100.019C106.96 503 112.241 502.472 115.862 501.416C119.484 500.359 121.973 498.624 123.331 496.21C124.84 493.796 125.595 490.25 125.595 485.572V415.183H175.388V485.572C175.388 507.904 169.201 525.784 156.829 539.213C144.456 552.793 125.519 559.583 100.019 559.583H88.0232C71.4255 559.583 57.3928 556.113 45.9252 549.172C34.4577 542.231 25.9325 532.876 20.3496 521.107C14.7667 509.488 11.9752 496.512 11.9752 482.177C11.9752 472.219 13.7105 461.581 17.1809 450.264C20.8022 438.948 24.7253 429.215 28.9502 421.067L73.3116 440.758ZM77.3856 374.669C84.3265 374.669 91.3428 374.669 98.4346 374.669C107.79 374.669 114.731 374.744 119.257 374.895C119.257 384.1 119.257 390.965 119.257 395.492C119.257 399.867 119.257 406.507 119.257 415.409C109.751 415.409 102.659 415.409 97.9819 415.409C93.4552 415.409 86.5898 415.409 77.3856 415.409C77.3856 406.205 77.3856 399.415 77.3856 395.039C77.3856 390.512 77.3856 383.722 77.3856 374.669ZM198.081 335.061H247.875V495.078H198.081V335.061ZM324.366 415.183V478.556C324.366 494.852 321.424 509.036 315.539 521.107C309.806 533.329 301.205 542.759 289.737 549.398C278.421 556.188 264.69 559.583 248.545 559.583H234.286V503H248.545C256.995 503 262.879 502.547 266.199 501.642C269.669 500.586 271.933 498.473 272.989 495.305C274.045 492.136 274.573 486.553 274.573 478.556V415.183H324.366ZM399.902 503C387.227 503 376.589 500.284 367.989 494.852C359.388 489.269 352.975 481.876 348.75 472.671C344.525 463.467 342.413 453.282 342.413 442.116V335.061H392.206V440.758C392.206 442.116 392.357 443.248 392.659 444.153C393.112 444.908 393.715 445.511 394.47 445.964C395.224 446.266 396.28 446.417 397.638 446.417H411.218L413.482 473.35L411.218 503H399.902ZM408.872 446.417H429.695C434.674 446.417 438.144 445.587 440.106 443.927C442.067 442.267 442.746 439.702 442.143 436.232C441.087 430.196 440.332 425.745 439.88 422.878C439.427 420.011 438.672 415.635 437.616 409.751L484.694 397.755C486.806 406.657 488.617 415.484 490.126 424.236C491.785 432.988 492.615 440.607 492.615 447.096C492.615 456.149 490.352 465.051 485.825 473.803C481.449 482.404 475.188 489.42 467.04 494.852C458.892 500.284 449.461 503 438.748 503H408.872V446.417ZM405.93 519.522C412.87 519.522 419.887 519.522 426.979 519.522C436.334 519.522 443.275 519.598 447.801 519.749C447.801 528.953 447.801 535.743 447.801 540.119C447.801 544.645 447.801 551.36 447.801 560.262C438.295 560.262 431.203 560.262 426.526 560.262C421.999 560.262 415.134 560.262 405.93 560.262C405.93 551.058 405.93 544.193 405.93 539.666C405.93 535.29 405.93 528.576 405.93 519.522ZM603.222 503C590.698 503 579.758 499.907 570.403 493.72C561.048 487.534 554.334 479.009 550.26 468.145C546.336 457.281 545.657 444.983 548.223 431.252C550.033 421.897 552.221 412.618 554.786 403.413L601.185 417.446L600.279 421.067C598.318 428.914 597.035 434.346 596.432 437.363C595.828 440.381 596.13 442.644 597.337 444.153C598.544 445.662 600.732 446.417 603.901 446.417H673.385L632.192 400.245L640.34 349.546L720.689 314.238L740.606 365.842L693.076 386.891L710.277 409.977C718.727 421.294 722.65 434.346 722.047 449.133C721.443 463.92 716.69 476.594 707.788 487.157C698.885 497.719 687.342 503 673.159 503H603.222ZM755.77 474.708L753.507 503H751.244C741.587 503 732.835 501.189 724.989 497.568C717.294 493.796 709.598 487.911 701.903 479.914C694.208 471.917 685.079 460.751 674.517 446.417L670.216 440.532L710.277 409.977L714.804 415.862C721.443 424.462 726.724 430.875 730.647 435.1C734.57 439.325 738.041 442.267 741.059 443.927C744.227 445.587 747.622 446.417 751.244 446.417H753.507L755.77 474.708ZM827.293 415.183V440.758C827.293 443.022 827.671 444.531 828.425 445.285C829.179 446.039 830.613 446.417 832.725 446.417H835.441L837.705 475.161L835.441 503H829.783C820.277 503 811.525 500.51 803.528 495.531C795.531 490.401 789.194 483.158 784.516 473.803C779.839 464.297 777.5 453.282 777.5 440.758V415.183H827.293ZM827.293 440.758C827.293 452.075 824.577 462.486 819.145 471.992C813.864 481.498 806.848 489.043 798.096 494.626C789.496 500.209 780.518 503 771.163 503H751.245V446.417H770.71C773.577 446.417 775.388 446.039 776.142 445.285C777.047 444.531 777.5 443.022 777.5 440.758H827.293ZM744.003 519.975C750.944 519.975 757.96 519.975 765.052 519.975C774.407 519.975 781.348 520.05 785.874 520.201C785.874 529.406 785.874 536.196 785.874 540.571C785.874 545.098 785.874 551.813 785.874 560.715C776.368 560.715 769.277 560.715 764.599 560.715C760.072 560.715 753.207 560.715 744.003 560.715C744.003 551.511 744.003 544.645 744.003 540.119C744.003 535.743 744.003 529.028 744.003 519.975ZM833.247 446.417H845.469C847.883 446.417 849.618 446.039 850.675 445.285C851.731 444.38 852.259 442.871 852.259 440.758V415.183H902.052V446.417C902.052 447.775 902.58 448.982 903.637 450.038C904.844 450.943 906.202 451.396 907.711 451.396C909.219 451.396 910.502 450.943 911.558 450.038C912.765 448.982 913.369 447.775 913.369 446.417V415.183H963.162V445.059C963.162 446.869 963.69 448.378 964.747 449.585C965.954 450.642 967.463 451.17 969.273 451.17C971.537 451.17 973.196 450.189 974.253 448.227C975.46 446.266 975.761 443.323 975.158 439.4C974.102 432.61 973.347 427.631 972.895 424.462C972.442 421.143 971.687 416.239 970.631 409.751L1017.71 397.755C1019.82 406.657 1021.63 415.484 1023.14 424.236C1024.8 432.988 1025.63 440.607 1025.63 447.096C1025.63 456.451 1023.59 465.429 1019.52 474.029C1015.6 482.479 1009.41 489.42 1000.96 494.852C992.51 500.284 981.872 503 969.047 503C963.162 503 957.655 502.17 952.525 500.51C947.394 498.7 942.641 496.135 938.266 492.815C934.946 495.833 930.344 498.322 924.459 500.284C918.575 502.095 912.992 503 907.711 503C900.619 503 894.131 502.17 888.246 500.51C882.512 498.7 878.287 496.135 875.571 492.815C872.403 496.587 868.178 499.228 862.897 500.737C857.766 502.246 851.882 503 845.243 503H833.247V446.417ZM1199.72 436.005C1200.78 440.23 1202.59 443.022 1205.15 444.38C1207.72 445.738 1212.24 446.417 1218.73 446.417H1223.26L1225.52 474.708L1223.26 503H1218.73C1203.34 503 1189.31 498.624 1176.64 489.873C1164.11 480.97 1155.66 467.39 1151.29 449.133C1144.5 420.464 1137.63 391.795 1130.69 363.126L1179.12 350.451L1199.72 436.005ZM1194.97 418.351C1196.33 430.272 1196.33 440.381 1194.97 448.68C1193.61 456.828 1191.05 464.071 1187.27 470.408C1181.84 479.914 1174.98 487.308 1166.68 492.589C1158.38 497.87 1149.32 500.586 1139.52 500.737C1129.86 500.888 1120.35 498.398 1111 493.268C1101.79 488.439 1094.55 481.121 1089.27 471.313C1083.99 461.506 1081.27 451.019 1081.12 439.853C1081.12 428.536 1083.91 418.351 1089.5 409.298C1092.82 403.715 1096.36 399.113 1100.13 395.492C1104.06 391.719 1110.32 387.495 1118.92 382.817C1127.52 378.139 1140.12 372.481 1156.72 365.842L1174.6 415.862C1162.68 419.634 1153.47 422.803 1146.99 425.368C1140.65 427.782 1136.35 429.743 1134.08 431.252C1131.97 432.61 1130.54 433.968 1129.78 435.326C1128.43 437.59 1128.12 440.004 1128.88 442.569C1129.63 444.983 1131.14 446.794 1133.41 448.001C1135.67 449.208 1138.08 449.51 1140.65 448.906C1143.36 448.152 1145.4 446.643 1146.76 444.38C1147.66 442.871 1148.12 441.362 1148.12 439.853C1148.27 438.344 1148.04 436.156 1147.44 433.289L1194.97 418.351ZM1220.93 446.417H1241.75C1246.73 446.417 1250.2 445.587 1252.17 443.927C1254.13 442.267 1254.81 439.702 1254.2 436.232C1253.15 430.196 1252.39 425.745 1251.94 422.878C1251.49 420.011 1250.73 415.635 1249.68 409.751L1296.75 397.755C1298.87 406.657 1300.68 415.484 1302.18 424.236C1303.84 432.988 1304.67 440.607 1304.67 447.096C1304.67 456.149 1302.41 465.051 1297.88 473.803C1293.51 482.404 1287.25 489.42 1279.1 494.852C1270.95 500.284 1261.52 503 1250.81 503H1220.93V446.417ZM1217.99 519.522C1224.93 519.522 1231.95 519.522 1239.04 519.522C1248.39 519.522 1255.33 519.598 1259.86 519.749C1259.86 528.953 1259.86 535.743 1259.86 540.119C1259.86 544.645 1259.86 551.36 1259.86 560.262C1250.35 560.262 1243.26 560.262 1238.59 560.262C1234.06 560.262 1227.19 560.262 1217.99 560.262C1217.99 551.058 1217.99 544.193 1217.99 539.666C1217.99 535.29 1217.99 528.576 1217.99 519.522Z" fill="#243344"/>
</svg>
